G04*
G04 #@! TF.GenerationSoftware,Altium Limited,Altium Designer,18.1.7 (191)*
G04*
G04 Layer_Color=32896*
%FSLAX25Y25*%
%MOIN*%
G70*
G01*
G75*
%ADD10C,0.00787*%
%ADD13C,0.00500*%
D10*
X169303Y479555D02*
Y481130D01*
X172059Y479555D02*
Y481130D01*
X178197Y479713D02*
Y481287D01*
X175441Y479713D02*
Y481287D01*
X181378Y357713D02*
Y359287D01*
X178622Y357713D02*
Y359287D01*
X171622Y357713D02*
Y359287D01*
X174378Y357713D02*
Y359287D01*
X155213Y362622D02*
X156787D01*
X155213Y365378D02*
X156787D01*
X155213Y376378D02*
X156787D01*
X155213Y373622D02*
X156787D01*
D13*
X178900Y364600D02*
X181899D01*
Y366100D01*
X181399Y366599D01*
X180400D01*
X179900Y366100D01*
Y364600D01*
Y365600D02*
X178900Y366599D01*
Y369598D02*
Y367599D01*
X180899Y369598D01*
X181399D01*
X181899Y369098D01*
Y368099D01*
X181399Y367599D01*
Y370598D02*
X181899Y371098D01*
Y372098D01*
X181399Y372597D01*
X179400D01*
X178900Y372098D01*
Y371098D01*
X179400Y370598D01*
X181399D01*
X169400Y356400D02*
Y359399D01*
X167901D01*
X167401Y358899D01*
Y357899D01*
X167901Y357400D01*
X169400D01*
X168400D02*
X167401Y356400D01*
X166401D02*
X165401D01*
X165901D01*
Y359399D01*
X166401Y358899D01*
X163902Y356900D02*
X163402Y356400D01*
X162402D01*
X161902Y356900D01*
Y358899D01*
X162402Y359399D01*
X163402D01*
X163902Y358899D01*
Y358399D01*
X163402Y357899D01*
X161902D01*
X148900Y362400D02*
Y365399D01*
X147400D01*
X146901Y364899D01*
Y363899D01*
X147400Y363400D01*
X148900D01*
X147900D02*
X146901Y362400D01*
X145901D02*
X144901D01*
X145401D01*
Y365399D01*
X145901Y364899D01*
X143402Y362400D02*
X142402D01*
X142902D01*
Y365399D01*
X143402Y364899D01*
X149400Y373900D02*
Y376899D01*
X147900D01*
X147401Y376399D01*
Y375399D01*
X147900Y374900D01*
X149400D01*
X148400D02*
X147401Y373900D01*
X146401D02*
X145401D01*
X145901D01*
Y376899D01*
X146401Y376399D01*
X143902D02*
X143402Y376899D01*
X142402D01*
X141902Y376399D01*
Y374400D01*
X142402Y373900D01*
X143402D01*
X143902Y374400D01*
Y376399D01*
X194704Y363352D02*
X195204Y363852D01*
X196203D01*
X196703Y363352D01*
Y361353D01*
X196203Y360853D01*
X195204D01*
X194704Y361353D01*
X192205Y360853D02*
Y363852D01*
X193704Y362352D01*
X191705D01*
X146886Y370999D02*
X147386Y371499D01*
X148385D01*
X148885Y370999D01*
Y369000D01*
X148385Y368500D01*
X147386D01*
X146886Y369000D01*
X145886Y368500D02*
X144886D01*
X145386D01*
Y371499D01*
X145886Y370999D01*
X186700Y486400D02*
Y489399D01*
X185201D01*
X184701Y488899D01*
Y487899D01*
X185201Y487400D01*
X186700D01*
X185700D02*
X184701Y486400D01*
X183701D02*
X182701D01*
X183201D01*
Y489399D01*
X183701Y488899D01*
X179202Y489399D02*
X181202D01*
Y487899D01*
X180202Y488399D01*
X179702D01*
X179202Y487899D01*
Y486900D01*
X179702Y486400D01*
X180702D01*
X181202Y486900D01*
X172000Y486800D02*
Y489799D01*
X170501D01*
X170001Y489299D01*
Y488300D01*
X170501Y487800D01*
X172000D01*
X171000D02*
X170001Y486800D01*
X169001D02*
X168001D01*
X168501D01*
Y489799D01*
X169001Y489299D01*
X165002Y486800D02*
Y489799D01*
X166502Y488300D01*
X164502D01*
X158501Y480899D02*
X159001Y481399D01*
X160000D01*
X160500Y480899D01*
Y478900D01*
X160000Y478400D01*
X159001D01*
X158501Y478900D01*
X157501Y480899D02*
X157001Y481399D01*
X156001D01*
X155502Y480899D01*
Y480399D01*
X156001Y479900D01*
X156501D01*
X156001D01*
X155502Y479400D01*
Y478900D01*
X156001Y478400D01*
X157001D01*
X157501Y478900D01*
M02*
