G04*
G04 #@! TF.GenerationSoftware,Altium Limited,Altium Designer,18.1.7 (191)*
G04*
G04 Layer_Color=16711935*
%FSLAX25Y25*%
%MOIN*%
G70*
G01*
G75*
%ADD10C,0.00787*%
%ADD11C,0.00500*%
%ADD46C,0.00394*%
D10*
X150394Y492547D02*
X149606D01*
X150394D01*
Y447047D02*
X149606D01*
X150394D01*
X264457Y383543D02*
X263669D01*
X264457D01*
X225551Y288193D02*
X224764D01*
X225551D01*
X226551Y240693D02*
X225764D01*
X226551D01*
X223394Y331193D02*
X222606D01*
X223394D01*
X218744Y406000D02*
X217957D01*
X218744D01*
X222807Y468787D02*
X222020D01*
X222807D01*
X225394Y376106D02*
X224606D01*
X225394D01*
X150394Y309547D02*
X149606D01*
X150394D01*
Y263547D02*
X149606D01*
X150394D01*
Y401547D02*
X149606D01*
X150394D01*
Y356547D02*
X149606D01*
X150394D01*
D11*
X136221Y490185D02*
X165748D01*
X136221Y450815D02*
Y490185D01*
Y450815D02*
X165748D01*
Y490185D01*
X136221Y444685D02*
X165748D01*
X136221Y405315D02*
Y444685D01*
Y405315D02*
X165748D01*
Y444685D01*
X249791Y385906D02*
X261209D01*
Y354410D02*
Y385906D01*
X249791Y354410D02*
X261209D01*
X249791D02*
Y385906D01*
X223465Y283980D02*
X226850D01*
X223465Y279020D02*
Y283980D01*
Y279020D02*
X226850D01*
Y283980D01*
X224465Y236480D02*
X227850D01*
X224465Y231520D02*
Y236480D01*
Y231520D02*
X227850D01*
Y236480D01*
X221307Y326980D02*
X224693D01*
X221307Y322020D02*
Y326980D01*
Y322020D02*
X224693D01*
Y326980D01*
X214138Y404307D02*
Y407693D01*
X209177D02*
X214138D01*
X209177Y404307D02*
Y407693D01*
Y404307D02*
X214138D01*
X220721Y464575D02*
X224106D01*
X220721Y459614D02*
Y464575D01*
Y459614D02*
X224106D01*
Y464575D01*
X223307Y371894D02*
X226693D01*
X223307Y366933D02*
Y371894D01*
Y366933D02*
X226693D01*
Y371894D01*
X165748Y267815D02*
Y307185D01*
X136221Y267815D02*
X165748D01*
X136221D02*
Y307185D01*
X165748D01*
Y221815D02*
Y261185D01*
X136221Y221815D02*
X165748D01*
X136221D02*
Y261185D01*
X165748D01*
Y359815D02*
Y399185D01*
X136221Y359815D02*
X165748D01*
X136221D02*
Y399185D01*
X165748D01*
X136221Y354185D02*
X165748D01*
X136221Y314815D02*
Y354185D01*
Y314815D02*
X165748D01*
Y354185D01*
D46*
X264130Y330614D02*
X267870D01*
X264130Y323724D02*
X267870D01*
X264130D02*
Y330614D01*
X267870Y323724D02*
Y330614D01*
X195945Y284130D02*
Y287870D01*
X189055Y284130D02*
Y287870D01*
X195945D01*
X189055Y284130D02*
X195945D01*
X189154Y290630D02*
Y294370D01*
X195846Y290630D02*
Y294370D01*
X189154Y290630D02*
X195846D01*
X189154Y294370D02*
X195846D01*
X195846Y276630D02*
Y280370D01*
X189154Y276630D02*
Y280370D01*
X195846D01*
X189154Y276630D02*
X195846D01*
X189654Y247130D02*
Y250870D01*
X196346Y247130D02*
Y250870D01*
X189654Y247130D02*
X196346D01*
X189654Y250870D02*
X196346D01*
X196445Y238630D02*
Y242370D01*
X189555Y238630D02*
Y242370D01*
X196445D01*
X189555Y238630D02*
X196445D01*
X196504Y230130D02*
Y233870D01*
X189811Y230130D02*
Y233870D01*
X196504D01*
X189811Y230130D02*
X196504D01*
X221153Y293130D02*
Y296870D01*
X227847Y293130D02*
Y296870D01*
X221153Y293130D02*
X227847D01*
X221153Y296870D02*
X227847D01*
X224106Y378130D02*
Y381870D01*
X230799Y378130D02*
Y381870D01*
X224106Y378130D02*
X230799D01*
X224106Y381870D02*
X230799D01*
X221654Y244130D02*
Y247870D01*
X228346Y244130D02*
Y247870D01*
X221654Y244130D02*
X228346D01*
X221654Y247870D02*
X228346D01*
X220701Y334543D02*
Y338283D01*
X227394Y334543D02*
Y338283D01*
X220701Y334543D02*
X227394D01*
X220701Y338283D02*
X227394D01*
X197815Y413287D02*
Y417028D01*
X190925Y413287D02*
Y417028D01*
X197815D01*
X190925Y413287D02*
X197815D01*
X191154Y427287D02*
Y431028D01*
X197846Y427287D02*
Y431028D01*
X191154Y427287D02*
X197846D01*
X191154Y431028D02*
X197846D01*
X197894Y421039D02*
Y424780D01*
X191201Y421039D02*
Y424780D01*
X197894D01*
X191201Y421039D02*
X197894D01*
X222153Y423630D02*
Y427370D01*
X228847Y423630D02*
Y427370D01*
X222153Y423630D02*
X228847D01*
X222153Y427370D02*
X228847D01*
X220153Y474870D02*
X226847D01*
X220153Y471130D02*
X226847D01*
Y474870D01*
X220153Y471130D02*
Y474870D01*
X196945Y465449D02*
Y469189D01*
X190055Y465449D02*
Y469189D01*
X196945D01*
X190055Y465449D02*
X196945D01*
X197189Y458764D02*
Y462504D01*
X190496Y458764D02*
Y462504D01*
X197189D01*
X190496Y458764D02*
X197189D01*
X190154Y472811D02*
Y476551D01*
X196846Y472811D02*
Y476551D01*
X190154Y472811D02*
X196846D01*
X190154Y476551D02*
X196846D01*
X189449Y330130D02*
X196142D01*
X189449Y333870D02*
X196142D01*
X189449Y330130D02*
Y333870D01*
X196142Y330130D02*
Y333870D01*
X189409Y340370D02*
X196102D01*
X189409Y336630D02*
X196102D01*
Y340370D01*
X189409Y336630D02*
Y340370D01*
X191358Y375130D02*
X198051D01*
X191358Y378870D02*
X198051D01*
X191358Y375130D02*
Y378870D01*
X198051Y375130D02*
Y378870D01*
X191362Y385669D02*
X198055D01*
X191362Y381929D02*
X198055D01*
Y385669D01*
X191362Y381929D02*
Y385669D01*
X189264Y322327D02*
X196153D01*
X189264Y326067D02*
X196153D01*
X189264Y322327D02*
Y326067D01*
X196153Y322327D02*
Y326067D01*
X190852Y367787D02*
X197742D01*
X190852Y371528D02*
X197742D01*
X190852Y367787D02*
Y371528D01*
X197742Y367787D02*
Y371528D01*
M02*
