G04*
G04 #@! TF.GenerationSoftware,Altium Limited,Altium Designer,18.1.7 (191)*
G04*
G04 Layer_Physical_Order=1*
G04 Layer_Color=255*
%FSLAX25Y25*%
%MOIN*%
G70*
G01*
G75*
%ADD21C,0.02500*%
%ADD22C,0.05906*%
%ADD23R,0.05906X0.05906*%
%ADD24C,0.08268*%
%ADD25R,0.08268X0.08268*%
%ADD26C,0.18898*%
%ADD27C,0.05512*%
%ADD28C,0.05000*%
D21*
X246500Y339500D02*
Y346500D01*
Y339500D02*
X251842Y334157D01*
X257000D01*
X253157Y324342D02*
X258000D01*
X231500Y346000D02*
X253157Y324342D01*
X196000Y346000D02*
X231500D01*
X192000Y223000D02*
X196000D01*
X188500Y226500D02*
X192000Y223000D01*
X188500Y226500D02*
Y266000D01*
X186500Y445500D02*
X194000Y453000D01*
X186500Y418256D02*
Y445500D01*
Y418256D02*
X196256Y408500D01*
X187500Y399744D02*
X196256Y408500D01*
X187500Y366500D02*
Y399744D01*
Y366500D02*
X192500Y361500D01*
X188000Y357000D02*
X192500Y361500D01*
X188000Y323500D02*
Y357000D01*
Y323500D02*
X195000Y316500D01*
X188000Y277500D02*
X194000Y271500D01*
X188000Y309500D02*
X195000Y316500D01*
X188000Y277500D02*
Y309500D01*
X188500Y266000D02*
X194000Y271500D01*
X196000Y346000D02*
X202000Y340000D01*
Y307047D02*
Y340000D01*
X195453Y300500D02*
X202000Y307047D01*
X197453Y436000D02*
X206000Y427453D01*
Y398594D02*
Y427453D01*
X197906Y390500D02*
X206000Y398594D01*
X196453Y481547D02*
X201000Y477000D01*
X195453Y300500D02*
X200500Y295453D01*
Y260500D02*
Y295453D01*
X196000Y256000D02*
X200500Y260500D01*
X202000Y352000D02*
Y386405D01*
X196000Y346000D02*
X202000Y352000D01*
X197906Y390500D02*
X202000Y386405D01*
X201000Y439547D02*
Y477000D01*
X197453Y436000D02*
X201000Y439547D01*
D22*
X257500Y334157D02*
D03*
D23*
Y324158D02*
D03*
D24*
X150000Y460658D02*
D03*
Y415158D02*
D03*
Y277658D02*
D03*
Y231658D02*
D03*
Y369657D02*
D03*
Y324658D02*
D03*
D25*
Y480342D02*
D03*
Y434842D02*
D03*
Y297342D02*
D03*
Y251343D02*
D03*
Y389342D02*
D03*
Y344342D02*
D03*
D26*
X115000Y485000D02*
D03*
X265000D02*
D03*
Y230000D02*
D03*
X115000D02*
D03*
D27*
X173500Y295000D02*
D03*
X213500D02*
D03*
X174500Y231658D02*
D03*
X214500D02*
D03*
X174500Y246000D02*
D03*
X214500D02*
D03*
X173500Y278000D02*
D03*
X213500D02*
D03*
X213453Y336500D02*
D03*
X173453D02*
D03*
X213344Y324342D02*
D03*
X173344D02*
D03*
X216844Y369500D02*
D03*
X176844D02*
D03*
X214000Y425500D02*
D03*
X174000D02*
D03*
X213000Y460744D02*
D03*
X173000D02*
D03*
X216797Y380000D02*
D03*
X176797D02*
D03*
X214158Y414870D02*
D03*
X174158D02*
D03*
X213000Y473000D02*
D03*
X173000D02*
D03*
D28*
X246500Y346500D02*
D03*
X196000Y223000D02*
D03*
X194000Y271500D02*
D03*
X195000Y316500D02*
D03*
X192500Y361500D02*
D03*
X196256Y408500D02*
D03*
X194000Y453000D02*
D03*
X196453Y481547D02*
D03*
X197906Y390500D02*
D03*
X196000Y346000D02*
D03*
X195453Y300500D02*
D03*
X196000Y256000D02*
D03*
X197453Y436000D02*
D03*
M02*
