M48
;Layer_Color=9474304
;FILE_FORMAT=2:5
INCH,LZ
;TYPE=PLATED
T1F00S00C0.02800
T2F00S00C0.03346
T3F00S00C0.03543
T4F00S00C0.05512
;TYPE=NON_PLATED
T5F00S00C0.11811
%
T01
X0196Y0223
Y0256
X0194Y02715
X0195453Y03005
X0195Y03165
X0196Y0346
X01925Y03615
X0197906Y03905
X0196256Y04085
X0197453Y0436
X0194Y0453
X02465Y03465
X0196453Y0481547
T02
X01745Y0231658
Y0246
X01735Y0278
Y0295
X02135
Y0278
X02145Y0246
Y0231658
X0213344Y0324342
X0213453Y03365
X0216844Y03695
X0216797Y038
X0214158Y041487
X0214Y04255
X0213Y0460744
X0173
X0174Y04255
X0174158Y041487
X0176797Y038
X0176844Y03695
X0173453Y03365
X0173344Y0324342
X0173Y0473
X0213
T03
X02575Y0324158
Y0334157
T04
X015Y0231658
Y0251343
Y0277658
Y0297342
Y0324658
Y0344342
Y0369657
Y0389342
Y0415158
Y0434842
Y0460658
Y0480342
T05
X0265Y023
X0115
X0265Y0485
X0115
M30
