G04*
G04 #@! TF.GenerationSoftware,Altium Limited,Altium Designer,18.1.7 (191)*
G04*
G04 Layer_Physical_Order=2*
G04 Layer_Color=16711680*
%FSLAX25Y25*%
%MOIN*%
G70*
G01*
G75*
%ADD12C,0.01000*%
%ADD21C,0.02500*%
%ADD22C,0.05906*%
%ADD23R,0.05906X0.05906*%
%ADD24C,0.08268*%
%ADD25R,0.08268X0.08268*%
%ADD26C,0.18898*%
%ADD27C,0.05512*%
%ADD28C,0.05000*%
%ADD29R,0.03543X0.03150*%
%ADD30R,0.07087X0.04724*%
%ADD31R,0.06102X0.02362*%
G04:AMPARAMS|DCode=32|XSize=21.26mil|YSize=15.75mil|CornerRadius=3.94mil|HoleSize=0mil|Usage=FLASHONLY|Rotation=270.000|XOffset=0mil|YOffset=0mil|HoleType=Round|Shape=RoundedRectangle|*
%AMROUNDEDRECTD32*
21,1,0.02126,0.00787,0,0,270.0*
21,1,0.01339,0.01575,0,0,270.0*
1,1,0.00787,-0.00394,-0.00669*
1,1,0.00787,-0.00394,0.00669*
1,1,0.00787,0.00394,0.00669*
1,1,0.00787,0.00394,-0.00669*
%
%ADD32ROUNDEDRECTD32*%
G04:AMPARAMS|DCode=33|XSize=21.26mil|YSize=15.75mil|CornerRadius=3.94mil|HoleSize=0mil|Usage=FLASHONLY|Rotation=180.000|XOffset=0mil|YOffset=0mil|HoleType=Round|Shape=RoundedRectangle|*
%AMROUNDEDRECTD33*
21,1,0.02126,0.00787,0,0,180.0*
21,1,0.01339,0.01575,0,0,180.0*
1,1,0.00787,-0.00669,0.00394*
1,1,0.00787,0.00669,0.00394*
1,1,0.00787,0.00669,-0.00394*
1,1,0.00787,-0.00669,-0.00394*
%
%ADD33ROUNDEDRECTD33*%
%ADD34R,0.03150X0.03543*%
%ADD35R,0.02756X0.03543*%
%ADD36C,0.05000*%
D12*
X213000Y473000D02*
X213000Y473000D01*
D21*
X224500Y410500D02*
Y418500D01*
X220000Y406000D02*
X224500Y410500D01*
X214728Y406000D02*
X220000D01*
X224500Y418500D02*
X228500Y422500D01*
X197705Y373151D02*
Y377000D01*
X225157Y363657D02*
Y366342D01*
X195256Y274803D02*
Y286000D01*
X204000Y406000D02*
X208587D01*
X201500Y408500D02*
X204000Y406000D01*
X196256Y408500D02*
X201500D01*
X257500Y334157D02*
X261768D01*
X257000D02*
X257500D01*
X238500Y386000D02*
Y419909D01*
X232909Y425500D02*
X238500Y419909D01*
X228453Y425500D02*
X232909D01*
X238500Y386000D02*
X248437Y376063D01*
X233000Y473000D02*
X252000Y454000D01*
Y402000D02*
Y454000D01*
Y402000D02*
X262488Y391512D01*
Y380000D02*
Y391512D01*
X252547Y385118D02*
Y391453D01*
X245000Y399000D02*
X252547Y391453D01*
X245000Y399000D02*
Y425500D01*
X217500Y453000D02*
X222413Y448087D01*
X194000Y453000D02*
X217500D01*
X222413Y448087D02*
X245000Y425500D01*
X222413Y448087D02*
Y459024D01*
X261768Y334157D02*
X266000Y329925D01*
X243500Y283500D02*
Y333000D01*
X227953Y267953D02*
X243500Y283500D01*
X227953Y246000D02*
Y267953D01*
X237500Y337500D02*
X246500Y346500D01*
X237500Y286744D02*
Y337500D01*
X225157Y274402D02*
X237500Y286744D01*
X227500Y289500D02*
Y295000D01*
Y310500D01*
X231500Y343500D02*
X252252Y364252D01*
X231500Y314500D02*
Y343500D01*
X227500Y310500D02*
X231500Y314500D01*
X222256Y271500D02*
X225157Y274402D01*
X246500Y346500D02*
X250000D01*
X252547Y349047D02*
Y355197D01*
X250000Y346500D02*
X252547Y349047D01*
X257000Y324158D02*
X257256Y324413D01*
X266000D01*
X197906Y383500D02*
Y390500D01*
X262488Y351988D02*
Y360315D01*
X243500Y333000D02*
X262488Y351988D01*
X248437Y376063D02*
X262488D01*
X244937Y372126D02*
X262488D01*
X237063Y380000D02*
X244937Y372126D01*
X230405Y380000D02*
X237063D01*
X226453Y473000D02*
X233000D01*
X246189Y368189D02*
X262488D01*
X227000Y349000D02*
X246189Y368189D01*
X227000Y336413D02*
Y349000D01*
X252252Y364252D02*
X262488D01*
X227453Y295000D02*
X227500D01*
X226453Y470272D02*
Y473000D01*
X222413Y466232D02*
X226453Y470272D01*
X222413Y465165D02*
Y466232D01*
X228500Y422500D02*
Y425453D01*
X228453Y425500D02*
X228500Y425453D01*
X223000Y361500D02*
X225157Y363657D01*
X194500Y361500D02*
X223000D01*
X225953Y374742D02*
X229148D01*
X225000Y373789D02*
X225953Y374742D01*
X225000Y372484D02*
Y373789D01*
X229148Y374742D02*
X230405Y376000D01*
Y380000D01*
X213453Y336500D02*
X221094D01*
X197053Y366053D02*
Y369657D01*
X192500Y361500D02*
X197053Y366053D01*
X225157Y287158D02*
X227500Y289500D01*
X223000Y329500D02*
X227000Y333500D01*
X223000Y327571D02*
Y329500D01*
X227000Y333500D02*
Y336413D01*
X223000Y318744D02*
Y321429D01*
X220756Y316500D02*
X223000Y318744D01*
X195000Y316500D02*
X220756D01*
X225157Y284571D02*
Y287158D01*
Y274402D02*
Y278429D01*
X194000Y271500D02*
X222256D01*
X227953Y241453D02*
Y246000D01*
X226157Y239657D02*
X227953Y241453D01*
X226157Y237071D02*
Y239657D01*
Y226658D02*
Y230929D01*
X222500Y223000D02*
X226157Y226658D01*
X196000Y223000D02*
X222500D01*
X195756Y240500D02*
X196110Y240146D01*
Y232000D02*
Y240146D01*
X196000Y231890D02*
X196110Y232000D01*
X196000Y223000D02*
Y231890D01*
X194000Y273547D02*
X195256Y274803D01*
X194000Y271500D02*
Y273547D01*
X195465Y320965D02*
Y324197D01*
X195000Y320500D02*
X195465Y320965D01*
X195000Y316500D02*
Y320500D01*
X195465Y324197D02*
X195748Y324480D01*
Y332000D01*
X197053Y369657D02*
Y372500D01*
X197705Y373151D01*
X197126Y415158D02*
X197453Y414831D01*
Y409697D02*
Y414831D01*
X196256Y408500D02*
X197453Y409697D01*
X197126Y415158D02*
X197500Y415531D01*
Y422909D01*
X194000Y453000D02*
X196795Y455795D01*
Y460634D01*
X197053Y460892D01*
Y463500D01*
X196256Y464297D02*
X197053Y463500D01*
X196256Y464297D02*
Y467319D01*
X196453Y474681D02*
Y481547D01*
X197453Y429157D02*
Y436000D01*
X176844Y369500D02*
X191542D01*
Y376742D02*
X191799Y377000D01*
X191542Y369657D02*
Y376742D01*
X191799Y377000D02*
Y383299D01*
X195709Y345709D02*
X196000Y346000D01*
X195709Y338500D02*
Y345709D01*
X173344Y324342D02*
X189953D01*
Y338350D01*
Y324197D02*
Y324342D01*
X189803Y338500D02*
X189953Y338350D01*
X195453Y292500D02*
Y300500D01*
X195953Y255953D02*
X196000Y256000D01*
X195953Y249000D02*
Y255953D01*
X214500Y246000D02*
X222047D01*
X190205Y232000D02*
Y248843D01*
X190047Y249000D02*
X190205Y248843D01*
X174500Y231658D02*
X174843Y232000D01*
X190205D01*
X223047Y295000D02*
X223047Y295000D01*
X213500Y295000D02*
X223047D01*
X189547Y278500D02*
Y292500D01*
X189547Y292500D01*
X173500Y278000D02*
X174000Y278500D01*
X189547D01*
X150000Y277658D02*
X150343Y278000D01*
X173500D01*
Y294500D02*
X174000Y295000D01*
X213344Y336391D02*
X213453Y336500D01*
X173344Y336391D02*
X173453Y336500D01*
X150000Y324658D02*
X150315Y324342D01*
X224500Y380000D02*
X224500Y380000D01*
X216797Y380000D02*
X224500D01*
X150000Y369657D02*
X150157Y369500D01*
X176797Y380000D02*
X176844Y379953D01*
X216797Y380000D02*
X216844Y379953D01*
X174000Y425500D02*
X174158Y425343D01*
X214000Y425500D02*
X214158Y425343D01*
X173870Y415158D02*
X174158Y414870D01*
X222547Y425500D02*
X222547Y425500D01*
X214000Y425500D02*
X222547D01*
X191547Y415158D02*
Y429433D01*
X174158Y414870D02*
X174445Y415158D01*
X191547D01*
Y429433D02*
X191614Y429500D01*
X190547Y460658D02*
Y474681D01*
X172413Y460658D02*
X190547D01*
X213000Y473000D02*
X220547D01*
D22*
X257500Y334157D02*
D03*
D23*
Y324158D02*
D03*
D24*
X150000Y460658D02*
D03*
Y415158D02*
D03*
Y277658D02*
D03*
Y231658D02*
D03*
Y369657D02*
D03*
Y324658D02*
D03*
D25*
Y480342D02*
D03*
Y434842D02*
D03*
Y297342D02*
D03*
Y251343D02*
D03*
Y389342D02*
D03*
Y344342D02*
D03*
D26*
X115000Y485000D02*
D03*
X265000D02*
D03*
Y230000D02*
D03*
X115000D02*
D03*
D27*
X173500Y295000D02*
D03*
X213500D02*
D03*
X174500Y231658D02*
D03*
X214500D02*
D03*
X174500Y246000D02*
D03*
X214500D02*
D03*
X173500Y278000D02*
D03*
X213500D02*
D03*
X213453Y336500D02*
D03*
X173453D02*
D03*
X213344Y324342D02*
D03*
X173344D02*
D03*
X216844Y369500D02*
D03*
X176844D02*
D03*
X214000Y425500D02*
D03*
X174000D02*
D03*
X213000Y460744D02*
D03*
X173000D02*
D03*
X216797Y380000D02*
D03*
X176797D02*
D03*
X214158Y414870D02*
D03*
X174158D02*
D03*
X213000Y473000D02*
D03*
X173000D02*
D03*
D28*
X246500Y346500D02*
D03*
X196000Y223000D02*
D03*
X194000Y271500D02*
D03*
X195000Y316500D02*
D03*
X192500Y361500D02*
D03*
X196256Y408500D02*
D03*
X194000Y453000D02*
D03*
X196453Y481547D02*
D03*
X197906Y390500D02*
D03*
X196000Y346000D02*
D03*
X195453Y300500D02*
D03*
X196000Y256000D02*
D03*
X197453Y436000D02*
D03*
D29*
X266000Y329925D02*
D03*
Y324413D02*
D03*
D30*
X252547Y355197D02*
D03*
Y385118D02*
D03*
D31*
X262488Y360315D02*
D03*
Y364252D02*
D03*
Y368189D02*
D03*
Y380000D02*
D03*
Y376063D02*
D03*
Y372126D02*
D03*
D32*
X225157Y284571D02*
D03*
Y278429D02*
D03*
X226157Y237071D02*
D03*
Y230929D02*
D03*
X223000Y327571D02*
D03*
Y321429D02*
D03*
X222413Y465165D02*
D03*
Y459024D02*
D03*
X225000Y372484D02*
D03*
Y366342D02*
D03*
D33*
X214728Y406000D02*
D03*
X208587D02*
D03*
D34*
X195256Y286000D02*
D03*
X189744D02*
D03*
X195756Y240500D02*
D03*
X190244D02*
D03*
X197126Y415158D02*
D03*
X191614D02*
D03*
X196256Y467319D02*
D03*
X190744D02*
D03*
X189953Y324197D02*
D03*
X195465D02*
D03*
X191542Y369657D02*
D03*
X197053D02*
D03*
D35*
X189547Y292500D02*
D03*
X195453D02*
D03*
X195453Y278500D02*
D03*
X189547D02*
D03*
X190047Y249000D02*
D03*
X195953D02*
D03*
X196110Y232000D02*
D03*
X190205D02*
D03*
X221547Y295000D02*
D03*
X227453D02*
D03*
X224500Y380000D02*
D03*
X230405D02*
D03*
X222047Y246000D02*
D03*
X227953D02*
D03*
X221094Y336413D02*
D03*
X227000D02*
D03*
X191547Y429157D02*
D03*
X197453D02*
D03*
X197500Y422909D02*
D03*
X191595D02*
D03*
X222547Y425500D02*
D03*
X228453D02*
D03*
X226453Y473000D02*
D03*
X220547D02*
D03*
X196795Y460634D02*
D03*
X190890D02*
D03*
X190547Y474681D02*
D03*
X196453D02*
D03*
X189842Y332000D02*
D03*
X195748D02*
D03*
X195709Y338500D02*
D03*
X189803D02*
D03*
X191752Y377000D02*
D03*
X197658D02*
D03*
X197661Y383799D02*
D03*
X191756D02*
D03*
D36*
X216797Y380000D02*
Y390203D01*
X208500Y398500D02*
X216797Y390203D01*
X171000Y398500D02*
X208500D01*
X161843Y389342D02*
X171000Y398500D01*
X213453Y336500D02*
Y345047D01*
X204000Y354500D02*
X213453Y345047D01*
X172500Y354500D02*
X204000D01*
X213000Y473000D02*
Y480000D01*
X203000Y490000D02*
X213000Y480000D01*
X171158Y490000D02*
X203000D01*
X161500Y480342D02*
X171158Y490000D01*
X214000Y425500D02*
Y439500D01*
X207000Y446500D02*
X214000Y439500D01*
X175500Y446500D02*
X207000D01*
X163842Y434842D02*
X175500Y446500D01*
X162343Y344342D02*
X172500Y354500D01*
X150000Y344342D02*
X162343D01*
X214500Y246000D02*
Y256000D01*
X206000Y264500D02*
X214500Y256000D01*
X176000Y264500D02*
X206000D01*
X162843Y251343D02*
X176000Y264500D01*
X150000Y251343D02*
X162843D01*
X214500Y231658D02*
Y246000D01*
X174500Y231658D02*
Y246000D01*
X150000Y231658D02*
X174500D01*
X213500Y295000D02*
Y300000D01*
Y278000D02*
Y295000D01*
X204000Y309500D02*
X213500Y300000D01*
X173000Y309500D02*
X204000D01*
X160843Y297342D02*
X173000Y309500D01*
X150000Y297342D02*
X160843D01*
X173500Y278000D02*
Y294500D01*
X213344Y324342D02*
Y336391D01*
X173344Y324342D02*
Y336391D01*
X150315Y324342D02*
X173344D01*
X150000Y389342D02*
X161843D01*
X150157Y369500D02*
X176844D01*
Y379953D01*
X216844Y369500D02*
Y379953D01*
X150000Y434842D02*
X163842D01*
X174158Y414870D02*
Y425343D01*
X214158Y414870D02*
Y425343D01*
X150000Y415158D02*
X173870D01*
X150000Y480342D02*
X161500D01*
X150000Y460658D02*
X172413D01*
X173000Y461244D02*
Y473000D01*
X213000Y461244D02*
Y473000D01*
M02*
