G04*
G04 #@! TF.GenerationSoftware,Altium Limited,Altium Designer,18.1.7 (191)*
G04*
G04 Layer_Color=32896*
%FSLAX25Y25*%
%MOIN*%
G70*
G01*
G75*
%ADD10C,0.00787*%
%ADD11C,0.00500*%
%ADD12C,0.01000*%
%ADD13C,0.00800*%
%ADD44C,0.00984*%
%ADD45C,0.01299*%
%ADD46C,0.01378*%
G36*
X229008Y489605D02*
X250191D01*
Y486935D01*
X244673D01*
Y486757D01*
X244495D01*
Y486401D01*
X244317D01*
Y486223D01*
X244139D01*
Y486045D01*
X243961D01*
Y485867D01*
X243783D01*
Y485689D01*
X243605D01*
Y485511D01*
X243426D01*
Y485333D01*
X243249D01*
Y485155D01*
X243071D01*
Y484799D01*
X243426D01*
Y484621D01*
X243783D01*
Y484443D01*
X243961D01*
Y484265D01*
X244139D01*
Y484087D01*
X244495D01*
Y483909D01*
X244673D01*
Y483731D01*
X245029D01*
Y483553D01*
X245207D01*
Y483375D01*
X245563D01*
Y483197D01*
X245741D01*
Y483019D01*
X246097D01*
Y482841D01*
X246275D01*
Y482663D01*
X246453D01*
Y482485D01*
X246809D01*
Y482307D01*
X246987D01*
Y482128D01*
X247165D01*
Y481951D01*
X247521D01*
Y481773D01*
X247699D01*
Y481595D01*
X248055D01*
Y481417D01*
X248233D01*
Y481239D01*
X248411D01*
Y481061D01*
X248767D01*
Y480883D01*
X248945D01*
Y480704D01*
X249301D01*
Y480526D01*
X249479D01*
Y480348D01*
X249835D01*
Y480170D01*
X250013D01*
Y479992D01*
X250191D01*
Y476611D01*
X250013D01*
Y476789D01*
X249835D01*
Y476966D01*
X249657D01*
Y477144D01*
X249301D01*
Y477322D01*
X249123D01*
Y477500D01*
X248767D01*
Y477678D01*
X248589D01*
Y477856D01*
X248233D01*
Y478034D01*
X248055D01*
Y478212D01*
X247877D01*
Y478391D01*
X247521D01*
Y478569D01*
X247343D01*
Y478747D01*
X246987D01*
Y478925D01*
X246809D01*
Y479103D01*
X246631D01*
Y479281D01*
X246275D01*
Y479459D01*
X246097D01*
Y479636D01*
X245919D01*
Y479814D01*
X245563D01*
Y479992D01*
X245385D01*
Y480170D01*
X245029D01*
Y480348D01*
X244851D01*
Y480526D01*
X244495D01*
Y480704D01*
X244317D01*
Y480883D01*
X243961D01*
Y481061D01*
X243783D01*
Y481239D01*
X243605D01*
Y481417D01*
X243249D01*
Y481595D01*
X243071D01*
Y481773D01*
X242893D01*
Y481951D01*
X242536D01*
Y482128D01*
X242358D01*
Y482307D01*
X242003D01*
Y482485D01*
X241825D01*
Y482663D01*
X241469D01*
Y482841D01*
X241290D01*
Y483019D01*
X240934D01*
Y482841D01*
X240757D01*
Y482663D01*
X240579D01*
Y482485D01*
X240401D01*
Y482307D01*
X240223D01*
Y482128D01*
X240044D01*
Y481951D01*
X239866D01*
Y481773D01*
X239688D01*
Y481595D01*
X239510D01*
Y481417D01*
X239333D01*
Y481239D01*
X239155D01*
Y481061D01*
X238977D01*
Y480883D01*
X238798D01*
Y480704D01*
X238620D01*
Y480526D01*
X238442D01*
Y480348D01*
X238264D01*
Y480170D01*
X238087D01*
Y479992D01*
X237909D01*
Y479636D01*
X237552D01*
Y479281D01*
X237374D01*
Y479103D01*
X237196D01*
Y478925D01*
X237018D01*
Y478747D01*
X236841D01*
Y478569D01*
X236662D01*
Y478391D01*
X236485D01*
Y478212D01*
X236307D01*
Y478034D01*
X236128D01*
Y477856D01*
X235950D01*
Y477678D01*
X235772D01*
Y477500D01*
X235594D01*
Y480704D01*
X235772D01*
Y481061D01*
X236128D01*
Y481417D01*
X236307D01*
Y481595D01*
X236485D01*
Y481773D01*
X236662D01*
Y481951D01*
X236841D01*
Y482128D01*
X237018D01*
Y482307D01*
X237196D01*
Y482485D01*
X237374D01*
Y482663D01*
X237552D01*
Y482841D01*
X237731D01*
Y483019D01*
X237909D01*
Y483197D01*
X238087D01*
Y483375D01*
X238264D01*
Y483553D01*
X238442D01*
Y483731D01*
X238620D01*
Y483909D01*
X238798D01*
Y484087D01*
X238977D01*
Y484265D01*
X239155D01*
Y484443D01*
X239333D01*
Y484621D01*
X239510D01*
Y484799D01*
X239688D01*
Y484977D01*
X239866D01*
Y485155D01*
X240044D01*
Y485333D01*
X240223D01*
Y485511D01*
X240401D01*
Y485689D01*
X240579D01*
Y485867D01*
X240757D01*
Y486045D01*
X240934D01*
Y486223D01*
X241112D01*
Y486401D01*
X241290D01*
Y486579D01*
X241469D01*
Y486935D01*
X229008D01*
Y486757D01*
X228830D01*
Y489783D01*
X229008D01*
Y489605D01*
D02*
G37*
G36*
X245207Y475008D02*
X246809D01*
Y474830D01*
X247343D01*
Y474652D01*
X248055D01*
Y474474D01*
X248411D01*
Y474297D01*
X248767D01*
Y474118D01*
X248945D01*
Y473940D01*
X249123D01*
Y473762D01*
X249301D01*
Y473584D01*
X249479D01*
Y473407D01*
X249657D01*
Y473228D01*
X249835D01*
Y472872D01*
X250013D01*
Y472516D01*
X250191D01*
Y472160D01*
X250369D01*
Y471626D01*
X250547D01*
Y468600D01*
X250369D01*
Y468066D01*
X250191D01*
Y467532D01*
X250013D01*
Y467176D01*
X249835D01*
Y466820D01*
X249657D01*
Y466642D01*
X249479D01*
Y466464D01*
X249301D01*
Y466286D01*
X249123D01*
Y465930D01*
X248767D01*
Y465752D01*
X248589D01*
Y465574D01*
X248233D01*
Y465218D01*
X250191D01*
Y462548D01*
X235416D01*
Y465396D01*
X245207D01*
Y465574D01*
X245741D01*
Y465752D01*
X246275D01*
Y465930D01*
X246453D01*
Y466108D01*
X246809D01*
Y466286D01*
X246987D01*
Y466464D01*
X247165D01*
Y466642D01*
X247343D01*
Y466820D01*
X247521D01*
Y466998D01*
X247699D01*
Y467176D01*
X247877D01*
Y467532D01*
X248055D01*
Y467888D01*
X248233D01*
Y470380D01*
X248055D01*
Y470736D01*
X247877D01*
Y471092D01*
X247699D01*
Y471270D01*
X247521D01*
Y471448D01*
X247343D01*
Y471626D01*
X246987D01*
Y471804D01*
X246809D01*
Y471982D01*
X246275D01*
Y472160D01*
X245563D01*
Y472338D01*
X235416D01*
Y475186D01*
X245207D01*
Y475008D01*
D02*
G37*
G36*
X250191Y455784D02*
X241290D01*
Y455606D01*
X240579D01*
Y455428D01*
X240044D01*
Y455250D01*
X239688D01*
Y455072D01*
X239155D01*
Y454894D01*
X238977D01*
Y454716D01*
X238798D01*
Y454538D01*
X238620D01*
Y454360D01*
X238442D01*
Y454182D01*
X238264D01*
Y454004D01*
X238087D01*
Y453826D01*
X237909D01*
Y453470D01*
X237731D01*
Y452936D01*
X237552D01*
Y451334D01*
X237731D01*
Y450978D01*
X237909D01*
Y450622D01*
X238087D01*
Y450444D01*
X238264D01*
Y450266D01*
X238442D01*
Y450088D01*
X238620D01*
Y449910D01*
X238977D01*
Y449732D01*
X239333D01*
Y449554D01*
X240044D01*
Y449376D01*
X250191D01*
Y446528D01*
X241469D01*
Y446350D01*
X240579D01*
Y446172D01*
X240044D01*
Y445994D01*
X239688D01*
Y445816D01*
X239333D01*
Y445638D01*
X238977D01*
Y445460D01*
X238798D01*
Y445282D01*
X238620D01*
Y445104D01*
X238442D01*
Y444926D01*
X238264D01*
Y444748D01*
X238087D01*
Y444570D01*
X237909D01*
Y444036D01*
X237731D01*
Y443680D01*
X237552D01*
Y442078D01*
X237731D01*
Y441544D01*
X237909D01*
Y441366D01*
X238087D01*
Y441010D01*
X238264D01*
Y440832D01*
X238620D01*
Y440654D01*
X238798D01*
Y440476D01*
X239155D01*
Y440298D01*
X239688D01*
Y440120D01*
X240757D01*
Y439942D01*
X250191D01*
Y437272D01*
X239510D01*
Y437450D01*
X238442D01*
Y437628D01*
X238087D01*
Y437806D01*
X237552D01*
Y437984D01*
X237374D01*
Y438162D01*
X237018D01*
Y438340D01*
X236841D01*
Y438518D01*
X236485D01*
Y438874D01*
X236307D01*
Y439052D01*
X236128D01*
Y439230D01*
X235950D01*
Y439586D01*
X235772D01*
Y439942D01*
X235594D01*
Y440298D01*
X235416D01*
Y441188D01*
X235238D01*
Y442968D01*
X235416D01*
Y443858D01*
X235594D01*
Y444214D01*
X235772D01*
Y444748D01*
X235950D01*
Y444926D01*
X236128D01*
Y445282D01*
X236307D01*
Y445460D01*
X236485D01*
Y445638D01*
X236662D01*
Y445816D01*
X236841D01*
Y445994D01*
X237018D01*
Y446172D01*
X237196D01*
Y446350D01*
X237552D01*
Y446528D01*
X237731D01*
Y446706D01*
X238087D01*
Y447062D01*
X237731D01*
Y447240D01*
X237374D01*
Y447418D01*
X237196D01*
Y447596D01*
X236841D01*
Y447774D01*
X236662D01*
Y447952D01*
X236485D01*
Y448130D01*
X236307D01*
Y448308D01*
X236128D01*
Y448486D01*
X235950D01*
Y448842D01*
X235772D01*
Y449198D01*
X235594D01*
Y449554D01*
X235416D01*
Y450444D01*
X235238D01*
Y452046D01*
X235416D01*
Y452936D01*
X235594D01*
Y453292D01*
X235772D01*
Y453648D01*
X235950D01*
Y454004D01*
X236128D01*
Y454182D01*
X236307D01*
Y454360D01*
X236485D01*
Y454538D01*
X236662D01*
Y454716D01*
X236841D01*
Y454894D01*
X237018D01*
Y455072D01*
X237196D01*
Y455250D01*
X237374D01*
Y455428D01*
X237731D01*
Y455606D01*
X237909D01*
Y455962D01*
X237552D01*
Y455784D01*
X235594D01*
Y458632D01*
X250191D01*
Y455784D01*
D02*
G37*
G36*
X235594Y436026D02*
X235950D01*
Y435848D01*
X236307D01*
Y435670D01*
X236662D01*
Y435492D01*
X237196D01*
Y435314D01*
X237552D01*
Y435136D01*
X238087D01*
Y434958D01*
X238442D01*
Y434780D01*
X238977D01*
Y434602D01*
X239333D01*
Y434424D01*
X239866D01*
Y434246D01*
X240223D01*
Y434068D01*
X240579D01*
Y433890D01*
X241112D01*
Y433712D01*
X241469D01*
Y433534D01*
X242003D01*
Y433356D01*
X242358D01*
Y433178D01*
X242715D01*
Y433000D01*
X243071D01*
Y432822D01*
X243605D01*
Y432644D01*
X243961D01*
Y432466D01*
X244495D01*
Y432288D01*
X244851D01*
Y432110D01*
X245385D01*
Y431932D01*
X245741D01*
Y431754D01*
X246275D01*
Y431576D01*
X246631D01*
Y431398D01*
X247165D01*
Y431220D01*
X247521D01*
Y431042D01*
X247877D01*
Y430864D01*
X248411D01*
Y430686D01*
X248767D01*
Y430508D01*
X249123D01*
Y430330D01*
X249479D01*
Y430152D01*
X250013D01*
Y429974D01*
X250191D01*
Y427304D01*
X249835D01*
Y427126D01*
X249301D01*
Y426948D01*
X248945D01*
Y426770D01*
X248411D01*
Y426592D01*
X248055D01*
Y426414D01*
X247699D01*
Y426236D01*
X247165D01*
Y426058D01*
X246809D01*
Y425880D01*
X246275D01*
Y425702D01*
X245919D01*
Y425524D01*
X245385D01*
Y425346D01*
X245029D01*
Y425168D01*
X244673D01*
Y424990D01*
X244139D01*
Y424812D01*
X243783D01*
Y424634D01*
X243426D01*
Y424456D01*
X242893D01*
Y424278D01*
X242536D01*
Y424100D01*
X242003D01*
Y423922D01*
X241647D01*
Y423744D01*
X241112D01*
Y423566D01*
X240757D01*
Y423388D01*
X240223D01*
Y423210D01*
X239866D01*
Y423032D01*
X239510D01*
Y422854D01*
X238977D01*
Y422676D01*
X238620D01*
Y422498D01*
X238264D01*
Y422320D01*
X237731D01*
Y422142D01*
X237374D01*
Y421964D01*
X237018D01*
Y421786D01*
X236485D01*
Y421608D01*
X236128D01*
Y421430D01*
X235594D01*
Y421252D01*
X235416D01*
Y424278D01*
X235950D01*
Y424456D01*
X236307D01*
Y424634D01*
X236841D01*
Y424812D01*
X237196D01*
Y424990D01*
X237731D01*
Y425168D01*
X238087D01*
Y425346D01*
X238620D01*
Y425524D01*
X239155D01*
Y425702D01*
X239510D01*
Y425880D01*
X240044D01*
Y426058D01*
X240579D01*
Y426236D01*
X240934D01*
Y426414D01*
X241469D01*
Y426592D01*
X241825D01*
Y426770D01*
X242180D01*
Y426948D01*
X242715D01*
Y427126D01*
X243249D01*
Y427304D01*
X243605D01*
Y427482D01*
X244139D01*
Y427660D01*
X244495D01*
Y427838D01*
X245029D01*
Y428016D01*
X245563D01*
Y428194D01*
X245919D01*
Y428372D01*
X246453D01*
Y428550D01*
X246631D01*
Y428906D01*
X246097D01*
Y429084D01*
X245563D01*
Y429262D01*
X245207D01*
Y429440D01*
X244673D01*
Y429618D01*
X244317D01*
Y429796D01*
X243783D01*
Y429974D01*
X243249D01*
Y430152D01*
X242893D01*
Y430330D01*
X242358D01*
Y430508D01*
X242003D01*
Y430686D01*
X241647D01*
Y430864D01*
X241112D01*
Y431042D01*
X240757D01*
Y431220D01*
X240223D01*
Y431398D01*
X239866D01*
Y431576D01*
X239333D01*
Y431754D01*
X238798D01*
Y431932D01*
X238442D01*
Y432110D01*
X238087D01*
Y432288D01*
X237374D01*
Y432466D01*
X237018D01*
Y432644D01*
X236485D01*
Y432822D01*
X236128D01*
Y433000D01*
X235594D01*
Y433178D01*
X235416D01*
Y436204D01*
X235594D01*
Y436026D01*
D02*
G37*
G36*
X251081Y424100D02*
X251615D01*
Y423922D01*
X252149D01*
Y423744D01*
X252327D01*
Y423566D01*
X252505D01*
Y423388D01*
X252683D01*
Y423210D01*
X252861D01*
Y423032D01*
X253039D01*
Y422854D01*
X253217D01*
Y422498D01*
X253395D01*
Y421964D01*
X253573D01*
Y420540D01*
X253395D01*
Y420006D01*
X253217D01*
Y419650D01*
X253039D01*
Y419294D01*
X252861D01*
Y419116D01*
X252683D01*
Y418938D01*
X252505D01*
Y418760D01*
X252149D01*
Y418582D01*
X251971D01*
Y418404D01*
X251437D01*
Y418226D01*
X249657D01*
Y418404D01*
X249123D01*
Y418582D01*
X248945D01*
Y418760D01*
X248589D01*
Y418938D01*
X248055D01*
Y418760D01*
X247521D01*
Y418582D01*
X247165D01*
Y418404D01*
X246631D01*
Y418226D01*
X246275D01*
Y418048D01*
X245741D01*
Y417870D01*
X245385D01*
Y417692D01*
X244851D01*
Y417514D01*
X244495D01*
Y417336D01*
X243961D01*
Y417158D01*
X243426D01*
Y416980D01*
X242893D01*
Y416802D01*
X242536D01*
Y416624D01*
X242003D01*
Y416446D01*
X241647D01*
Y416268D01*
X241112D01*
Y416090D01*
X240757D01*
Y415912D01*
X240223D01*
Y415734D01*
X239866D01*
Y415556D01*
X239333D01*
Y415378D01*
X238798D01*
Y415200D01*
X238264D01*
Y415734D01*
X238087D01*
Y416090D01*
X237909D01*
Y416446D01*
X237731D01*
Y416802D01*
X237552D01*
Y416980D01*
X237374D01*
Y417336D01*
X237552D01*
Y417514D01*
X238087D01*
Y417692D01*
X238442D01*
Y417870D01*
X238977D01*
Y418048D01*
X239333D01*
Y418226D01*
X239866D01*
Y418404D01*
X240223D01*
Y418582D01*
X240579D01*
Y418760D01*
X241112D01*
Y418938D01*
X241469D01*
Y419116D01*
X241825D01*
Y419294D01*
X242358D01*
Y419472D01*
X242715D01*
Y419650D01*
X243071D01*
Y419828D01*
X243605D01*
Y420006D01*
X243961D01*
Y420184D01*
X244495D01*
Y420362D01*
X244851D01*
Y420540D01*
X245385D01*
Y420718D01*
X245741D01*
Y420896D01*
X246275D01*
Y421074D01*
X246631D01*
Y421252D01*
X246987D01*
Y421430D01*
X247343D01*
Y421608D01*
X247521D01*
Y421964D01*
X247699D01*
Y422498D01*
X247877D01*
Y422854D01*
X248055D01*
Y423032D01*
X248233D01*
Y423210D01*
X248411D01*
Y423388D01*
X248589D01*
Y423566D01*
X248767D01*
Y423744D01*
X248945D01*
Y423922D01*
X249479D01*
Y424100D01*
X250013D01*
Y424278D01*
X251081D01*
Y424100D01*
D02*
G37*
G36*
X247165Y415912D02*
X247521D01*
Y415734D01*
X247877D01*
Y415556D01*
X248055D01*
Y415378D01*
X248233D01*
Y415200D01*
X248411D01*
Y415022D01*
X248589D01*
Y414666D01*
X248767D01*
Y413064D01*
X248589D01*
Y412708D01*
X248411D01*
Y412530D01*
X248233D01*
Y412352D01*
X248055D01*
Y412174D01*
X247699D01*
Y411996D01*
X247343D01*
Y411818D01*
X246097D01*
Y411996D01*
X245741D01*
Y412174D01*
X245563D01*
Y412352D01*
X245207D01*
Y412708D01*
X245029D01*
Y412886D01*
X244851D01*
Y413242D01*
X244673D01*
Y413420D01*
X243605D01*
Y413598D01*
X240757D01*
Y414844D01*
X243071D01*
Y414666D01*
X244851D01*
Y415022D01*
X245029D01*
Y415200D01*
X245207D01*
Y415378D01*
X245385D01*
Y415556D01*
X245563D01*
Y415734D01*
X245919D01*
Y415912D01*
X246453D01*
Y416090D01*
X247165D01*
Y415912D01*
D02*
G37*
G36*
X235238D02*
X235416D01*
Y415734D01*
X235772D01*
Y415556D01*
X235950D01*
Y415200D01*
X236128D01*
Y415022D01*
X236307D01*
Y413776D01*
X236128D01*
Y413420D01*
X235950D01*
Y413242D01*
X235772D01*
Y413064D01*
X235594D01*
Y412886D01*
X235238D01*
Y412708D01*
X234170D01*
Y412886D01*
X233636D01*
Y413064D01*
X233458D01*
Y413242D01*
X233280D01*
Y413598D01*
X233102D01*
Y414132D01*
X232924D01*
Y414844D01*
X233102D01*
Y415200D01*
X233280D01*
Y415556D01*
X233458D01*
Y415734D01*
X233814D01*
Y415912D01*
X234170D01*
Y416090D01*
X235238D01*
Y415912D01*
D02*
G37*
G36*
X229720Y416090D02*
X230076D01*
Y415912D01*
X230432D01*
Y415734D01*
X230966D01*
Y415556D01*
X231144D01*
Y415022D01*
X230966D01*
Y413598D01*
X231144D01*
Y412886D01*
X231322D01*
Y412708D01*
X231500D01*
Y412352D01*
X231678D01*
Y412174D01*
X231856D01*
Y411996D01*
X232034D01*
Y411818D01*
X232212D01*
Y411640D01*
X232390D01*
Y411462D01*
X232568D01*
Y411284D01*
X232746D01*
Y411106D01*
X232568D01*
Y410750D01*
X232390D01*
Y410394D01*
X232212D01*
Y409860D01*
X232034D01*
Y409682D01*
X231856D01*
Y409326D01*
X231678D01*
Y409504D01*
X231322D01*
Y409682D01*
X230966D01*
Y409860D01*
X230788D01*
Y410038D01*
X230610D01*
Y410216D01*
X230432D01*
Y410394D01*
X230254D01*
Y410572D01*
X230076D01*
Y410750D01*
X229898D01*
Y410928D01*
X229720D01*
Y411284D01*
X229542D01*
Y411462D01*
X229364D01*
Y411996D01*
X229186D01*
Y412352D01*
X229008D01*
Y412886D01*
X228830D01*
Y415378D01*
X229008D01*
Y416090D01*
X229186D01*
Y416268D01*
X229720D01*
Y416090D01*
D02*
G37*
G36*
X225448Y418048D02*
X225982D01*
Y417870D01*
X226160D01*
Y417692D01*
X226694D01*
Y417514D01*
X227050D01*
Y416802D01*
X226872D01*
Y416446D01*
X226694D01*
Y415556D01*
X226516D01*
Y412708D01*
X226694D01*
Y411996D01*
X226872D01*
Y411462D01*
X227050D01*
Y411106D01*
X227228D01*
Y410750D01*
X227406D01*
Y410394D01*
X227584D01*
Y410038D01*
X227762D01*
Y409682D01*
X227940D01*
Y409504D01*
X228118D01*
Y409326D01*
X228296D01*
Y409148D01*
X228474D01*
Y408970D01*
X228652D01*
Y408614D01*
X229008D01*
Y408436D01*
X229186D01*
Y408258D01*
X229364D01*
Y408080D01*
X229542D01*
Y407902D01*
X229898D01*
Y407724D01*
X230076D01*
Y407546D01*
X230432D01*
Y407368D01*
X230610D01*
Y407190D01*
X230788D01*
Y406834D01*
X230610D01*
Y406656D01*
X230432D01*
Y406121D01*
X230254D01*
Y405765D01*
X230076D01*
Y405409D01*
X229898D01*
Y405232D01*
X229542D01*
Y405409D01*
X229364D01*
Y405587D01*
X229008D01*
Y405765D01*
X228652D01*
Y405943D01*
X228474D01*
Y406121D01*
X228118D01*
Y406299D01*
X227940D01*
Y406477D01*
X227762D01*
Y406656D01*
X227584D01*
Y406834D01*
X227406D01*
Y407012D01*
X227228D01*
Y407190D01*
X227050D01*
Y407368D01*
X226872D01*
Y407546D01*
X226694D01*
Y407724D01*
X226516D01*
Y407902D01*
X226338D01*
Y408258D01*
X226160D01*
Y408436D01*
X225982D01*
Y408614D01*
X225804D01*
Y408970D01*
X225626D01*
Y409326D01*
X225448D01*
Y409504D01*
X225270D01*
Y409860D01*
X225092D01*
Y410394D01*
X224914D01*
Y410750D01*
X224736D01*
Y411284D01*
X224558D01*
Y412174D01*
X224380D01*
Y413242D01*
X224202D01*
Y415200D01*
X224380D01*
Y416268D01*
X224558D01*
Y416980D01*
X224736D01*
Y417514D01*
X224914D01*
Y418048D01*
X225092D01*
Y418226D01*
X225448D01*
Y418048D01*
D02*
G37*
G36*
X238977Y413598D02*
X239155D01*
Y413420D01*
X239688D01*
Y413242D01*
X240044D01*
Y413064D01*
X240401D01*
Y412886D01*
X240757D01*
Y412708D01*
X241112D01*
Y412530D01*
X241469D01*
Y412352D01*
X241825D01*
Y412174D01*
X242180D01*
Y411996D01*
X242536D01*
Y411818D01*
X242893D01*
Y411640D01*
X243249D01*
Y411462D01*
X243605D01*
Y411284D01*
X243961D01*
Y411106D01*
X244317D01*
Y410928D01*
X244673D01*
Y410750D01*
X245207D01*
Y410572D01*
X245385D01*
Y410394D01*
X245919D01*
Y410216D01*
X246097D01*
Y410038D01*
X246631D01*
Y409860D01*
X246987D01*
Y409682D01*
X247343D01*
Y409504D01*
X247699D01*
Y409326D01*
X248055D01*
Y409148D01*
X248411D01*
Y408970D01*
X248767D01*
Y408792D01*
X249123D01*
Y408614D01*
X249657D01*
Y408436D01*
X249835D01*
Y408258D01*
X250369D01*
Y408080D01*
X250725D01*
Y407902D01*
X251081D01*
Y407724D01*
X251437D01*
Y407546D01*
X251793D01*
Y407368D01*
X251971D01*
Y407190D01*
X251793D01*
Y407012D01*
X251615D01*
Y406834D01*
X251437D01*
Y406477D01*
X251259D01*
Y406299D01*
X251081D01*
Y405943D01*
X250903D01*
Y405587D01*
X250725D01*
Y404876D01*
X250369D01*
Y405054D01*
X250013D01*
Y405232D01*
X249657D01*
Y405409D01*
X249301D01*
Y405587D01*
X248945D01*
Y405765D01*
X248589D01*
Y405943D01*
X248233D01*
Y406121D01*
X247877D01*
Y406299D01*
X247699D01*
Y406477D01*
X247165D01*
Y406656D01*
X246987D01*
Y406834D01*
X246453D01*
Y407012D01*
X246275D01*
Y407190D01*
X245919D01*
Y407368D01*
X245563D01*
Y407546D01*
X245207D01*
Y407724D01*
X244851D01*
Y407902D01*
X244495D01*
Y408080D01*
X244139D01*
Y408258D01*
X243783D01*
Y408436D01*
X243426D01*
Y408614D01*
X243071D01*
Y408792D01*
X242715D01*
Y408970D01*
X242358D01*
Y409148D01*
X242003D01*
Y409326D01*
X241647D01*
Y409504D01*
X241290D01*
Y409682D01*
X240934D01*
Y409860D01*
X240579D01*
Y410038D01*
X240223D01*
Y410216D01*
X239866D01*
Y410394D01*
X239510D01*
Y410572D01*
X239155D01*
Y410750D01*
X238798D01*
Y410928D01*
X238442D01*
Y411106D01*
X238087D01*
Y411284D01*
X237731D01*
Y411462D01*
X237374D01*
Y411640D01*
X237552D01*
Y411996D01*
X237731D01*
Y412174D01*
X237909D01*
Y412530D01*
X238087D01*
Y413064D01*
X238264D01*
Y413420D01*
X238442D01*
Y413776D01*
X238977D01*
Y413598D01*
D02*
G37*
G36*
X254819Y407902D02*
X255531D01*
Y407724D01*
X255887D01*
Y407546D01*
X256243D01*
Y407368D01*
X256421D01*
Y407190D01*
X256599D01*
Y407012D01*
X256777D01*
Y406834D01*
X256955D01*
Y406656D01*
X257133D01*
Y406477D01*
X257311D01*
Y406121D01*
X257489D01*
Y405765D01*
X257667D01*
Y403095D01*
X257489D01*
Y402739D01*
X257311D01*
Y402384D01*
X257133D01*
Y402206D01*
X256955D01*
Y402028D01*
X256777D01*
Y401850D01*
X256599D01*
Y401672D01*
X256421D01*
Y401494D01*
X256243D01*
Y401315D01*
X255887D01*
Y401137D01*
X255531D01*
Y400959D01*
X252861D01*
Y401137D01*
X252505D01*
Y401315D01*
X252149D01*
Y401494D01*
X251971D01*
Y401672D01*
X251793D01*
Y401850D01*
X251615D01*
Y402028D01*
X251437D01*
Y402206D01*
X251259D01*
Y402384D01*
X251081D01*
Y402739D01*
X250903D01*
Y403095D01*
X250725D01*
Y403807D01*
X250547D01*
Y404698D01*
X250725D01*
Y404520D01*
X250903D01*
Y404876D01*
X251081D01*
Y405587D01*
X251259D01*
Y405943D01*
X251437D01*
Y406299D01*
X251615D01*
Y406477D01*
X251793D01*
Y406656D01*
X251971D01*
Y407012D01*
X252149D01*
Y407190D01*
X252327D01*
Y407724D01*
X252861D01*
Y407902D01*
X253751D01*
Y408080D01*
X254819D01*
Y407902D01*
D02*
G37*
G36*
X221354Y420006D02*
X221710D01*
Y419828D01*
X222066D01*
Y419650D01*
X222422D01*
Y419472D01*
X222778D01*
Y419294D01*
X222956D01*
Y418760D01*
X222778D01*
Y418404D01*
X222600D01*
Y417870D01*
X222422D01*
Y417158D01*
X222244D01*
Y416624D01*
X222066D01*
Y415022D01*
X221888D01*
Y413420D01*
X222066D01*
Y411818D01*
X222244D01*
Y411106D01*
X222422D01*
Y410394D01*
X222600D01*
Y410038D01*
X222778D01*
Y409326D01*
X222956D01*
Y408970D01*
X223134D01*
Y408614D01*
X223312D01*
Y408436D01*
X223490D01*
Y407902D01*
X223668D01*
Y407724D01*
X223846D01*
Y407368D01*
X224024D01*
Y407190D01*
X224202D01*
Y407012D01*
X224380D01*
Y406656D01*
X224558D01*
Y406477D01*
X224736D01*
Y406299D01*
X224914D01*
Y405943D01*
X225092D01*
Y405765D01*
X225270D01*
Y405587D01*
X225448D01*
Y405409D01*
X225626D01*
Y405232D01*
X225982D01*
Y405054D01*
X226160D01*
Y404876D01*
X226338D01*
Y404698D01*
X226516D01*
Y404520D01*
X226872D01*
Y404342D01*
X227050D01*
Y404164D01*
X227228D01*
Y403986D01*
X227584D01*
Y403807D01*
X227762D01*
Y403629D01*
X228118D01*
Y403451D01*
X228474D01*
Y403273D01*
X228830D01*
Y402739D01*
X228652D01*
Y402384D01*
X228474D01*
Y402028D01*
X228296D01*
Y401672D01*
X228118D01*
Y401315D01*
X227940D01*
Y401137D01*
X227584D01*
Y401315D01*
X227228D01*
Y401494D01*
X227050D01*
Y401672D01*
X226694D01*
Y401850D01*
X226516D01*
Y402028D01*
X226160D01*
Y402206D01*
X225982D01*
Y402384D01*
X225626D01*
Y402562D01*
X225448D01*
Y402739D01*
X225092D01*
Y402917D01*
X224914D01*
Y403095D01*
X224736D01*
Y403273D01*
X224558D01*
Y403451D01*
X224380D01*
Y403629D01*
X224202D01*
Y403807D01*
X224024D01*
Y403986D01*
X223846D01*
Y404164D01*
X223668D01*
Y404342D01*
X223490D01*
Y404520D01*
X223312D01*
Y404698D01*
X223134D01*
Y404876D01*
X222956D01*
Y405232D01*
X222778D01*
Y405409D01*
X222600D01*
Y405587D01*
X222422D01*
Y405765D01*
X222244D01*
Y406121D01*
X222066D01*
Y406299D01*
X221888D01*
Y406656D01*
X221710D01*
Y407012D01*
X221532D01*
Y407190D01*
X221354D01*
Y407546D01*
X221176D01*
Y408080D01*
X220998D01*
Y408436D01*
X220820D01*
Y408792D01*
X220642D01*
Y409148D01*
X220464D01*
Y409860D01*
X220286D01*
Y410394D01*
X220108D01*
Y411284D01*
X219930D01*
Y412352D01*
X219752D01*
Y416090D01*
X219930D01*
Y416980D01*
X220108D01*
Y417870D01*
X220286D01*
Y418404D01*
X220464D01*
Y418938D01*
X220642D01*
Y419472D01*
X220820D01*
Y420006D01*
X220998D01*
Y420184D01*
X221354D01*
Y420006D01*
D02*
G37*
%LPC*%
G36*
X250725Y421964D02*
X250191D01*
Y421786D01*
X250013D01*
Y421608D01*
X249835D01*
Y420718D01*
X250013D01*
Y420540D01*
X250903D01*
Y420718D01*
X251081D01*
Y420896D01*
X251259D01*
Y421430D01*
X251081D01*
Y421608D01*
X250903D01*
Y421786D01*
X250725D01*
Y421964D01*
D02*
G37*
G36*
X247877Y421608D02*
X247699D01*
Y421430D01*
X247521D01*
Y420540D01*
X247699D01*
Y420006D01*
X247877D01*
Y419650D01*
X248055D01*
Y419294D01*
X248233D01*
Y419116D01*
X248589D01*
Y418938D01*
X248767D01*
Y419116D01*
X248589D01*
Y419294D01*
X248411D01*
Y419650D01*
X248233D01*
Y420006D01*
X248055D01*
Y420540D01*
X247877D01*
Y421608D01*
D02*
G37*
G36*
X254641Y405765D02*
X253573D01*
Y405587D01*
X253217D01*
Y405232D01*
X253039D01*
Y405054D01*
X252861D01*
Y404520D01*
X252683D01*
Y404164D01*
X252861D01*
Y403807D01*
X253039D01*
Y403451D01*
X253217D01*
Y403273D01*
X253573D01*
Y403095D01*
X254641D01*
Y403273D01*
X254997D01*
Y403451D01*
X255175D01*
Y403629D01*
X255353D01*
Y404164D01*
X255531D01*
Y404698D01*
X255353D01*
Y405232D01*
X255175D01*
Y405409D01*
X254997D01*
Y405587D01*
X254641D01*
Y405765D01*
D02*
G37*
%LPD*%
D10*
X264457Y383543D02*
X263669D01*
X264457D01*
X225551Y288193D02*
X224764D01*
X225551D01*
X226551Y240693D02*
X225764D01*
X226551D01*
X223394Y331193D02*
X222606D01*
X223394D01*
X218744Y406000D02*
X217957D01*
X218744D01*
X222807Y468787D02*
X222020D01*
X222807D01*
X225394Y376106D02*
X224606D01*
X225394D01*
X262500Y319158D02*
Y339158D01*
X252500Y319158D02*
X262500D01*
X252500D02*
Y339158D01*
X262500D01*
X191713Y291122D02*
X193287D01*
X191713Y293878D02*
X193287D01*
X191713Y279878D02*
X193287D01*
X191713Y277122D02*
X193287D01*
X192213Y247622D02*
X193787D01*
X192213Y250378D02*
X193787D01*
X192370Y233378D02*
X193945D01*
X192370Y230622D02*
X193945D01*
X223713Y293622D02*
X225287D01*
X223713Y296378D02*
X225287D01*
X226665Y378622D02*
X228240D01*
X226665Y381378D02*
X228240D01*
X224213Y244622D02*
X225787D01*
X224213Y247378D02*
X225787D01*
X223260Y335035D02*
X224835D01*
X223260Y337791D02*
X224835D01*
X193713Y427779D02*
X195287D01*
X193713Y430535D02*
X195287D01*
X193760Y424287D02*
X195335D01*
X193760Y421531D02*
X195335D01*
X224713Y424122D02*
X226287D01*
X224713Y426878D02*
X226287D01*
X222713Y474378D02*
X224287D01*
X222713Y471622D02*
X224287D01*
X193055Y462012D02*
X194630D01*
X193055Y459256D02*
X194630D01*
X192713Y473303D02*
X194287D01*
X192713Y476059D02*
X194287D01*
X192008Y330622D02*
X193583D01*
X192008Y333378D02*
X193583D01*
X191969Y339878D02*
X193543D01*
X191969Y337122D02*
X193543D01*
X193917Y375622D02*
X195492D01*
X193917Y378378D02*
X195492D01*
X193921Y385177D02*
X195496D01*
X193921Y382421D02*
X195496D01*
D11*
X261209Y354410D02*
Y357756D01*
X257567Y354410D02*
X261209D01*
Y382559D02*
Y385906D01*
X257567D02*
X261209D01*
X249791Y358937D02*
Y381378D01*
X223130Y279020D02*
Y283980D01*
X227185Y279020D02*
Y283980D01*
X224130Y231520D02*
Y236480D01*
X228185Y231520D02*
Y236480D01*
X220972Y322020D02*
Y326980D01*
X225028Y322020D02*
Y326980D01*
X209177Y408028D02*
X214138D01*
X209177Y403972D02*
X214138D01*
X220386Y459614D02*
Y464575D01*
X224441Y459614D02*
Y464575D01*
X222972Y366933D02*
Y371894D01*
X227028Y366933D02*
Y371894D01*
X229400Y250900D02*
Y253899D01*
X227901D01*
X227401Y253399D01*
Y252399D01*
X227901Y251900D01*
X229400D01*
X228400D02*
X227401Y250900D01*
X226401Y253399D02*
X225901Y253899D01*
X224902D01*
X224402Y253399D01*
Y252899D01*
X224902Y252399D01*
X225401D01*
X224902D01*
X224402Y251900D01*
Y251400D01*
X224902Y250900D01*
X225901D01*
X226401Y251400D01*
X223402Y253399D02*
X222902Y253899D01*
X221902D01*
X221403Y253399D01*
Y251400D01*
X221902Y250900D01*
X222902D01*
X223402Y251400D01*
Y253399D01*
X208100Y230400D02*
Y233399D01*
X206600D01*
X206101Y232899D01*
Y231899D01*
X206600Y231400D01*
X208100D01*
X207100D02*
X206101Y230400D01*
X203102D02*
X205101D01*
X203102Y232399D01*
Y232899D01*
X203601Y233399D01*
X204601D01*
X205101Y232899D01*
X202102Y230900D02*
X201602Y230400D01*
X200602D01*
X200103Y230900D01*
Y232899D01*
X200602Y233399D01*
X201602D01*
X202102Y232899D01*
Y232399D01*
X201602Y231899D01*
X200103D01*
X207900Y247900D02*
Y250899D01*
X206400D01*
X205901Y250399D01*
Y249399D01*
X206400Y248900D01*
X207900D01*
X206900D02*
X205901Y247900D01*
X202902D02*
X204901D01*
X202902Y249899D01*
Y250399D01*
X203401Y250899D01*
X204401D01*
X204901Y250399D01*
X201902D02*
X201402Y250899D01*
X200402D01*
X199903Y250399D01*
Y249899D01*
X200402Y249399D01*
X199903Y248900D01*
Y248400D01*
X200402Y247900D01*
X201402D01*
X201902Y248400D01*
Y248900D01*
X201402Y249399D01*
X201902Y249899D01*
Y250399D01*
X201402Y249399D02*
X200402D01*
X228900Y299900D02*
Y302899D01*
X227400D01*
X226901Y302399D01*
Y301399D01*
X227400Y300900D01*
X228900D01*
X227900D02*
X226901Y299900D01*
X223902D02*
X225901D01*
X223902Y301899D01*
Y302399D01*
X224401Y302899D01*
X225401D01*
X225901Y302399D01*
X220903Y302899D02*
X222902D01*
Y301399D01*
X221902Y301899D01*
X221402D01*
X220903Y301399D01*
Y300400D01*
X221402Y299900D01*
X222402D01*
X222902Y300400D01*
X206900Y276900D02*
Y279899D01*
X205400D01*
X204901Y279399D01*
Y278399D01*
X205400Y277900D01*
X206900D01*
X205900D02*
X204901Y276900D01*
X201902D02*
X203901D01*
X201902Y278899D01*
Y279399D01*
X202401Y279899D01*
X203401D01*
X203901Y279399D01*
X199402Y276900D02*
Y279899D01*
X200902Y278399D01*
X198903D01*
X207900Y290900D02*
Y293899D01*
X206400D01*
X205901Y293399D01*
Y292400D01*
X206400Y291900D01*
X207900D01*
X206900D02*
X205901Y290900D01*
X202902D02*
X204901D01*
X202902Y292899D01*
Y293399D01*
X203401Y293899D01*
X204401D01*
X204901Y293399D01*
X201902D02*
X201402Y293899D01*
X200402D01*
X199903Y293399D01*
Y292899D01*
X200402Y292400D01*
X200902D01*
X200402D01*
X199903Y291900D01*
Y291400D01*
X200402Y290900D01*
X201402D01*
X201902Y291400D01*
X258900Y314243D02*
Y317242D01*
X257400D01*
X256901Y316742D01*
Y315742D01*
X257400Y315242D01*
X258900D01*
X255901Y314243D02*
X254901D01*
X255401D01*
Y317242D01*
X255901Y316742D01*
X222300Y237557D02*
Y234558D01*
X220800D01*
X220301Y235057D01*
Y237057D01*
X220800Y237557D01*
X222300D01*
X217302D02*
X218301Y237057D01*
X219301Y236057D01*
Y235057D01*
X218801Y234558D01*
X217801D01*
X217302Y235057D01*
Y235557D01*
X217801Y236057D01*
X219301D01*
X221800Y283657D02*
Y280658D01*
X220301D01*
X219801Y281157D01*
Y283157D01*
X220301Y283657D01*
X221800D01*
X216802D02*
X218801D01*
Y282157D01*
X217801Y282657D01*
X217302D01*
X216802Y282157D01*
Y281157D01*
X217302Y280658D01*
X218301D01*
X218801Y281157D01*
X267901Y336100D02*
X268401Y336600D01*
X269400D01*
X269900Y336100D01*
Y334101D01*
X269400Y333601D01*
X268401D01*
X267901Y334101D01*
X266901Y336600D02*
X264902D01*
Y336100D01*
X266901Y334101D01*
Y333601D01*
X202401Y240899D02*
X202901Y241399D01*
X203900D01*
X204400Y240899D01*
Y238900D01*
X203900Y238400D01*
X202901D01*
X202401Y238900D01*
X199402Y241399D02*
X200401Y240899D01*
X201401Y239899D01*
Y238900D01*
X200901Y238400D01*
X199901D01*
X199402Y238900D01*
Y239400D01*
X199901Y239899D01*
X201401D01*
X201901Y286899D02*
X202400Y287399D01*
X203400D01*
X203900Y286899D01*
Y284900D01*
X203400Y284400D01*
X202400D01*
X201901Y284900D01*
X198902Y287399D02*
X200901D01*
Y285899D01*
X199901Y286399D01*
X199401D01*
X198902Y285899D01*
Y284900D01*
X199401Y284400D01*
X200401D01*
X200901Y284900D01*
X198895Y333100D02*
Y330101D01*
X200395D01*
X200895Y330601D01*
Y331600D01*
X200395Y332100D01*
X198895D01*
X199895D02*
X200895Y333100D01*
X203894D02*
X201894D01*
X203894Y331101D01*
Y330601D01*
X203394Y330101D01*
X202394D01*
X201894Y330601D01*
X204893D02*
X205393Y330101D01*
X206393D01*
X206893Y330601D01*
Y332600D01*
X206393Y333100D01*
X205393D01*
X204893Y332600D01*
Y330601D01*
X207900Y338156D02*
Y341155D01*
X206400D01*
X205901Y340655D01*
Y339655D01*
X206400Y339156D01*
X207900D01*
X206900D02*
X205901Y338156D01*
X204901D02*
X203901D01*
X204401D01*
Y341155D01*
X204901Y340655D01*
X202402Y338656D02*
X201902Y338156D01*
X200902D01*
X200402Y338656D01*
Y340655D01*
X200902Y341155D01*
X201902D01*
X202402Y340655D01*
Y340155D01*
X201902Y339655D01*
X200402D01*
X226900Y340400D02*
Y343399D01*
X225400D01*
X224901Y342899D01*
Y341899D01*
X225400Y341400D01*
X226900D01*
X225900D02*
X224901Y340400D01*
X223901D02*
X222901D01*
X223401D01*
Y343399D01*
X223901Y342899D01*
X219402Y343399D02*
X220402Y342899D01*
X221402Y341899D01*
Y340900D01*
X220902Y340400D01*
X219902D01*
X219402Y340900D01*
Y341400D01*
X219902Y341899D01*
X221402D01*
X209057Y427400D02*
Y430399D01*
X207558D01*
X207058Y429899D01*
Y428899D01*
X207558Y428400D01*
X209057D01*
X208058D02*
X207058Y427400D01*
X206058D02*
X205059D01*
X205559D01*
Y430399D01*
X206058Y429899D01*
X203559D02*
X203059Y430399D01*
X202060D01*
X201560Y429899D01*
Y429399D01*
X202060Y428899D01*
X202560D01*
X202060D01*
X201560Y428400D01*
Y427900D01*
X202060Y427400D01*
X203059D01*
X203559Y427900D01*
X208819Y421258D02*
Y424257D01*
X207319D01*
X206820Y423758D01*
Y422758D01*
X207319Y422258D01*
X208819D01*
X207819D02*
X206820Y421258D01*
X205820D02*
X204820D01*
X205320D01*
Y424257D01*
X205820Y423758D01*
X201321Y421258D02*
X203321D01*
X201321Y423258D01*
Y423758D01*
X201821Y424257D01*
X202821D01*
X203321Y423758D01*
X208105Y375463D02*
Y378462D01*
X206605D01*
X206105Y377962D01*
Y376962D01*
X206605Y376463D01*
X208105D01*
X207105D02*
X206105Y375463D01*
X205106D02*
X204106D01*
X204606D01*
Y378462D01*
X205106Y377962D01*
X202607Y375463D02*
X201607D01*
X202107D01*
Y378462D01*
X202607Y377962D01*
X208609Y382199D02*
Y385198D01*
X207109D01*
X206609Y384698D01*
Y383699D01*
X207109Y383199D01*
X208609D01*
X207609D02*
X206609Y382199D01*
X205610D02*
X204610D01*
X205110D01*
Y385198D01*
X205610Y384698D01*
X203110D02*
X202611Y385198D01*
X201611D01*
X201111Y384698D01*
Y382699D01*
X201611Y382199D01*
X202611D01*
X203110Y382699D01*
Y384698D01*
X233947Y373400D02*
Y376399D01*
X232448D01*
X231948Y375899D01*
Y374900D01*
X232448Y374400D01*
X233947D01*
X232948D02*
X231948Y373400D01*
X230948Y373900D02*
X230448Y373400D01*
X229449D01*
X228949Y373900D01*
Y375899D01*
X229449Y376399D01*
X230448D01*
X230948Y375899D01*
Y375399D01*
X230448Y374900D01*
X228949D01*
X227450Y428803D02*
Y431802D01*
X225951D01*
X225451Y431302D01*
Y430302D01*
X225951Y429803D01*
X227450D01*
X226450D02*
X225451Y428803D01*
X224451Y431302D02*
X223951Y431802D01*
X222952D01*
X222452Y431302D01*
Y430802D01*
X222952Y430302D01*
X222452Y429803D01*
Y429303D01*
X222952Y428803D01*
X223951D01*
X224451Y429303D01*
Y429803D01*
X223951Y430302D01*
X224451Y430802D01*
Y431302D01*
X223951Y430302D02*
X222952D01*
X226000Y317799D02*
Y314800D01*
X224500D01*
X224001Y315300D01*
Y317299D01*
X224500Y317799D01*
X226000D01*
X221501Y314800D02*
Y317799D01*
X223001Y316300D01*
X221002D01*
X234044Y368656D02*
Y365657D01*
X232545D01*
X232045Y366157D01*
Y368157D01*
X232545Y368656D01*
X234044D01*
X231045Y368157D02*
X230545Y368656D01*
X229546D01*
X229046Y368157D01*
Y367657D01*
X229546Y367157D01*
X230045D01*
X229546D01*
X229046Y366657D01*
Y366157D01*
X229546Y365657D01*
X230545D01*
X231045Y366157D01*
X214500Y401957D02*
Y398957D01*
X213000D01*
X212501Y399457D01*
Y401457D01*
X213000Y401957D01*
X214500D01*
X209502Y398957D02*
X211501D01*
X209502Y400957D01*
Y401457D01*
X210001Y401957D01*
X211001D01*
X211501Y401457D01*
X202046Y324903D02*
X202546Y325403D01*
X203546D01*
X204046Y324903D01*
Y322904D01*
X203546Y322404D01*
X202546D01*
X202046Y322904D01*
X199547Y322404D02*
Y325403D01*
X201047Y323903D01*
X199047D01*
X204401Y416257D02*
X204901Y416756D01*
X205900D01*
X206400Y416257D01*
Y414257D01*
X205900Y413758D01*
X204901D01*
X204401Y414257D01*
X201402Y413758D02*
X203401D01*
X201402Y415757D01*
Y416257D01*
X201901Y416756D01*
X202901D01*
X203401Y416257D01*
X204133Y370657D02*
X204633Y371157D01*
X205632D01*
X206132Y370657D01*
Y368657D01*
X205632Y368158D01*
X204633D01*
X204133Y368657D01*
X203133Y368158D02*
X202133D01*
X202633D01*
Y371157D01*
X203133Y370657D01*
X207700Y472900D02*
Y475899D01*
X206201D01*
X205701Y475399D01*
Y474400D01*
X206201Y473900D01*
X207700D01*
X206700D02*
X205701Y472900D01*
X204701D02*
X203701D01*
X204201D01*
Y475899D01*
X204701Y475399D01*
X200202Y475899D02*
X202202D01*
Y474400D01*
X201202Y474899D01*
X200702D01*
X200202Y474400D01*
Y473400D01*
X200702Y472900D01*
X201702D01*
X202202Y473400D01*
X205685Y454095D02*
Y457094D01*
X204186D01*
X203686Y456595D01*
Y455595D01*
X204186Y455095D01*
X205685D01*
X204685D02*
X203686Y454095D01*
X202686D02*
X201686D01*
X202186D01*
Y457094D01*
X202686Y456595D01*
X198687Y454095D02*
Y457094D01*
X200187Y455595D01*
X198187D01*
X225900Y476400D02*
Y479399D01*
X224400D01*
X223901Y478899D01*
Y477900D01*
X224400Y477400D01*
X225900D01*
X224900D02*
X223901Y476400D01*
X222901Y479399D02*
X220902D01*
Y478899D01*
X222901Y476900D01*
Y476400D01*
X244101Y389557D02*
X245100D01*
X244601D01*
Y387057D01*
X245100Y386558D01*
X245600D01*
X246100Y387057D01*
X241601Y386558D02*
Y389557D01*
X243101Y388057D01*
X241102D01*
X219357Y456199D02*
Y453200D01*
X217858D01*
X217358Y453700D01*
Y455699D01*
X217858Y456199D01*
X219357D01*
X216358Y453200D02*
X215359D01*
X215859D01*
Y456199D01*
X216358Y455699D01*
X203501Y467899D02*
X204000Y468399D01*
X205000D01*
X205500Y467899D01*
Y465900D01*
X205000Y465400D01*
X204000D01*
X203501Y465900D01*
X202501Y467899D02*
X202001Y468399D01*
X201001D01*
X200502Y467899D01*
Y467399D01*
X201001Y466899D01*
X201501D01*
X201001D01*
X200502Y466400D01*
Y465900D01*
X201001Y465400D01*
X202001D01*
X202501Y465900D01*
D12*
X136000Y222100D02*
Y261600D01*
X136500Y221600D02*
X165000D01*
X166000Y222600D01*
Y261600D01*
X136000D02*
X166000D01*
X136000Y268100D02*
Y307600D01*
X136500Y267600D02*
X165000D01*
X166000Y268600D01*
Y307600D01*
X136000D02*
X166000D01*
X136000Y315100D02*
Y354600D01*
X136500Y314600D02*
X165000D01*
X166000Y315600D01*
Y354600D01*
X136000D02*
X166000D01*
X136000Y360000D02*
Y399500D01*
X136500Y359500D02*
X165000D01*
X166000Y360500D01*
Y399500D01*
X136000D02*
X166000D01*
X136000Y405400D02*
Y444900D01*
X136500Y404900D02*
X165000D01*
X166000Y405900D01*
Y444900D01*
X136000D02*
X166000D01*
X136000Y490500D02*
X166000D01*
Y451500D02*
Y490500D01*
X165000Y450500D02*
X166000Y451500D01*
X136500Y450500D02*
X165000D01*
X136000Y451000D02*
X136500Y450500D01*
X136000Y451000D02*
Y490500D01*
D13*
X132000Y480184D02*
X129334D01*
X130667Y481517D02*
Y478852D01*
X131684Y467999D02*
X132184Y467499D01*
Y466500D01*
X131684Y466000D01*
X129685D01*
X129185Y466500D01*
Y467499D01*
X129685Y467999D01*
X132184Y468999D02*
Y470998D01*
Y469999D01*
X129185D01*
Y471998D02*
Y472998D01*
Y472498D01*
X132184D01*
X131684Y471998D01*
X130499Y458000D02*
Y460666D01*
X132684Y421499D02*
X133184Y420999D01*
Y420000D01*
X132684Y419500D01*
X130685D01*
X130185Y420000D01*
Y420999D01*
X130685Y421499D01*
X133184Y422499D02*
Y424498D01*
Y423499D01*
X130185D01*
Y427497D02*
Y425498D01*
X132184Y427497D01*
X132684D01*
X133184Y426998D01*
Y425998D01*
X132684Y425498D01*
X132500Y434684D02*
X129834D01*
X131167Y436017D02*
Y433352D01*
X130999Y411085D02*
Y413751D01*
X132500Y390499D02*
X129834D01*
X131167Y391832D02*
Y389166D01*
X132184Y378318D02*
X132684Y377818D01*
Y376819D01*
X132184Y376319D01*
X130185D01*
X129685Y376819D01*
Y377818D01*
X130185Y378318D01*
X132684Y379318D02*
Y381317D01*
Y380318D01*
X129685D01*
X132184Y382317D02*
X132684Y382817D01*
Y383817D01*
X132184Y384316D01*
X131684D01*
X131185Y383817D01*
Y383317D01*
Y383817D01*
X130685Y384316D01*
X130185D01*
X129685Y383817D01*
Y382817D01*
X130185Y382317D01*
X131499Y368819D02*
Y371485D01*
X133184Y331976D02*
X133684Y331476D01*
Y330476D01*
X133184Y329976D01*
X131185D01*
X130685Y330476D01*
Y331476D01*
X131185Y331976D01*
X133684Y332975D02*
Y334975D01*
Y333975D01*
X130685D01*
Y337474D02*
X133684D01*
X132185Y335974D01*
Y337974D01*
X133500Y344503D02*
X130834D01*
X132167Y345836D02*
Y343170D01*
X131999Y323134D02*
Y325800D01*
X131184Y284818D02*
X131684Y284318D01*
Y283319D01*
X131184Y282819D01*
X129185D01*
X128685Y283319D01*
Y284318D01*
X129185Y284818D01*
X131684Y285818D02*
Y287817D01*
Y286818D01*
X128685D01*
X131684Y290816D02*
Y288817D01*
X130185D01*
X130684Y289817D01*
Y290317D01*
X130185Y290816D01*
X129185D01*
X128685Y290317D01*
Y289317D01*
X129185Y288817D01*
X132000Y298003D02*
X129334D01*
X130667Y299336D02*
Y296670D01*
X130499Y274976D02*
Y277642D01*
X131184Y240318D02*
X131684Y239818D01*
Y238819D01*
X131184Y238319D01*
X129185D01*
X128685Y238819D01*
Y239818D01*
X129185Y240318D01*
X131684Y241318D02*
Y243317D01*
Y242318D01*
X128685D01*
X131684Y246316D02*
X131184Y245317D01*
X130185Y244317D01*
X129185D01*
X128685Y244817D01*
Y245816D01*
X129185Y246316D01*
X129685D01*
X130185Y245816D01*
Y244317D01*
X132000Y251503D02*
X129334D01*
X130667Y252836D02*
Y250170D01*
X130499Y230476D02*
Y233142D01*
D44*
X249885Y288500D02*
X256970Y285801D01*
X249885Y283102D02*
X256970Y285801D01*
X251235Y282191D02*
X250897Y281516D01*
X249885Y280504D01*
X256970D01*
D45*
X119747Y390000D02*
X124470Y388650D01*
X119747Y387301D02*
X124470Y388650D01*
X119747Y387301D02*
X124470Y385951D01*
X119747Y384602D02*
X124470Y385951D01*
X119747Y382949D02*
X124470Y381599D01*
X119747Y380250D02*
X124470Y381599D01*
X119747Y380250D02*
X124470Y378900D01*
X119747Y377551D02*
X124470Y378900D01*
X119747Y375897D02*
X124470Y374548D01*
X119747Y373198D02*
X124470Y374548D01*
X119747Y373198D02*
X124470Y371849D01*
X119747Y370499D02*
X124470Y371849D01*
X123795Y368509D02*
X124133Y368846D01*
X124470Y368509D01*
X124133Y368171D01*
X123795Y368509D01*
X117385Y366619D02*
X124470D01*
X119747Y363245D02*
X123121Y366619D01*
X121771Y365270D02*
X124470Y362908D01*
X119747Y361795D02*
X123121D01*
X124133Y361457D01*
X124470Y360782D01*
Y359770D01*
X124133Y359096D01*
X123121Y358083D01*
X119747D02*
X124470D01*
X119747Y356228D02*
X124470D01*
X121096D02*
X120084Y355216D01*
X119747Y354541D01*
Y353529D01*
X120084Y352854D01*
X121096Y352517D01*
X124470D01*
X121096D02*
X120084Y351504D01*
X119747Y350830D01*
Y349817D01*
X120084Y349143D01*
X121096Y348805D01*
X124470D01*
X119747Y346579D02*
X124470Y344554D01*
X119747Y342530D02*
X124470Y344554D01*
X119747Y337334D02*
X124470D01*
X120759D02*
X120084Y338009D01*
X119747Y338684D01*
Y339696D01*
X120084Y340371D01*
X120759Y341045D01*
X121771Y341383D01*
X122446D01*
X123458Y341045D01*
X124133Y340371D01*
X124470Y339696D01*
Y338684D01*
X124133Y338009D01*
X123458Y337334D01*
X123795Y335107D02*
X124133Y335445D01*
X124470Y335107D01*
X124133Y334770D01*
X123795Y335107D01*
X117385Y332543D02*
X117723Y332206D01*
X117385Y331869D01*
X117048Y332206D01*
X117385Y332543D01*
X119747Y332206D02*
X124470D01*
X119747Y328933D02*
X120084Y329608D01*
X120759Y330283D01*
X121771Y330620D01*
X122446D01*
X123458Y330283D01*
X124133Y329608D01*
X124470Y328933D01*
Y327921D01*
X124133Y327246D01*
X123458Y326572D01*
X122446Y326234D01*
X121771D01*
X120759Y326572D01*
X120084Y327246D01*
X119747Y327921D01*
Y328933D01*
D46*
X107066Y456500D02*
X112970D01*
X107066Y452564D02*
X111002Y456500D01*
X109596Y455094D02*
X112970Y452564D01*
X109034Y451242D02*
X111846D01*
X112689Y450961D01*
X112970Y450399D01*
Y449555D01*
X112689Y448993D01*
X111846Y448150D01*
X109034D02*
X112970D01*
X109034Y446603D02*
X112970D01*
X110159D02*
X109315Y445760D01*
X109034Y445198D01*
Y444354D01*
X109315Y443792D01*
X110159Y443511D01*
X112970D01*
X110159D02*
X109315Y442667D01*
X109034Y442105D01*
Y441261D01*
X109315Y440699D01*
X110159Y440418D01*
X112970D01*
X109034Y438562D02*
X112970Y436875D01*
X109034Y435188D02*
X112970Y436875D01*
X109034Y430859D02*
X112970D01*
X109878D02*
X109315Y431421D01*
X109034Y431983D01*
Y432827D01*
X109315Y433389D01*
X109878Y433951D01*
X110721Y434233D01*
X111283D01*
X112127Y433951D01*
X112689Y433389D01*
X112970Y432827D01*
Y431983D01*
X112689Y431421D01*
X112127Y430859D01*
X107066Y424645D02*
X112970D01*
X109034Y422002D02*
X109315Y422565D01*
X109878Y423127D01*
X110721Y423408D01*
X111283D01*
X112127Y423127D01*
X112689Y422565D01*
X112970Y422002D01*
Y421159D01*
X112689Y420597D01*
X112127Y420034D01*
X111283Y419753D01*
X110721D01*
X109878Y420034D01*
X109315Y420597D01*
X109034Y421159D01*
Y422002D01*
X107066Y416492D02*
X112970D01*
X107066Y418460D02*
Y414524D01*
X110440Y409182D02*
Y404121D01*
X110159Y397739D02*
Y395208D01*
X109878Y394365D01*
X109596Y394084D01*
X109034Y393802D01*
X108191D01*
X107628Y394084D01*
X107347Y394365D01*
X107066Y395208D01*
Y397739D01*
X112970D01*
X109034Y391075D02*
X109315Y391638D01*
X109878Y392200D01*
X110721Y392481D01*
X111283D01*
X112127Y392200D01*
X112689Y391638D01*
X112970Y391075D01*
Y390232D01*
X112689Y389670D01*
X112127Y389107D01*
X111283Y388826D01*
X110721D01*
X109878Y389107D01*
X109315Y389670D01*
X109034Y390232D01*
Y391075D01*
Y387533D02*
X112970Y386408D01*
X109034Y385284D02*
X112970Y386408D01*
X109034Y385284D02*
X112970Y384159D01*
X109034Y383034D02*
X112970Y384159D01*
X110721Y381657D02*
Y378283D01*
X110159D01*
X109596Y378564D01*
X109315Y378845D01*
X109034Y379407D01*
Y380251D01*
X109315Y380813D01*
X109878Y381376D01*
X110721Y381657D01*
X111283D01*
X112127Y381376D01*
X112689Y380813D01*
X112970Y380251D01*
Y379407D01*
X112689Y378845D01*
X112127Y378283D01*
X109034Y377018D02*
X112970D01*
X110721D02*
X109878Y376736D01*
X109315Y376174D01*
X109034Y375612D01*
Y374768D01*
X107066Y369595D02*
X112970D01*
X107066D02*
X112970Y367346D01*
X107066Y365097D02*
X112970Y367346D01*
X107066Y365097D02*
X112970D01*
X109034Y362004D02*
X109315Y362566D01*
X109878Y363129D01*
X110721Y363410D01*
X111283D01*
X112127Y363129D01*
X112689Y362566D01*
X112970Y362004D01*
Y361160D01*
X112689Y360598D01*
X112127Y360036D01*
X111283Y359755D01*
X110721D01*
X109878Y360036D01*
X109315Y360598D01*
X109034Y361160D01*
Y362004D01*
Y358461D02*
X112970D01*
X110159D02*
X109315Y357618D01*
X109034Y357056D01*
Y356212D01*
X109315Y355650D01*
X110159Y355369D01*
X112970D01*
X107066Y353260D02*
X107347Y352979D01*
X107066Y352698D01*
X106785Y352979D01*
X107066Y353260D01*
X109034Y352979D02*
X112970D01*
X107066Y350814D02*
X111846D01*
X112689Y350533D01*
X112970Y349971D01*
Y349408D01*
X109034Y351658D02*
Y349689D01*
Y347159D02*
X109315Y347721D01*
X109878Y348284D01*
X110721Y348565D01*
X111283D01*
X112127Y348284D01*
X112689Y347721D01*
X112970Y347159D01*
Y346316D01*
X112689Y345753D01*
X112127Y345191D01*
X111283Y344910D01*
X110721D01*
X109878Y345191D01*
X109315Y345753D01*
X109034Y346316D01*
Y347159D01*
Y343616D02*
X112970D01*
X110721D02*
X109878Y343335D01*
X109315Y342773D01*
X109034Y342211D01*
Y341367D01*
X107066Y340271D02*
X107347Y339990D01*
X107066Y339708D01*
X106785Y339990D01*
X107066Y340271D01*
X109034Y339990D02*
X112970D01*
X109034Y338668D02*
X112970D01*
X110159D02*
X109315Y337825D01*
X109034Y337262D01*
Y336419D01*
X109315Y335857D01*
X110159Y335575D01*
X112970D01*
X109034Y330655D02*
X113533D01*
X114376Y330936D01*
X114657Y331218D01*
X114938Y331780D01*
Y332623D01*
X114657Y333186D01*
X109878Y330655D02*
X109315Y331218D01*
X109034Y331780D01*
Y332623D01*
X109315Y333186D01*
X109878Y333748D01*
X110721Y334029D01*
X111283D01*
X112127Y333748D01*
X112689Y333186D01*
X112970Y332623D01*
Y331780D01*
X112689Y331218D01*
X112127Y330655D01*
X107066Y324442D02*
X112970D01*
X107066D02*
Y321911D01*
X107347Y321068D01*
X107628Y320787D01*
X108191Y320505D01*
X108753D01*
X109315Y320787D01*
X109596Y321068D01*
X109878Y321911D01*
Y324442D02*
Y321911D01*
X110159Y321068D01*
X110440Y320787D01*
X111002Y320505D01*
X111846D01*
X112408Y320787D01*
X112689Y321068D01*
X112970Y321911D01*
Y324442D01*
X109034Y319184D02*
X112970D01*
X110721D02*
X109878Y318903D01*
X109315Y318341D01*
X109034Y317778D01*
Y316935D01*
X110721Y316401D02*
Y313027D01*
X110159D01*
X109596Y313308D01*
X109315Y313589D01*
X109034Y314152D01*
Y314995D01*
X109315Y315557D01*
X109878Y316120D01*
X110721Y316401D01*
X111283D01*
X112127Y316120D01*
X112689Y315557D01*
X112970Y314995D01*
Y314152D01*
X112689Y313589D01*
X112127Y313027D01*
X109034Y308388D02*
X112970D01*
X109878D02*
X109315Y308950D01*
X109034Y309512D01*
Y310356D01*
X109315Y310918D01*
X109878Y311480D01*
X110721Y311762D01*
X111283D01*
X112127Y311480D01*
X112689Y310918D01*
X112970Y310356D01*
Y309512D01*
X112689Y308950D01*
X112127Y308388D01*
X107066Y306813D02*
X112970D01*
X109034Y304002D02*
X111846Y306813D01*
X110721Y305689D02*
X112970Y303721D01*
X109034Y301387D02*
X109315Y301949D01*
X109878Y302512D01*
X110721Y302793D01*
X111283D01*
X112127Y302512D01*
X112689Y301949D01*
X112970Y301387D01*
Y300544D01*
X112689Y299981D01*
X112127Y299419D01*
X111283Y299138D01*
X110721D01*
X109878Y299419D01*
X109315Y299981D01*
X109034Y300544D01*
Y301387D01*
Y297845D02*
X111846D01*
X112689Y297563D01*
X112970Y297001D01*
Y296158D01*
X112689Y295595D01*
X111846Y294752D01*
X109034D02*
X112970D01*
X107066Y292362D02*
X111846D01*
X112689Y292081D01*
X112970Y291518D01*
Y290956D01*
X109034Y293205D02*
Y291237D01*
X107066Y285474D02*
X112970D01*
X107066D02*
Y282943D01*
X107347Y282100D01*
X107628Y281819D01*
X108191Y281538D01*
X108753D01*
X109315Y281819D01*
X109596Y282100D01*
X109878Y282943D01*
Y285474D02*
Y282943D01*
X110159Y282100D01*
X110440Y281819D01*
X111002Y281538D01*
X111846D01*
X112408Y281819D01*
X112689Y282100D01*
X112970Y282943D01*
Y285474D01*
X109034Y278810D02*
X109315Y279373D01*
X109878Y279935D01*
X110721Y280216D01*
X111283D01*
X112127Y279935D01*
X112689Y279373D01*
X112970Y278810D01*
Y277967D01*
X112689Y277405D01*
X112127Y276842D01*
X111283Y276561D01*
X110721D01*
X109878Y276842D01*
X109315Y277405D01*
X109034Y277967D01*
Y278810D01*
Y271894D02*
X112970D01*
X109878D02*
X109315Y272456D01*
X109034Y273019D01*
Y273862D01*
X109315Y274424D01*
X109878Y274987D01*
X110721Y275268D01*
X111283D01*
X112127Y274987D01*
X112689Y274424D01*
X112970Y273862D01*
Y273019D01*
X112689Y272456D01*
X112127Y271894D01*
X109034Y270320D02*
X112970D01*
X110721D02*
X109878Y270038D01*
X109315Y269476D01*
X109034Y268914D01*
Y268070D01*
X107066Y264162D02*
X112970D01*
X109878D02*
X109315Y264724D01*
X109034Y265287D01*
Y266130D01*
X109315Y266693D01*
X109878Y267255D01*
X110721Y267536D01*
X111283D01*
X112127Y267255D01*
X112689Y266693D01*
X112970Y266130D01*
Y265287D01*
X112689Y264724D01*
X112127Y264162D01*
M02*
