G04*
G04 #@! TF.GenerationSoftware,Altium Limited,Altium Designer,18.1.7 (191)*
G04*
G04 Layer_Color=32896*
%FSLAX25Y25*%
%MOIN*%
G70*
G01*
G75*
%ADD10C,0.00787*%
%ADD11C,0.00500*%
%ADD12C,0.01000*%
%ADD13C,0.00800*%
%ADD44C,0.00984*%
%ADD45C,0.01378*%
G36*
X231008Y479105D02*
X252191D01*
Y476435D01*
X246673D01*
Y476257D01*
X246495D01*
Y475901D01*
X246317D01*
Y475723D01*
X246139D01*
Y475545D01*
X245961D01*
Y475367D01*
X245783D01*
Y475189D01*
X245605D01*
Y475011D01*
X245427D01*
Y474833D01*
X245249D01*
Y474655D01*
X245071D01*
Y474299D01*
X245427D01*
Y474121D01*
X245783D01*
Y473943D01*
X245961D01*
Y473765D01*
X246139D01*
Y473587D01*
X246495D01*
Y473409D01*
X246673D01*
Y473231D01*
X247029D01*
Y473053D01*
X247207D01*
Y472875D01*
X247563D01*
Y472697D01*
X247741D01*
Y472519D01*
X248097D01*
Y472341D01*
X248275D01*
Y472163D01*
X248453D01*
Y471985D01*
X248809D01*
Y471807D01*
X248987D01*
Y471629D01*
X249165D01*
Y471451D01*
X249521D01*
Y471273D01*
X249699D01*
Y471095D01*
X250055D01*
Y470917D01*
X250233D01*
Y470739D01*
X250411D01*
Y470561D01*
X250767D01*
Y470382D01*
X250945D01*
Y470204D01*
X251301D01*
Y470026D01*
X251479D01*
Y469848D01*
X251835D01*
Y469670D01*
X252013D01*
Y469492D01*
X252191D01*
Y466111D01*
X252013D01*
Y466289D01*
X251835D01*
Y466467D01*
X251657D01*
Y466644D01*
X251301D01*
Y466822D01*
X251123D01*
Y467000D01*
X250767D01*
Y467178D01*
X250589D01*
Y467356D01*
X250233D01*
Y467534D01*
X250055D01*
Y467712D01*
X249877D01*
Y467891D01*
X249521D01*
Y468069D01*
X249343D01*
Y468247D01*
X248987D01*
Y468425D01*
X248809D01*
Y468603D01*
X248631D01*
Y468781D01*
X248275D01*
Y468959D01*
X248097D01*
Y469136D01*
X247919D01*
Y469314D01*
X247563D01*
Y469492D01*
X247385D01*
Y469670D01*
X247029D01*
Y469848D01*
X246851D01*
Y470026D01*
X246495D01*
Y470204D01*
X246317D01*
Y470382D01*
X245961D01*
Y470561D01*
X245783D01*
Y470739D01*
X245605D01*
Y470917D01*
X245249D01*
Y471095D01*
X245071D01*
Y471273D01*
X244893D01*
Y471451D01*
X244536D01*
Y471629D01*
X244358D01*
Y471807D01*
X244003D01*
Y471985D01*
X243825D01*
Y472163D01*
X243468D01*
Y472341D01*
X243290D01*
Y472519D01*
X242934D01*
Y472341D01*
X242757D01*
Y472163D01*
X242579D01*
Y471985D01*
X242401D01*
Y471807D01*
X242222D01*
Y471629D01*
X242044D01*
Y471451D01*
X241866D01*
Y471273D01*
X241688D01*
Y471095D01*
X241511D01*
Y470917D01*
X241333D01*
Y470739D01*
X241155D01*
Y470561D01*
X240977D01*
Y470382D01*
X240798D01*
Y470204D01*
X240620D01*
Y470026D01*
X240442D01*
Y469848D01*
X240265D01*
Y469670D01*
X240087D01*
Y469492D01*
X239909D01*
Y469136D01*
X239552D01*
Y468781D01*
X239374D01*
Y468603D01*
X239196D01*
Y468425D01*
X239019D01*
Y468247D01*
X238841D01*
Y468069D01*
X238662D01*
Y467891D01*
X238485D01*
Y467712D01*
X238306D01*
Y467534D01*
X238128D01*
Y467356D01*
X237950D01*
Y467178D01*
X237772D01*
Y467000D01*
X237594D01*
Y470204D01*
X237772D01*
Y470561D01*
X238128D01*
Y470917D01*
X238306D01*
Y471095D01*
X238485D01*
Y471273D01*
X238662D01*
Y471451D01*
X238841D01*
Y471629D01*
X239019D01*
Y471807D01*
X239196D01*
Y471985D01*
X239374D01*
Y472163D01*
X239552D01*
Y472341D01*
X239731D01*
Y472519D01*
X239909D01*
Y472697D01*
X240087D01*
Y472875D01*
X240265D01*
Y473053D01*
X240442D01*
Y473231D01*
X240620D01*
Y473409D01*
X240798D01*
Y473587D01*
X240977D01*
Y473765D01*
X241155D01*
Y473943D01*
X241333D01*
Y474121D01*
X241511D01*
Y474299D01*
X241688D01*
Y474477D01*
X241866D01*
Y474655D01*
X242044D01*
Y474833D01*
X242222D01*
Y475011D01*
X242401D01*
Y475189D01*
X242579D01*
Y475367D01*
X242757D01*
Y475545D01*
X242934D01*
Y475723D01*
X243112D01*
Y475901D01*
X243290D01*
Y476079D01*
X243468D01*
Y476435D01*
X231008D01*
Y476257D01*
X230830D01*
Y479283D01*
X231008D01*
Y479105D01*
D02*
G37*
G36*
X247207Y464508D02*
X248809D01*
Y464330D01*
X249343D01*
Y464152D01*
X250055D01*
Y463975D01*
X250411D01*
Y463797D01*
X250767D01*
Y463618D01*
X250945D01*
Y463440D01*
X251123D01*
Y463262D01*
X251301D01*
Y463084D01*
X251479D01*
Y462907D01*
X251657D01*
Y462728D01*
X251835D01*
Y462372D01*
X252013D01*
Y462016D01*
X252191D01*
Y461660D01*
X252369D01*
Y461126D01*
X252547D01*
Y458100D01*
X252369D01*
Y457566D01*
X252191D01*
Y457032D01*
X252013D01*
Y456676D01*
X251835D01*
Y456320D01*
X251657D01*
Y456142D01*
X251479D01*
Y455964D01*
X251301D01*
Y455786D01*
X251123D01*
Y455430D01*
X250767D01*
Y455252D01*
X250589D01*
Y455074D01*
X250233D01*
Y454718D01*
X252191D01*
Y452048D01*
X237416D01*
Y454896D01*
X247207D01*
Y455074D01*
X247741D01*
Y455252D01*
X248275D01*
Y455430D01*
X248453D01*
Y455608D01*
X248809D01*
Y455786D01*
X248987D01*
Y455964D01*
X249165D01*
Y456142D01*
X249343D01*
Y456320D01*
X249521D01*
Y456498D01*
X249699D01*
Y456676D01*
X249877D01*
Y457032D01*
X250055D01*
Y457388D01*
X250233D01*
Y459880D01*
X250055D01*
Y460236D01*
X249877D01*
Y460592D01*
X249699D01*
Y460770D01*
X249521D01*
Y460948D01*
X249343D01*
Y461126D01*
X248987D01*
Y461304D01*
X248809D01*
Y461482D01*
X248275D01*
Y461660D01*
X247563D01*
Y461838D01*
X237416D01*
Y464686D01*
X247207D01*
Y464508D01*
D02*
G37*
G36*
X252191Y445284D02*
X243290D01*
Y445106D01*
X242579D01*
Y444928D01*
X242044D01*
Y444750D01*
X241688D01*
Y444572D01*
X241155D01*
Y444394D01*
X240977D01*
Y444216D01*
X240798D01*
Y444038D01*
X240620D01*
Y443860D01*
X240442D01*
Y443682D01*
X240265D01*
Y443504D01*
X240087D01*
Y443326D01*
X239909D01*
Y442970D01*
X239731D01*
Y442436D01*
X239552D01*
Y440834D01*
X239731D01*
Y440478D01*
X239909D01*
Y440122D01*
X240087D01*
Y439944D01*
X240265D01*
Y439766D01*
X240442D01*
Y439588D01*
X240620D01*
Y439410D01*
X240977D01*
Y439232D01*
X241333D01*
Y439054D01*
X242044D01*
Y438876D01*
X252191D01*
Y436028D01*
X243468D01*
Y435850D01*
X242579D01*
Y435672D01*
X242044D01*
Y435494D01*
X241688D01*
Y435316D01*
X241333D01*
Y435138D01*
X240977D01*
Y434960D01*
X240798D01*
Y434782D01*
X240620D01*
Y434604D01*
X240442D01*
Y434426D01*
X240265D01*
Y434248D01*
X240087D01*
Y434070D01*
X239909D01*
Y433536D01*
X239731D01*
Y433180D01*
X239552D01*
Y431578D01*
X239731D01*
Y431044D01*
X239909D01*
Y430866D01*
X240087D01*
Y430510D01*
X240265D01*
Y430332D01*
X240620D01*
Y430154D01*
X240798D01*
Y429976D01*
X241155D01*
Y429798D01*
X241688D01*
Y429620D01*
X242757D01*
Y429442D01*
X252191D01*
Y426772D01*
X241511D01*
Y426950D01*
X240442D01*
Y427128D01*
X240087D01*
Y427306D01*
X239552D01*
Y427484D01*
X239374D01*
Y427662D01*
X239019D01*
Y427840D01*
X238841D01*
Y428018D01*
X238485D01*
Y428374D01*
X238306D01*
Y428552D01*
X238128D01*
Y428730D01*
X237950D01*
Y429086D01*
X237772D01*
Y429442D01*
X237594D01*
Y429798D01*
X237416D01*
Y430688D01*
X237238D01*
Y432468D01*
X237416D01*
Y433358D01*
X237594D01*
Y433714D01*
X237772D01*
Y434248D01*
X237950D01*
Y434426D01*
X238128D01*
Y434782D01*
X238306D01*
Y434960D01*
X238485D01*
Y435138D01*
X238662D01*
Y435316D01*
X238841D01*
Y435494D01*
X239019D01*
Y435672D01*
X239196D01*
Y435850D01*
X239552D01*
Y436028D01*
X239731D01*
Y436206D01*
X240087D01*
Y436562D01*
X239731D01*
Y436740D01*
X239374D01*
Y436918D01*
X239196D01*
Y437096D01*
X238841D01*
Y437274D01*
X238662D01*
Y437452D01*
X238485D01*
Y437630D01*
X238306D01*
Y437808D01*
X238128D01*
Y437986D01*
X237950D01*
Y438342D01*
X237772D01*
Y438698D01*
X237594D01*
Y439054D01*
X237416D01*
Y439944D01*
X237238D01*
Y441546D01*
X237416D01*
Y442436D01*
X237594D01*
Y442792D01*
X237772D01*
Y443148D01*
X237950D01*
Y443504D01*
X238128D01*
Y443682D01*
X238306D01*
Y443860D01*
X238485D01*
Y444038D01*
X238662D01*
Y444216D01*
X238841D01*
Y444394D01*
X239019D01*
Y444572D01*
X239196D01*
Y444750D01*
X239374D01*
Y444928D01*
X239731D01*
Y445106D01*
X239909D01*
Y445462D01*
X239552D01*
Y445284D01*
X237594D01*
Y448132D01*
X252191D01*
Y445284D01*
D02*
G37*
G36*
X237594Y425526D02*
X237950D01*
Y425348D01*
X238306D01*
Y425170D01*
X238662D01*
Y424992D01*
X239196D01*
Y424814D01*
X239552D01*
Y424636D01*
X240087D01*
Y424458D01*
X240442D01*
Y424280D01*
X240977D01*
Y424102D01*
X241333D01*
Y423924D01*
X241866D01*
Y423746D01*
X242222D01*
Y423568D01*
X242579D01*
Y423390D01*
X243112D01*
Y423212D01*
X243468D01*
Y423034D01*
X244003D01*
Y422856D01*
X244358D01*
Y422678D01*
X244714D01*
Y422500D01*
X245071D01*
Y422322D01*
X245605D01*
Y422144D01*
X245961D01*
Y421966D01*
X246495D01*
Y421788D01*
X246851D01*
Y421610D01*
X247385D01*
Y421432D01*
X247741D01*
Y421254D01*
X248275D01*
Y421076D01*
X248631D01*
Y420898D01*
X249165D01*
Y420720D01*
X249521D01*
Y420542D01*
X249877D01*
Y420364D01*
X250411D01*
Y420186D01*
X250767D01*
Y420008D01*
X251123D01*
Y419830D01*
X251479D01*
Y419652D01*
X252013D01*
Y419474D01*
X252191D01*
Y416804D01*
X251835D01*
Y416626D01*
X251301D01*
Y416448D01*
X250945D01*
Y416270D01*
X250411D01*
Y416092D01*
X250055D01*
Y415914D01*
X249699D01*
Y415736D01*
X249165D01*
Y415558D01*
X248809D01*
Y415380D01*
X248275D01*
Y415202D01*
X247919D01*
Y415024D01*
X247385D01*
Y414846D01*
X247029D01*
Y414668D01*
X246673D01*
Y414490D01*
X246139D01*
Y414312D01*
X245783D01*
Y414134D01*
X245427D01*
Y413956D01*
X244893D01*
Y413778D01*
X244536D01*
Y413600D01*
X244003D01*
Y413422D01*
X243647D01*
Y413244D01*
X243112D01*
Y413066D01*
X242757D01*
Y412888D01*
X242222D01*
Y412710D01*
X241866D01*
Y412532D01*
X241511D01*
Y412354D01*
X240977D01*
Y412176D01*
X240620D01*
Y411998D01*
X240265D01*
Y411820D01*
X239731D01*
Y411642D01*
X239374D01*
Y411464D01*
X239019D01*
Y411286D01*
X238485D01*
Y411108D01*
X238128D01*
Y410930D01*
X237594D01*
Y410752D01*
X237416D01*
Y413778D01*
X237950D01*
Y413956D01*
X238306D01*
Y414134D01*
X238841D01*
Y414312D01*
X239196D01*
Y414490D01*
X239731D01*
Y414668D01*
X240087D01*
Y414846D01*
X240620D01*
Y415024D01*
X241155D01*
Y415202D01*
X241511D01*
Y415380D01*
X242044D01*
Y415558D01*
X242579D01*
Y415736D01*
X242934D01*
Y415914D01*
X243468D01*
Y416092D01*
X243825D01*
Y416270D01*
X244180D01*
Y416448D01*
X244714D01*
Y416626D01*
X245249D01*
Y416804D01*
X245605D01*
Y416982D01*
X246139D01*
Y417160D01*
X246495D01*
Y417338D01*
X247029D01*
Y417516D01*
X247563D01*
Y417694D01*
X247919D01*
Y417872D01*
X248453D01*
Y418050D01*
X248631D01*
Y418406D01*
X248097D01*
Y418584D01*
X247563D01*
Y418762D01*
X247207D01*
Y418940D01*
X246673D01*
Y419118D01*
X246317D01*
Y419296D01*
X245783D01*
Y419474D01*
X245249D01*
Y419652D01*
X244893D01*
Y419830D01*
X244358D01*
Y420008D01*
X244003D01*
Y420186D01*
X243647D01*
Y420364D01*
X243112D01*
Y420542D01*
X242757D01*
Y420720D01*
X242222D01*
Y420898D01*
X241866D01*
Y421076D01*
X241333D01*
Y421254D01*
X240798D01*
Y421432D01*
X240442D01*
Y421610D01*
X240087D01*
Y421788D01*
X239374D01*
Y421966D01*
X239019D01*
Y422144D01*
X238485D01*
Y422322D01*
X238128D01*
Y422500D01*
X237594D01*
Y422678D01*
X237416D01*
Y425704D01*
X237594D01*
Y425526D01*
D02*
G37*
G36*
X253081Y413600D02*
X253615D01*
Y413422D01*
X254149D01*
Y413244D01*
X254327D01*
Y413066D01*
X254505D01*
Y412888D01*
X254683D01*
Y412710D01*
X254861D01*
Y412532D01*
X255039D01*
Y412354D01*
X255217D01*
Y411998D01*
X255395D01*
Y411464D01*
X255573D01*
Y410040D01*
X255395D01*
Y409506D01*
X255217D01*
Y409150D01*
X255039D01*
Y408794D01*
X254861D01*
Y408616D01*
X254683D01*
Y408438D01*
X254505D01*
Y408260D01*
X254149D01*
Y408082D01*
X253971D01*
Y407904D01*
X253437D01*
Y407726D01*
X251657D01*
Y407904D01*
X251123D01*
Y408082D01*
X250945D01*
Y408260D01*
X250589D01*
Y408438D01*
X250055D01*
Y408260D01*
X249521D01*
Y408082D01*
X249165D01*
Y407904D01*
X248631D01*
Y407726D01*
X248275D01*
Y407548D01*
X247741D01*
Y407370D01*
X247385D01*
Y407192D01*
X246851D01*
Y407014D01*
X246495D01*
Y406836D01*
X245961D01*
Y406658D01*
X245427D01*
Y406480D01*
X244893D01*
Y406302D01*
X244536D01*
Y406124D01*
X244003D01*
Y405946D01*
X243647D01*
Y405768D01*
X243112D01*
Y405590D01*
X242757D01*
Y405412D01*
X242222D01*
Y405234D01*
X241866D01*
Y405056D01*
X241333D01*
Y404878D01*
X240798D01*
Y404700D01*
X240265D01*
Y405234D01*
X240087D01*
Y405590D01*
X239909D01*
Y405946D01*
X239731D01*
Y406302D01*
X239552D01*
Y406480D01*
X239374D01*
Y406836D01*
X239552D01*
Y407014D01*
X240087D01*
Y407192D01*
X240442D01*
Y407370D01*
X240977D01*
Y407548D01*
X241333D01*
Y407726D01*
X241866D01*
Y407904D01*
X242222D01*
Y408082D01*
X242579D01*
Y408260D01*
X243112D01*
Y408438D01*
X243468D01*
Y408616D01*
X243825D01*
Y408794D01*
X244358D01*
Y408972D01*
X244714D01*
Y409150D01*
X245071D01*
Y409328D01*
X245605D01*
Y409506D01*
X245961D01*
Y409684D01*
X246495D01*
Y409862D01*
X246851D01*
Y410040D01*
X247385D01*
Y410218D01*
X247741D01*
Y410396D01*
X248275D01*
Y410574D01*
X248631D01*
Y410752D01*
X248987D01*
Y410930D01*
X249343D01*
Y411108D01*
X249521D01*
Y411464D01*
X249699D01*
Y411998D01*
X249877D01*
Y412354D01*
X250055D01*
Y412532D01*
X250233D01*
Y412710D01*
X250411D01*
Y412888D01*
X250589D01*
Y413066D01*
X250767D01*
Y413244D01*
X250945D01*
Y413422D01*
X251479D01*
Y413600D01*
X252013D01*
Y413778D01*
X253081D01*
Y413600D01*
D02*
G37*
G36*
X249165Y405412D02*
X249521D01*
Y405234D01*
X249877D01*
Y405056D01*
X250055D01*
Y404878D01*
X250233D01*
Y404700D01*
X250411D01*
Y404522D01*
X250589D01*
Y404166D01*
X250767D01*
Y402564D01*
X250589D01*
Y402208D01*
X250411D01*
Y402030D01*
X250233D01*
Y401852D01*
X250055D01*
Y401674D01*
X249699D01*
Y401496D01*
X249343D01*
Y401318D01*
X248097D01*
Y401496D01*
X247741D01*
Y401674D01*
X247563D01*
Y401852D01*
X247207D01*
Y402208D01*
X247029D01*
Y402386D01*
X246851D01*
Y402742D01*
X246673D01*
Y402920D01*
X245605D01*
Y403098D01*
X242757D01*
Y404344D01*
X245071D01*
Y404166D01*
X246851D01*
Y404522D01*
X247029D01*
Y404700D01*
X247207D01*
Y404878D01*
X247385D01*
Y405056D01*
X247563D01*
Y405234D01*
X247919D01*
Y405412D01*
X248453D01*
Y405590D01*
X249165D01*
Y405412D01*
D02*
G37*
G36*
X237238D02*
X237416D01*
Y405234D01*
X237772D01*
Y405056D01*
X237950D01*
Y404700D01*
X238128D01*
Y404522D01*
X238306D01*
Y403276D01*
X238128D01*
Y402920D01*
X237950D01*
Y402742D01*
X237772D01*
Y402564D01*
X237594D01*
Y402386D01*
X237238D01*
Y402208D01*
X236170D01*
Y402386D01*
X235636D01*
Y402564D01*
X235458D01*
Y402742D01*
X235280D01*
Y403098D01*
X235102D01*
Y403632D01*
X234924D01*
Y404344D01*
X235102D01*
Y404700D01*
X235280D01*
Y405056D01*
X235458D01*
Y405234D01*
X235814D01*
Y405412D01*
X236170D01*
Y405590D01*
X237238D01*
Y405412D01*
D02*
G37*
G36*
X231720Y405590D02*
X232076D01*
Y405412D01*
X232432D01*
Y405234D01*
X232966D01*
Y405056D01*
X233144D01*
Y404522D01*
X232966D01*
Y403098D01*
X233144D01*
Y402386D01*
X233322D01*
Y402208D01*
X233500D01*
Y401852D01*
X233678D01*
Y401674D01*
X233856D01*
Y401496D01*
X234034D01*
Y401318D01*
X234212D01*
Y401140D01*
X234390D01*
Y400962D01*
X234568D01*
Y400784D01*
X234746D01*
Y400606D01*
X234568D01*
Y400250D01*
X234390D01*
Y399894D01*
X234212D01*
Y399360D01*
X234034D01*
Y399182D01*
X233856D01*
Y398826D01*
X233678D01*
Y399004D01*
X233322D01*
Y399182D01*
X232966D01*
Y399360D01*
X232788D01*
Y399538D01*
X232610D01*
Y399716D01*
X232432D01*
Y399894D01*
X232254D01*
Y400072D01*
X232076D01*
Y400250D01*
X231898D01*
Y400428D01*
X231720D01*
Y400784D01*
X231542D01*
Y400962D01*
X231364D01*
Y401496D01*
X231186D01*
Y401852D01*
X231008D01*
Y402386D01*
X230830D01*
Y404878D01*
X231008D01*
Y405590D01*
X231186D01*
Y405768D01*
X231720D01*
Y405590D01*
D02*
G37*
G36*
X227448Y407548D02*
X227982D01*
Y407370D01*
X228160D01*
Y407192D01*
X228694D01*
Y407014D01*
X229050D01*
Y406302D01*
X228872D01*
Y405946D01*
X228694D01*
Y405056D01*
X228516D01*
Y402208D01*
X228694D01*
Y401496D01*
X228872D01*
Y400962D01*
X229050D01*
Y400606D01*
X229228D01*
Y400250D01*
X229406D01*
Y399894D01*
X229584D01*
Y399538D01*
X229762D01*
Y399182D01*
X229940D01*
Y399004D01*
X230118D01*
Y398826D01*
X230296D01*
Y398648D01*
X230474D01*
Y398470D01*
X230652D01*
Y398114D01*
X231008D01*
Y397936D01*
X231186D01*
Y397758D01*
X231364D01*
Y397580D01*
X231542D01*
Y397402D01*
X231898D01*
Y397223D01*
X232076D01*
Y397046D01*
X232432D01*
Y396868D01*
X232610D01*
Y396690D01*
X232788D01*
Y396334D01*
X232610D01*
Y396156D01*
X232432D01*
Y395621D01*
X232254D01*
Y395266D01*
X232076D01*
Y394910D01*
X231898D01*
Y394731D01*
X231542D01*
Y394910D01*
X231364D01*
Y395088D01*
X231008D01*
Y395266D01*
X230652D01*
Y395444D01*
X230474D01*
Y395621D01*
X230118D01*
Y395799D01*
X229940D01*
Y395977D01*
X229762D01*
Y396156D01*
X229584D01*
Y396334D01*
X229406D01*
Y396512D01*
X229228D01*
Y396690D01*
X229050D01*
Y396868D01*
X228872D01*
Y397046D01*
X228694D01*
Y397223D01*
X228516D01*
Y397402D01*
X228338D01*
Y397758D01*
X228160D01*
Y397936D01*
X227982D01*
Y398114D01*
X227804D01*
Y398470D01*
X227626D01*
Y398826D01*
X227448D01*
Y399004D01*
X227270D01*
Y399360D01*
X227092D01*
Y399894D01*
X226914D01*
Y400250D01*
X226736D01*
Y400784D01*
X226558D01*
Y401674D01*
X226380D01*
Y402742D01*
X226202D01*
Y404700D01*
X226380D01*
Y405768D01*
X226558D01*
Y406480D01*
X226736D01*
Y407014D01*
X226914D01*
Y407548D01*
X227092D01*
Y407726D01*
X227448D01*
Y407548D01*
D02*
G37*
G36*
X240977Y403098D02*
X241155D01*
Y402920D01*
X241688D01*
Y402742D01*
X242044D01*
Y402564D01*
X242401D01*
Y402386D01*
X242757D01*
Y402208D01*
X243112D01*
Y402030D01*
X243468D01*
Y401852D01*
X243825D01*
Y401674D01*
X244180D01*
Y401496D01*
X244536D01*
Y401318D01*
X244893D01*
Y401140D01*
X245249D01*
Y400962D01*
X245605D01*
Y400784D01*
X245961D01*
Y400606D01*
X246317D01*
Y400428D01*
X246673D01*
Y400250D01*
X247207D01*
Y400072D01*
X247385D01*
Y399894D01*
X247919D01*
Y399716D01*
X248097D01*
Y399538D01*
X248631D01*
Y399360D01*
X248987D01*
Y399182D01*
X249343D01*
Y399004D01*
X249699D01*
Y398826D01*
X250055D01*
Y398648D01*
X250411D01*
Y398470D01*
X250767D01*
Y398292D01*
X251123D01*
Y398114D01*
X251657D01*
Y397936D01*
X251835D01*
Y397758D01*
X252369D01*
Y397580D01*
X252725D01*
Y397402D01*
X253081D01*
Y397223D01*
X253437D01*
Y397046D01*
X253793D01*
Y396868D01*
X253971D01*
Y396690D01*
X253793D01*
Y396512D01*
X253615D01*
Y396334D01*
X253437D01*
Y395977D01*
X253259D01*
Y395799D01*
X253081D01*
Y395444D01*
X252903D01*
Y395088D01*
X252725D01*
Y394375D01*
X252369D01*
Y394553D01*
X252013D01*
Y394731D01*
X251657D01*
Y394910D01*
X251301D01*
Y395088D01*
X250945D01*
Y395266D01*
X250589D01*
Y395444D01*
X250233D01*
Y395621D01*
X249877D01*
Y395799D01*
X249699D01*
Y395977D01*
X249165D01*
Y396156D01*
X248987D01*
Y396334D01*
X248453D01*
Y396512D01*
X248275D01*
Y396690D01*
X247919D01*
Y396868D01*
X247563D01*
Y397046D01*
X247207D01*
Y397223D01*
X246851D01*
Y397402D01*
X246495D01*
Y397580D01*
X246139D01*
Y397758D01*
X245783D01*
Y397936D01*
X245427D01*
Y398114D01*
X245071D01*
Y398292D01*
X244714D01*
Y398470D01*
X244358D01*
Y398648D01*
X244003D01*
Y398826D01*
X243647D01*
Y399004D01*
X243290D01*
Y399182D01*
X242934D01*
Y399360D01*
X242579D01*
Y399538D01*
X242222D01*
Y399716D01*
X241866D01*
Y399894D01*
X241511D01*
Y400072D01*
X241155D01*
Y400250D01*
X240798D01*
Y400428D01*
X240442D01*
Y400606D01*
X240087D01*
Y400784D01*
X239731D01*
Y400962D01*
X239374D01*
Y401140D01*
X239552D01*
Y401496D01*
X239731D01*
Y401674D01*
X239909D01*
Y402030D01*
X240087D01*
Y402564D01*
X240265D01*
Y402920D01*
X240442D01*
Y403276D01*
X240977D01*
Y403098D01*
D02*
G37*
G36*
X256819Y397402D02*
X257531D01*
Y397223D01*
X257887D01*
Y397046D01*
X258243D01*
Y396868D01*
X258421D01*
Y396690D01*
X258599D01*
Y396512D01*
X258777D01*
Y396334D01*
X258955D01*
Y396156D01*
X259133D01*
Y395977D01*
X259311D01*
Y395621D01*
X259489D01*
Y395266D01*
X259667D01*
Y392596D01*
X259489D01*
Y392239D01*
X259311D01*
Y391883D01*
X259133D01*
Y391705D01*
X258955D01*
Y391528D01*
X258777D01*
Y391350D01*
X258599D01*
Y391172D01*
X258421D01*
Y390993D01*
X258243D01*
Y390815D01*
X257887D01*
Y390637D01*
X257531D01*
Y390459D01*
X254861D01*
Y390637D01*
X254505D01*
Y390815D01*
X254149D01*
Y390993D01*
X253971D01*
Y391172D01*
X253793D01*
Y391350D01*
X253615D01*
Y391528D01*
X253437D01*
Y391705D01*
X253259D01*
Y391883D01*
X253081D01*
Y392239D01*
X252903D01*
Y392596D01*
X252725D01*
Y393307D01*
X252547D01*
Y394198D01*
X252725D01*
Y394020D01*
X252903D01*
Y394375D01*
X253081D01*
Y395088D01*
X253259D01*
Y395444D01*
X253437D01*
Y395799D01*
X253615D01*
Y395977D01*
X253793D01*
Y396156D01*
X253971D01*
Y396512D01*
X254149D01*
Y396690D01*
X254327D01*
Y397223D01*
X254861D01*
Y397402D01*
X255751D01*
Y397580D01*
X256819D01*
Y397402D01*
D02*
G37*
G36*
X223354Y409506D02*
X223710D01*
Y409328D01*
X224066D01*
Y409150D01*
X224422D01*
Y408972D01*
X224778D01*
Y408794D01*
X224956D01*
Y408260D01*
X224778D01*
Y407904D01*
X224600D01*
Y407370D01*
X224422D01*
Y406658D01*
X224244D01*
Y406124D01*
X224066D01*
Y404522D01*
X223888D01*
Y402920D01*
X224066D01*
Y401318D01*
X224244D01*
Y400606D01*
X224422D01*
Y399894D01*
X224600D01*
Y399538D01*
X224778D01*
Y398826D01*
X224956D01*
Y398470D01*
X225134D01*
Y398114D01*
X225312D01*
Y397936D01*
X225490D01*
Y397402D01*
X225668D01*
Y397223D01*
X225846D01*
Y396868D01*
X226024D01*
Y396690D01*
X226202D01*
Y396512D01*
X226380D01*
Y396156D01*
X226558D01*
Y395977D01*
X226736D01*
Y395799D01*
X226914D01*
Y395444D01*
X227092D01*
Y395266D01*
X227270D01*
Y395088D01*
X227448D01*
Y394910D01*
X227626D01*
Y394731D01*
X227982D01*
Y394553D01*
X228160D01*
Y394375D01*
X228338D01*
Y394198D01*
X228516D01*
Y394020D01*
X228872D01*
Y393842D01*
X229050D01*
Y393664D01*
X229228D01*
Y393485D01*
X229584D01*
Y393307D01*
X229762D01*
Y393129D01*
X230118D01*
Y392951D01*
X230474D01*
Y392774D01*
X230830D01*
Y392239D01*
X230652D01*
Y391883D01*
X230474D01*
Y391528D01*
X230296D01*
Y391172D01*
X230118D01*
Y390815D01*
X229940D01*
Y390637D01*
X229584D01*
Y390815D01*
X229228D01*
Y390993D01*
X229050D01*
Y391172D01*
X228694D01*
Y391350D01*
X228516D01*
Y391528D01*
X228160D01*
Y391705D01*
X227982D01*
Y391883D01*
X227626D01*
Y392061D01*
X227448D01*
Y392239D01*
X227092D01*
Y392418D01*
X226914D01*
Y392596D01*
X226736D01*
Y392774D01*
X226558D01*
Y392951D01*
X226380D01*
Y393129D01*
X226202D01*
Y393307D01*
X226024D01*
Y393485D01*
X225846D01*
Y393664D01*
X225668D01*
Y393842D01*
X225490D01*
Y394020D01*
X225312D01*
Y394198D01*
X225134D01*
Y394375D01*
X224956D01*
Y394731D01*
X224778D01*
Y394910D01*
X224600D01*
Y395088D01*
X224422D01*
Y395266D01*
X224244D01*
Y395621D01*
X224066D01*
Y395799D01*
X223888D01*
Y396156D01*
X223710D01*
Y396512D01*
X223532D01*
Y396690D01*
X223354D01*
Y397046D01*
X223176D01*
Y397580D01*
X222998D01*
Y397936D01*
X222820D01*
Y398292D01*
X222642D01*
Y398648D01*
X222464D01*
Y399360D01*
X222286D01*
Y399894D01*
X222108D01*
Y400784D01*
X221930D01*
Y401852D01*
X221752D01*
Y405590D01*
X221930D01*
Y406480D01*
X222108D01*
Y407370D01*
X222286D01*
Y407904D01*
X222464D01*
Y408438D01*
X222642D01*
Y408972D01*
X222820D01*
Y409506D01*
X222998D01*
Y409684D01*
X223354D01*
Y409506D01*
D02*
G37*
%LPC*%
G36*
X252725Y411464D02*
X252191D01*
Y411286D01*
X252013D01*
Y411108D01*
X251835D01*
Y410218D01*
X252013D01*
Y410040D01*
X252903D01*
Y410218D01*
X253081D01*
Y410396D01*
X253259D01*
Y410930D01*
X253081D01*
Y411108D01*
X252903D01*
Y411286D01*
X252725D01*
Y411464D01*
D02*
G37*
G36*
X249877Y411108D02*
X249699D01*
Y410930D01*
X249521D01*
Y410040D01*
X249699D01*
Y409506D01*
X249877D01*
Y409150D01*
X250055D01*
Y408794D01*
X250233D01*
Y408616D01*
X250589D01*
Y408438D01*
X250767D01*
Y408616D01*
X250589D01*
Y408794D01*
X250411D01*
Y409150D01*
X250233D01*
Y409506D01*
X250055D01*
Y410040D01*
X249877D01*
Y411108D01*
D02*
G37*
G36*
X256641Y395266D02*
X255573D01*
Y395088D01*
X255217D01*
Y394731D01*
X255039D01*
Y394553D01*
X254861D01*
Y394020D01*
X254683D01*
Y393664D01*
X254861D01*
Y393307D01*
X255039D01*
Y392951D01*
X255217D01*
Y392774D01*
X255573D01*
Y392596D01*
X256641D01*
Y392774D01*
X256997D01*
Y392951D01*
X257175D01*
Y393129D01*
X257353D01*
Y393664D01*
X257531D01*
Y394198D01*
X257353D01*
Y394731D01*
X257175D01*
Y394910D01*
X256997D01*
Y395088D01*
X256641D01*
Y395266D01*
D02*
G37*
%LPD*%
D10*
X264457Y383543D02*
X263669D01*
X264457D01*
X225551Y288193D02*
X224764D01*
X225551D01*
X226551Y240693D02*
X225764D01*
X226551D01*
X223394Y331193D02*
X222606D01*
X223394D01*
X218744Y406000D02*
X217957D01*
X218744D01*
X222807Y468787D02*
X222020D01*
X222807D01*
X225394Y376106D02*
X224606D01*
X225394D01*
X262500Y319158D02*
Y339158D01*
X252500Y319158D02*
X262500D01*
X252500D02*
Y339158D01*
X262500D01*
X191713Y291122D02*
X193287D01*
X191713Y293878D02*
X193287D01*
X191713Y279878D02*
X193287D01*
X191713Y277122D02*
X193287D01*
X192213Y247622D02*
X193787D01*
X192213Y250378D02*
X193787D01*
X192370Y233378D02*
X193945D01*
X192370Y230622D02*
X193945D01*
X223713Y293622D02*
X225287D01*
X223713Y296378D02*
X225287D01*
X226665Y378622D02*
X228240D01*
X226665Y381378D02*
X228240D01*
X224213Y244622D02*
X225787D01*
X224213Y247378D02*
X225787D01*
X223260Y335035D02*
X224835D01*
X223260Y337791D02*
X224835D01*
X193713Y427779D02*
X195287D01*
X193713Y430535D02*
X195287D01*
X193760Y424287D02*
X195335D01*
X193760Y421531D02*
X195335D01*
X224713Y424122D02*
X226287D01*
X224713Y426878D02*
X226287D01*
X222713Y474378D02*
X224287D01*
X222713Y471622D02*
X224287D01*
X193055Y462012D02*
X194630D01*
X193055Y459256D02*
X194630D01*
X192713Y473303D02*
X194287D01*
X192713Y476059D02*
X194287D01*
X192008Y330622D02*
X193583D01*
X192008Y333378D02*
X193583D01*
X191969Y339878D02*
X193543D01*
X191969Y337122D02*
X193543D01*
X193917Y375622D02*
X195492D01*
X193917Y378378D02*
X195492D01*
X193921Y385177D02*
X195496D01*
X193921Y382421D02*
X195496D01*
D11*
X261209Y354410D02*
Y357756D01*
X257567Y354410D02*
X261209D01*
Y382559D02*
Y385906D01*
X257567D02*
X261209D01*
X249791Y358937D02*
Y381378D01*
X223130Y279020D02*
Y283980D01*
X227185Y279020D02*
Y283980D01*
X224130Y231520D02*
Y236480D01*
X228185Y231520D02*
Y236480D01*
X220972Y322020D02*
Y326980D01*
X225028Y322020D02*
Y326980D01*
X209177Y408028D02*
X214138D01*
X209177Y403972D02*
X214138D01*
X220386Y459614D02*
Y464575D01*
X224441Y459614D02*
Y464575D01*
X222972Y366933D02*
Y371894D01*
X227028Y366933D02*
Y371894D01*
X229400Y250900D02*
Y253899D01*
X227901D01*
X227401Y253399D01*
Y252399D01*
X227901Y251900D01*
X229400D01*
X228400D02*
X227401Y250900D01*
X226401Y253399D02*
X225901Y253899D01*
X224902D01*
X224402Y253399D01*
Y252899D01*
X224902Y252399D01*
X225401D01*
X224902D01*
X224402Y251900D01*
Y251400D01*
X224902Y250900D01*
X225901D01*
X226401Y251400D01*
X223402Y253399D02*
X222902Y253899D01*
X221902D01*
X221403Y253399D01*
Y251400D01*
X221902Y250900D01*
X222902D01*
X223402Y251400D01*
Y253399D01*
X208100Y230400D02*
Y233399D01*
X206600D01*
X206101Y232899D01*
Y231899D01*
X206600Y231400D01*
X208100D01*
X207100D02*
X206101Y230400D01*
X203102D02*
X205101D01*
X203102Y232399D01*
Y232899D01*
X203601Y233399D01*
X204601D01*
X205101Y232899D01*
X202102Y230900D02*
X201602Y230400D01*
X200602D01*
X200103Y230900D01*
Y232899D01*
X200602Y233399D01*
X201602D01*
X202102Y232899D01*
Y232399D01*
X201602Y231899D01*
X200103D01*
X207900Y247900D02*
Y250899D01*
X206400D01*
X205901Y250399D01*
Y249399D01*
X206400Y248900D01*
X207900D01*
X206900D02*
X205901Y247900D01*
X202902D02*
X204901D01*
X202902Y249899D01*
Y250399D01*
X203401Y250899D01*
X204401D01*
X204901Y250399D01*
X201902D02*
X201402Y250899D01*
X200402D01*
X199903Y250399D01*
Y249899D01*
X200402Y249399D01*
X199903Y248900D01*
Y248400D01*
X200402Y247900D01*
X201402D01*
X201902Y248400D01*
Y248900D01*
X201402Y249399D01*
X201902Y249899D01*
Y250399D01*
X201402Y249399D02*
X200402D01*
X228900Y299900D02*
Y302899D01*
X227400D01*
X226901Y302399D01*
Y301399D01*
X227400Y300900D01*
X228900D01*
X227900D02*
X226901Y299900D01*
X223902D02*
X225901D01*
X223902Y301899D01*
Y302399D01*
X224401Y302899D01*
X225401D01*
X225901Y302399D01*
X220903Y302899D02*
X222902D01*
Y301399D01*
X221902Y301899D01*
X221402D01*
X220903Y301399D01*
Y300400D01*
X221402Y299900D01*
X222402D01*
X222902Y300400D01*
X206900Y276900D02*
Y279899D01*
X205400D01*
X204901Y279399D01*
Y278399D01*
X205400Y277900D01*
X206900D01*
X205900D02*
X204901Y276900D01*
X201902D02*
X203901D01*
X201902Y278899D01*
Y279399D01*
X202401Y279899D01*
X203401D01*
X203901Y279399D01*
X199402Y276900D02*
Y279899D01*
X200902Y278399D01*
X198903D01*
X207900Y290900D02*
Y293899D01*
X206400D01*
X205901Y293399D01*
Y292400D01*
X206400Y291900D01*
X207900D01*
X206900D02*
X205901Y290900D01*
X202902D02*
X204901D01*
X202902Y292899D01*
Y293399D01*
X203401Y293899D01*
X204401D01*
X204901Y293399D01*
X201902D02*
X201402Y293899D01*
X200402D01*
X199903Y293399D01*
Y292899D01*
X200402Y292400D01*
X200902D01*
X200402D01*
X199903Y291900D01*
Y291400D01*
X200402Y290900D01*
X201402D01*
X201902Y291400D01*
X258900Y314243D02*
Y317242D01*
X257400D01*
X256901Y316742D01*
Y315742D01*
X257400Y315242D01*
X258900D01*
X255901Y314243D02*
X254901D01*
X255401D01*
Y317242D01*
X255901Y316742D01*
X222300Y237557D02*
Y234558D01*
X220800D01*
X220301Y235057D01*
Y237057D01*
X220800Y237557D01*
X222300D01*
X217302D02*
X218301Y237057D01*
X219301Y236057D01*
Y235057D01*
X218801Y234558D01*
X217801D01*
X217302Y235057D01*
Y235557D01*
X217801Y236057D01*
X219301D01*
X221800Y283657D02*
Y280658D01*
X220301D01*
X219801Y281157D01*
Y283157D01*
X220301Y283657D01*
X221800D01*
X216802D02*
X218801D01*
Y282157D01*
X217801Y282657D01*
X217302D01*
X216802Y282157D01*
Y281157D01*
X217302Y280658D01*
X218301D01*
X218801Y281157D01*
X267901Y336100D02*
X268401Y336600D01*
X269400D01*
X269900Y336100D01*
Y334101D01*
X269400Y333601D01*
X268401D01*
X267901Y334101D01*
X266901Y336600D02*
X264902D01*
Y336100D01*
X266901Y334101D01*
Y333601D01*
X202401Y240899D02*
X202901Y241399D01*
X203900D01*
X204400Y240899D01*
Y238900D01*
X203900Y238400D01*
X202901D01*
X202401Y238900D01*
X199402Y241399D02*
X200401Y240899D01*
X201401Y239899D01*
Y238900D01*
X200901Y238400D01*
X199901D01*
X199402Y238900D01*
Y239400D01*
X199901Y239899D01*
X201401D01*
X201901Y286899D02*
X202400Y287399D01*
X203400D01*
X203900Y286899D01*
Y284900D01*
X203400Y284400D01*
X202400D01*
X201901Y284900D01*
X198902Y287399D02*
X200901D01*
Y285899D01*
X199901Y286399D01*
X199401D01*
X198902Y285899D01*
Y284900D01*
X199401Y284400D01*
X200401D01*
X200901Y284900D01*
X198895Y333100D02*
Y330101D01*
X200395D01*
X200895Y330601D01*
Y331600D01*
X200395Y332100D01*
X198895D01*
X199895D02*
X200895Y333100D01*
X203894D02*
X201894D01*
X203894Y331101D01*
Y330601D01*
X203394Y330101D01*
X202394D01*
X201894Y330601D01*
X204893D02*
X205393Y330101D01*
X206393D01*
X206893Y330601D01*
Y332600D01*
X206393Y333100D01*
X205393D01*
X204893Y332600D01*
Y330601D01*
X207900Y338156D02*
Y341155D01*
X206400D01*
X205901Y340655D01*
Y339655D01*
X206400Y339156D01*
X207900D01*
X206900D02*
X205901Y338156D01*
X204901D02*
X203901D01*
X204401D01*
Y341155D01*
X204901Y340655D01*
X202402Y338656D02*
X201902Y338156D01*
X200902D01*
X200402Y338656D01*
Y340655D01*
X200902Y341155D01*
X201902D01*
X202402Y340655D01*
Y340155D01*
X201902Y339655D01*
X200402D01*
X226900Y340400D02*
Y343399D01*
X225400D01*
X224901Y342899D01*
Y341899D01*
X225400Y341400D01*
X226900D01*
X225900D02*
X224901Y340400D01*
X223901D02*
X222901D01*
X223401D01*
Y343399D01*
X223901Y342899D01*
X219402Y343399D02*
X220402Y342899D01*
X221402Y341899D01*
Y340900D01*
X220902Y340400D01*
X219902D01*
X219402Y340900D01*
Y341400D01*
X219902Y341899D01*
X221402D01*
X209057Y427400D02*
Y430399D01*
X207558D01*
X207058Y429899D01*
Y428899D01*
X207558Y428400D01*
X209057D01*
X208058D02*
X207058Y427400D01*
X206058D02*
X205059D01*
X205559D01*
Y430399D01*
X206058Y429899D01*
X203559D02*
X203059Y430399D01*
X202060D01*
X201560Y429899D01*
Y429399D01*
X202060Y428899D01*
X202560D01*
X202060D01*
X201560Y428400D01*
Y427900D01*
X202060Y427400D01*
X203059D01*
X203559Y427900D01*
X208819Y421258D02*
Y424257D01*
X207319D01*
X206820Y423758D01*
Y422758D01*
X207319Y422258D01*
X208819D01*
X207819D02*
X206820Y421258D01*
X205820D02*
X204820D01*
X205320D01*
Y424257D01*
X205820Y423758D01*
X201321Y421258D02*
X203321D01*
X201321Y423258D01*
Y423758D01*
X201821Y424257D01*
X202821D01*
X203321Y423758D01*
X208105Y375463D02*
Y378462D01*
X206605D01*
X206105Y377962D01*
Y376962D01*
X206605Y376463D01*
X208105D01*
X207105D02*
X206105Y375463D01*
X205106D02*
X204106D01*
X204606D01*
Y378462D01*
X205106Y377962D01*
X202607Y375463D02*
X201607D01*
X202107D01*
Y378462D01*
X202607Y377962D01*
X208609Y382199D02*
Y385198D01*
X207109D01*
X206609Y384698D01*
Y383699D01*
X207109Y383199D01*
X208609D01*
X207609D02*
X206609Y382199D01*
X205610D02*
X204610D01*
X205110D01*
Y385198D01*
X205610Y384698D01*
X203110D02*
X202611Y385198D01*
X201611D01*
X201111Y384698D01*
Y382699D01*
X201611Y382199D01*
X202611D01*
X203110Y382699D01*
Y384698D01*
X233947Y373400D02*
Y376399D01*
X232448D01*
X231948Y375899D01*
Y374900D01*
X232448Y374400D01*
X233947D01*
X232948D02*
X231948Y373400D01*
X230948Y373900D02*
X230448Y373400D01*
X229449D01*
X228949Y373900D01*
Y375899D01*
X229449Y376399D01*
X230448D01*
X230948Y375899D01*
Y375399D01*
X230448Y374900D01*
X228949D01*
X227450Y428803D02*
Y431802D01*
X225951D01*
X225451Y431302D01*
Y430302D01*
X225951Y429803D01*
X227450D01*
X226450D02*
X225451Y428803D01*
X224451Y431302D02*
X223951Y431802D01*
X222952D01*
X222452Y431302D01*
Y430802D01*
X222952Y430302D01*
X222452Y429803D01*
Y429303D01*
X222952Y428803D01*
X223951D01*
X224451Y429303D01*
Y429803D01*
X223951Y430302D01*
X224451Y430802D01*
Y431302D01*
X223951Y430302D02*
X222952D01*
X226000Y317799D02*
Y314800D01*
X224500D01*
X224001Y315300D01*
Y317299D01*
X224500Y317799D01*
X226000D01*
X221501Y314800D02*
Y317799D01*
X223001Y316300D01*
X221002D01*
X234044Y368656D02*
Y365657D01*
X232545D01*
X232045Y366157D01*
Y368157D01*
X232545Y368656D01*
X234044D01*
X231045Y368157D02*
X230545Y368656D01*
X229546D01*
X229046Y368157D01*
Y367657D01*
X229546Y367157D01*
X230045D01*
X229546D01*
X229046Y366657D01*
Y366157D01*
X229546Y365657D01*
X230545D01*
X231045Y366157D01*
X214500Y401957D02*
Y398957D01*
X213000D01*
X212501Y399457D01*
Y401457D01*
X213000Y401957D01*
X214500D01*
X209502Y398957D02*
X211501D01*
X209502Y400957D01*
Y401457D01*
X210001Y401957D01*
X211001D01*
X211501Y401457D01*
X202046Y324903D02*
X202546Y325403D01*
X203546D01*
X204046Y324903D01*
Y322904D01*
X203546Y322404D01*
X202546D01*
X202046Y322904D01*
X199547Y322404D02*
Y325403D01*
X201047Y323903D01*
X199047D01*
X204401Y416257D02*
X204901Y416756D01*
X205900D01*
X206400Y416257D01*
Y414257D01*
X205900Y413758D01*
X204901D01*
X204401Y414257D01*
X201402Y413758D02*
X203401D01*
X201402Y415757D01*
Y416257D01*
X201901Y416756D01*
X202901D01*
X203401Y416257D01*
X204133Y370657D02*
X204633Y371157D01*
X205632D01*
X206132Y370657D01*
Y368657D01*
X205632Y368158D01*
X204633D01*
X204133Y368657D01*
X203133Y368158D02*
X202133D01*
X202633D01*
Y371157D01*
X203133Y370657D01*
X207700Y472900D02*
Y475899D01*
X206201D01*
X205701Y475399D01*
Y474400D01*
X206201Y473900D01*
X207700D01*
X206700D02*
X205701Y472900D01*
X204701D02*
X203701D01*
X204201D01*
Y475899D01*
X204701Y475399D01*
X200202Y475899D02*
X202202D01*
Y474400D01*
X201202Y474899D01*
X200702D01*
X200202Y474400D01*
Y473400D01*
X200702Y472900D01*
X201702D01*
X202202Y473400D01*
X205685Y454095D02*
Y457094D01*
X204186D01*
X203686Y456595D01*
Y455595D01*
X204186Y455095D01*
X205685D01*
X204685D02*
X203686Y454095D01*
X202686D02*
X201686D01*
X202186D01*
Y457094D01*
X202686Y456595D01*
X198687Y454095D02*
Y457094D01*
X200187Y455595D01*
X198187D01*
X225900Y476400D02*
Y479399D01*
X224400D01*
X223901Y478899D01*
Y477900D01*
X224400Y477400D01*
X225900D01*
X224900D02*
X223901Y476400D01*
X222901Y479399D02*
X220902D01*
Y478899D01*
X222901Y476900D01*
Y476400D01*
X244101Y389557D02*
X245100D01*
X244601D01*
Y387057D01*
X245100Y386558D01*
X245600D01*
X246100Y387057D01*
X241601Y386558D02*
Y389557D01*
X243101Y388057D01*
X241102D01*
X219357Y456199D02*
Y453200D01*
X217858D01*
X217358Y453700D01*
Y455699D01*
X217858Y456199D01*
X219357D01*
X216358Y453200D02*
X215359D01*
X215859D01*
Y456199D01*
X216358Y455699D01*
X203501Y467899D02*
X204000Y468399D01*
X205000D01*
X205500Y467899D01*
Y465900D01*
X205000Y465400D01*
X204000D01*
X203501Y465900D01*
X202501Y467899D02*
X202001Y468399D01*
X201001D01*
X200502Y467899D01*
Y467399D01*
X201001Y466899D01*
X201501D01*
X201001D01*
X200502Y466400D01*
Y465900D01*
X201001Y465400D01*
X202001D01*
X202501Y465900D01*
D12*
X136000Y222100D02*
Y261600D01*
X136500Y221600D02*
X165000D01*
X166000Y222600D01*
Y261600D01*
X136000D02*
X166000D01*
X136000Y268100D02*
Y307600D01*
X136500Y267600D02*
X165000D01*
X166000Y268600D01*
Y307600D01*
X136000D02*
X166000D01*
X136000Y315100D02*
Y354600D01*
X136500Y314600D02*
X165000D01*
X166000Y315600D01*
Y354600D01*
X136000D02*
X166000D01*
X136000Y360000D02*
Y399500D01*
X136500Y359500D02*
X165000D01*
X166000Y360500D01*
Y399500D01*
X136000D02*
X166000D01*
X136000Y405400D02*
Y444900D01*
X136500Y404900D02*
X165000D01*
X166000Y405900D01*
Y444900D01*
X136000D02*
X166000D01*
X136000Y490500D02*
X166000D01*
Y451500D02*
Y490500D01*
X165000Y450500D02*
X166000Y451500D01*
X136500Y450500D02*
X165000D01*
X136000Y451000D02*
X136500Y450500D01*
X136000Y451000D02*
Y490500D01*
D13*
X132000Y480184D02*
X129334D01*
X130667Y481517D02*
Y478852D01*
X131684Y467999D02*
X132184Y467499D01*
Y466500D01*
X131684Y466000D01*
X129685D01*
X129185Y466500D01*
Y467499D01*
X129685Y467999D01*
X132184Y468999D02*
Y470998D01*
Y469999D01*
X129185D01*
Y471998D02*
Y472998D01*
Y472498D01*
X132184D01*
X131684Y471998D01*
X130499Y458000D02*
Y460666D01*
X132684Y421499D02*
X133184Y420999D01*
Y420000D01*
X132684Y419500D01*
X130685D01*
X130185Y420000D01*
Y420999D01*
X130685Y421499D01*
X133184Y422499D02*
Y424498D01*
Y423499D01*
X130185D01*
Y427497D02*
Y425498D01*
X132184Y427497D01*
X132684D01*
X133184Y426998D01*
Y425998D01*
X132684Y425498D01*
X132500Y434684D02*
X129834D01*
X131167Y436017D02*
Y433352D01*
X130999Y411085D02*
Y413751D01*
X132500Y390499D02*
X129834D01*
X131167Y391832D02*
Y389166D01*
X132184Y378318D02*
X132684Y377818D01*
Y376819D01*
X132184Y376319D01*
X130185D01*
X129685Y376819D01*
Y377818D01*
X130185Y378318D01*
X132684Y379318D02*
Y381317D01*
Y380318D01*
X129685D01*
X132184Y382317D02*
X132684Y382817D01*
Y383817D01*
X132184Y384316D01*
X131684D01*
X131185Y383817D01*
Y383317D01*
Y383817D01*
X130685Y384316D01*
X130185D01*
X129685Y383817D01*
Y382817D01*
X130185Y382317D01*
X131499Y368819D02*
Y371485D01*
X133184Y331976D02*
X133684Y331476D01*
Y330476D01*
X133184Y329976D01*
X131185D01*
X130685Y330476D01*
Y331476D01*
X131185Y331976D01*
X133684Y332975D02*
Y334975D01*
Y333975D01*
X130685D01*
Y337474D02*
X133684D01*
X132185Y335974D01*
Y337974D01*
X133500Y344503D02*
X130834D01*
X132167Y345836D02*
Y343170D01*
X131999Y323134D02*
Y325800D01*
X131184Y284818D02*
X131684Y284318D01*
Y283319D01*
X131184Y282819D01*
X129185D01*
X128685Y283319D01*
Y284318D01*
X129185Y284818D01*
X131684Y285818D02*
Y287817D01*
Y286818D01*
X128685D01*
X131684Y290816D02*
Y288817D01*
X130185D01*
X130684Y289817D01*
Y290317D01*
X130185Y290816D01*
X129185D01*
X128685Y290317D01*
Y289317D01*
X129185Y288817D01*
X132000Y298003D02*
X129334D01*
X130667Y299336D02*
Y296670D01*
X130499Y274976D02*
Y277642D01*
X131184Y240318D02*
X131684Y239818D01*
Y238819D01*
X131184Y238319D01*
X129185D01*
X128685Y238819D01*
Y239818D01*
X129185Y240318D01*
X131684Y241318D02*
Y243317D01*
Y242318D01*
X128685D01*
X131684Y246316D02*
X131184Y245317D01*
X130185Y244317D01*
X129185D01*
X128685Y244817D01*
Y245816D01*
X129185Y246316D01*
X129685D01*
X130185Y245816D01*
Y244317D01*
X132000Y251503D02*
X129334D01*
X130667Y252836D02*
Y250170D01*
X130499Y230476D02*
Y233142D01*
D44*
X249885Y288500D02*
X256970D01*
X249885D02*
Y285464D01*
X250223Y284451D01*
X250560Y284114D01*
X251235Y283777D01*
X251909D01*
X252584Y284114D01*
X252922Y284451D01*
X253259Y285464D01*
Y288500D01*
Y286138D02*
X256970Y283777D01*
X254271Y282191D02*
Y278142D01*
X253596D01*
X252922Y278480D01*
X252584Y278817D01*
X252247Y279492D01*
Y280504D01*
X252584Y281179D01*
X253259Y281854D01*
X254271Y282191D01*
X254946D01*
X255958Y281854D01*
X256633Y281179D01*
X256970Y280504D01*
Y279492D01*
X256633Y278817D01*
X255958Y278142D01*
X252247Y276624D02*
X256970Y274600D01*
X252247Y272575D02*
X256970Y274600D01*
X251235Y271428D02*
X250897Y270754D01*
X249885Y269741D01*
X256970D01*
X256295Y265895D02*
X256633Y266233D01*
X256970Y265895D01*
X256633Y265558D01*
X256295Y265895D01*
X249885Y261982D02*
X250223Y262994D01*
X251235Y263668D01*
X252922Y264006D01*
X253934D01*
X255621Y263668D01*
X256633Y262994D01*
X256970Y261982D01*
Y261307D01*
X256633Y260295D01*
X255621Y259620D01*
X253934Y259282D01*
X252922D01*
X251235Y259620D01*
X250223Y260295D01*
X249885Y261307D01*
Y261982D01*
X119747Y390000D02*
X124470Y388650D01*
X119747Y387301D02*
X124470Y388650D01*
X119747Y387301D02*
X124470Y385951D01*
X119747Y384602D02*
X124470Y385951D01*
X119747Y382949D02*
X124470Y381599D01*
X119747Y380250D02*
X124470Y381599D01*
X119747Y380250D02*
X124470Y378900D01*
X119747Y377551D02*
X124470Y378900D01*
X119747Y375897D02*
X124470Y374548D01*
X119747Y373198D02*
X124470Y374548D01*
X119747Y373198D02*
X124470Y371849D01*
X119747Y370499D02*
X124470Y371849D01*
X123795Y368509D02*
X124133Y368846D01*
X124470Y368509D01*
X124133Y368171D01*
X123795Y368509D01*
X117385Y366619D02*
X124470D01*
X119747Y363245D02*
X123121Y366619D01*
X121771Y365270D02*
X124470Y362908D01*
X119747Y361795D02*
X123121D01*
X124133Y361457D01*
X124470Y360782D01*
Y359770D01*
X124133Y359096D01*
X123121Y358083D01*
X119747D02*
X124470D01*
X119747Y356228D02*
X124470D01*
X121096D02*
X120084Y355216D01*
X119747Y354541D01*
Y353529D01*
X120084Y352854D01*
X121096Y352517D01*
X124470D01*
X121096D02*
X120084Y351504D01*
X119747Y350830D01*
Y349817D01*
X120084Y349143D01*
X121096Y348805D01*
X124470D01*
X119747Y346579D02*
X124470Y344554D01*
X119747Y342530D02*
X124470Y344554D01*
X119747Y337334D02*
X124470D01*
X120759D02*
X120084Y338009D01*
X119747Y338684D01*
Y339696D01*
X120084Y340371D01*
X120759Y341045D01*
X121771Y341383D01*
X122446D01*
X123458Y341045D01*
X124133Y340371D01*
X124470Y339696D01*
Y338684D01*
X124133Y338009D01*
X123458Y337334D01*
X123795Y335107D02*
X124133Y335445D01*
X124470Y335107D01*
X124133Y334770D01*
X123795Y335107D01*
X117385Y332543D02*
X117723Y332206D01*
X117385Y331869D01*
X117048Y332206D01*
X117385Y332543D01*
X119747Y332206D02*
X124470D01*
X119747Y328933D02*
X120084Y329608D01*
X120759Y330283D01*
X121771Y330620D01*
X122446D01*
X123458Y330283D01*
X124133Y329608D01*
X124470Y328933D01*
Y327921D01*
X124133Y327246D01*
X123458Y326572D01*
X122446Y326234D01*
X121771D01*
X120759Y326572D01*
X120084Y327246D01*
X119747Y327921D01*
Y328933D01*
D45*
X107066Y456500D02*
X112970D01*
X107066Y452564D02*
X111002Y456500D01*
X109596Y455094D02*
X112970Y452564D01*
X109034Y451242D02*
X111846D01*
X112689Y450961D01*
X112970Y450399D01*
Y449555D01*
X112689Y448993D01*
X111846Y448150D01*
X109034D02*
X112970D01*
X109034Y446603D02*
X112970D01*
X110159D02*
X109315Y445760D01*
X109034Y445198D01*
Y444354D01*
X109315Y443792D01*
X110159Y443511D01*
X112970D01*
X110159D02*
X109315Y442667D01*
X109034Y442105D01*
Y441261D01*
X109315Y440699D01*
X110159Y440418D01*
X112970D01*
X109034Y438562D02*
X112970Y436875D01*
X109034Y435188D02*
X112970Y436875D01*
X109034Y430859D02*
X112970D01*
X109878D02*
X109315Y431421D01*
X109034Y431983D01*
Y432827D01*
X109315Y433389D01*
X109878Y433951D01*
X110721Y434233D01*
X111283D01*
X112127Y433951D01*
X112689Y433389D01*
X112970Y432827D01*
Y431983D01*
X112689Y431421D01*
X112127Y430859D01*
X107066Y424645D02*
X112970D01*
X107066D02*
Y422115D01*
X107347Y421271D01*
X107628Y420990D01*
X108191Y420709D01*
X108753D01*
X109315Y420990D01*
X109596Y421271D01*
X109878Y422115D01*
Y424645D01*
Y422677D02*
X112970Y420709D01*
X107066Y419388D02*
X112970D01*
X107066D02*
X112970Y417138D01*
X107066Y414889D02*
X112970Y417138D01*
X107066Y414889D02*
X112970D01*
X107910Y409266D02*
X107347Y409828D01*
X107066Y410672D01*
Y411796D01*
X107347Y412640D01*
X107910Y413202D01*
X108472D01*
X109034Y412921D01*
X109315Y412640D01*
X109596Y412078D01*
X110159Y410391D01*
X110440Y409828D01*
X110721Y409547D01*
X111283Y409266D01*
X112127D01*
X112689Y409828D01*
X112970Y410672D01*
Y411796D01*
X112689Y412640D01*
X112127Y413202D01*
X110440Y403306D02*
Y398245D01*
X110159Y391863D02*
Y389332D01*
X109878Y388489D01*
X109596Y388208D01*
X109034Y387926D01*
X108191D01*
X107628Y388208D01*
X107347Y388489D01*
X107066Y389332D01*
Y391863D01*
X112970D01*
X109034Y385199D02*
X109315Y385761D01*
X109878Y386324D01*
X110721Y386605D01*
X111283D01*
X112127Y386324D01*
X112689Y385761D01*
X112970Y385199D01*
Y384356D01*
X112689Y383793D01*
X112127Y383231D01*
X111283Y382950D01*
X110721D01*
X109878Y383231D01*
X109315Y383793D01*
X109034Y384356D01*
Y385199D01*
Y381657D02*
X112970Y380532D01*
X109034Y379407D02*
X112970Y380532D01*
X109034Y379407D02*
X112970Y378283D01*
X109034Y377158D02*
X112970Y378283D01*
X110721Y375781D02*
Y372407D01*
X110159D01*
X109596Y372688D01*
X109315Y372969D01*
X109034Y373531D01*
Y374375D01*
X109315Y374937D01*
X109878Y375499D01*
X110721Y375781D01*
X111283D01*
X112127Y375499D01*
X112689Y374937D01*
X112970Y374375D01*
Y373531D01*
X112689Y372969D01*
X112127Y372407D01*
X109034Y371142D02*
X112970D01*
X110721D02*
X109878Y370860D01*
X109315Y370298D01*
X109034Y369736D01*
Y368892D01*
X107066Y363719D02*
X112970D01*
X107066D02*
X112970Y361470D01*
X107066Y359221D02*
X112970Y361470D01*
X107066Y359221D02*
X112970D01*
X109034Y356128D02*
X109315Y356690D01*
X109878Y357252D01*
X110721Y357534D01*
X111283D01*
X112127Y357252D01*
X112689Y356690D01*
X112970Y356128D01*
Y355284D01*
X112689Y354722D01*
X112127Y354160D01*
X111283Y353879D01*
X110721D01*
X109878Y354160D01*
X109315Y354722D01*
X109034Y355284D01*
Y356128D01*
Y352585D02*
X112970D01*
X110159D02*
X109315Y351742D01*
X109034Y351180D01*
Y350336D01*
X109315Y349774D01*
X110159Y349493D01*
X112970D01*
X107066Y347384D02*
X107347Y347103D01*
X107066Y346822D01*
X106785Y347103D01*
X107066Y347384D01*
X109034Y347103D02*
X112970D01*
X107066Y344938D02*
X111846D01*
X112689Y344657D01*
X112970Y344094D01*
Y343532D01*
X109034Y345781D02*
Y343813D01*
Y341283D02*
X109315Y341845D01*
X109878Y342407D01*
X110721Y342689D01*
X111283D01*
X112127Y342407D01*
X112689Y341845D01*
X112970Y341283D01*
Y340439D01*
X112689Y339877D01*
X112127Y339315D01*
X111283Y339034D01*
X110721D01*
X109878Y339315D01*
X109315Y339877D01*
X109034Y340439D01*
Y341283D01*
Y337740D02*
X112970D01*
X110721D02*
X109878Y337459D01*
X109315Y336897D01*
X109034Y336334D01*
Y335491D01*
X107066Y334395D02*
X107347Y334113D01*
X107066Y333832D01*
X106785Y334113D01*
X107066Y334395D01*
X109034Y334113D02*
X112970D01*
X109034Y332792D02*
X112970D01*
X110159D02*
X109315Y331948D01*
X109034Y331386D01*
Y330543D01*
X109315Y329980D01*
X110159Y329699D01*
X112970D01*
X109034Y324779D02*
X113533D01*
X114376Y325060D01*
X114657Y325341D01*
X114938Y325904D01*
Y326747D01*
X114657Y327309D01*
X109878Y324779D02*
X109315Y325341D01*
X109034Y325904D01*
Y326747D01*
X109315Y327309D01*
X109878Y327872D01*
X110721Y328153D01*
X111283D01*
X112127Y327872D01*
X112689Y327309D01*
X112970Y326747D01*
Y325904D01*
X112689Y325341D01*
X112127Y324779D01*
X107066Y318566D02*
X112970D01*
X107066D02*
Y316035D01*
X107347Y315192D01*
X107628Y314911D01*
X108191Y314629D01*
X108753D01*
X109315Y314911D01*
X109596Y315192D01*
X109878Y316035D01*
Y318566D02*
Y316035D01*
X110159Y315192D01*
X110440Y314911D01*
X111002Y314629D01*
X111846D01*
X112408Y314911D01*
X112689Y315192D01*
X112970Y316035D01*
Y318566D01*
X109034Y313308D02*
X112970D01*
X110721D02*
X109878Y313027D01*
X109315Y312464D01*
X109034Y311902D01*
Y311059D01*
X110721Y310525D02*
Y307151D01*
X110159D01*
X109596Y307432D01*
X109315Y307713D01*
X109034Y308275D01*
Y309119D01*
X109315Y309681D01*
X109878Y310243D01*
X110721Y310525D01*
X111283D01*
X112127Y310243D01*
X112689Y309681D01*
X112970Y309119D01*
Y308275D01*
X112689Y307713D01*
X112127Y307151D01*
X109034Y302512D02*
X112970D01*
X109878D02*
X109315Y303074D01*
X109034Y303636D01*
Y304480D01*
X109315Y305042D01*
X109878Y305604D01*
X110721Y305886D01*
X111283D01*
X112127Y305604D01*
X112689Y305042D01*
X112970Y304480D01*
Y303636D01*
X112689Y303074D01*
X112127Y302512D01*
X107066Y300937D02*
X112970D01*
X109034Y298126D02*
X111846Y300937D01*
X110721Y299813D02*
X112970Y297845D01*
X109034Y295511D02*
X109315Y296073D01*
X109878Y296636D01*
X110721Y296917D01*
X111283D01*
X112127Y296636D01*
X112689Y296073D01*
X112970Y295511D01*
Y294667D01*
X112689Y294105D01*
X112127Y293543D01*
X111283Y293262D01*
X110721D01*
X109878Y293543D01*
X109315Y294105D01*
X109034Y294667D01*
Y295511D01*
Y291968D02*
X111846D01*
X112689Y291687D01*
X112970Y291125D01*
Y290281D01*
X112689Y289719D01*
X111846Y288876D01*
X109034D02*
X112970D01*
X107066Y286486D02*
X111846D01*
X112689Y286205D01*
X112970Y285642D01*
Y285080D01*
X109034Y287329D02*
Y285361D01*
X107066Y279598D02*
X112970D01*
X107066D02*
Y277067D01*
X107347Y276224D01*
X107628Y275942D01*
X108191Y275661D01*
X108753D01*
X109315Y275942D01*
X109596Y276224D01*
X109878Y277067D01*
Y279598D02*
Y277067D01*
X110159Y276224D01*
X110440Y275942D01*
X111002Y275661D01*
X111846D01*
X112408Y275942D01*
X112689Y276224D01*
X112970Y277067D01*
Y279598D01*
X109034Y272934D02*
X109315Y273497D01*
X109878Y274059D01*
X110721Y274340D01*
X111283D01*
X112127Y274059D01*
X112689Y273497D01*
X112970Y272934D01*
Y272091D01*
X112689Y271528D01*
X112127Y270966D01*
X111283Y270685D01*
X110721D01*
X109878Y270966D01*
X109315Y271528D01*
X109034Y272091D01*
Y272934D01*
Y266018D02*
X112970D01*
X109878D02*
X109315Y266580D01*
X109034Y267142D01*
Y267986D01*
X109315Y268548D01*
X109878Y269110D01*
X110721Y269392D01*
X111283D01*
X112127Y269110D01*
X112689Y268548D01*
X112970Y267986D01*
Y267142D01*
X112689Y266580D01*
X112127Y266018D01*
X109034Y264443D02*
X112970D01*
X110721D02*
X109878Y264162D01*
X109315Y263600D01*
X109034Y263038D01*
Y262194D01*
X107066Y258286D02*
X112970D01*
X109878D02*
X109315Y258848D01*
X109034Y259411D01*
Y260254D01*
X109315Y260816D01*
X109878Y261379D01*
X110721Y261660D01*
X111283D01*
X112127Y261379D01*
X112689Y260816D01*
X112970Y260254D01*
Y259411D01*
X112689Y258848D01*
X112127Y258286D01*
M02*
