G04*
G04 #@! TF.GenerationSoftware,Altium Limited,Altium Designer,18.1.7 (191)*
G04*
G04 Layer_Color=16711935*
%FSLAX25Y25*%
%MOIN*%
G70*
G01*
G75*
%ADD14R,0.03556X0.04343*%
%ADD17R,0.04343X0.03556*%
%ADD18R,0.04343X0.03950*%
%ADD21C,0.16548*%
%ADD22C,0.06312*%
%ADD23C,0.09068*%
%ADD24R,0.09068X0.09068*%
%ADD25C,0.07296*%
%ADD26R,0.07296X0.07296*%
%ADD27C,0.05800*%
%ADD46R,0.03950X0.04343*%
D14*
X153047Y364000D02*
D03*
X158953D02*
D03*
X158953Y375000D02*
D03*
X153047D02*
D03*
D17*
X170681Y483295D02*
D03*
Y477390D02*
D03*
X176819Y477547D02*
D03*
Y483453D02*
D03*
X180000Y355547D02*
D03*
Y361453D02*
D03*
X173000Y361453D02*
D03*
Y355547D02*
D03*
D18*
X164181Y482756D02*
D03*
Y477244D02*
D03*
X187803Y355744D02*
D03*
Y361256D02*
D03*
D21*
X266500Y328400D02*
D03*
Y484000D02*
D03*
D22*
X156000Y342500D02*
D03*
X196000D02*
D03*
X155500Y355658D02*
D03*
X195500D02*
D03*
X150681Y386000D02*
D03*
X190681D02*
D03*
X157000Y430000D02*
D03*
X197000D02*
D03*
X148000Y477256D02*
D03*
X188000D02*
D03*
X150216Y397000D02*
D03*
X190217D02*
D03*
X157000Y442130D02*
D03*
X197000D02*
D03*
X148000Y467500D02*
D03*
X188000D02*
D03*
D23*
X123000Y331157D02*
D03*
D24*
Y350842D02*
D03*
D25*
X125000Y442315D02*
D03*
Y462000D02*
D03*
Y396500D02*
D03*
Y376815D02*
D03*
D26*
Y481685D02*
D03*
Y416185D02*
D03*
D27*
X252000Y415500D02*
D03*
X169000Y416547D02*
D03*
X156000Y411000D02*
D03*
X145500Y377000D02*
D03*
X203500Y467000D02*
D03*
X261000Y419500D02*
D03*
X182500Y418500D02*
D03*
X270500Y382500D02*
D03*
X235500Y379500D02*
D03*
X214000Y347500D02*
D03*
D46*
X153294Y369500D02*
D03*
X158806D02*
D03*
M02*
