G04*
G04 #@! TF.GenerationSoftware,Altium Limited,Altium Designer,18.1.7 (191)*
G04*
G04 Layer_Color=16711935*
%FSLAX25Y25*%
%MOIN*%
G70*
G01*
G75*
%ADD10C,0.00787*%
%ADD11C,0.00800*%
%ADD13C,0.00500*%
%ADD47C,0.00394*%
D10*
X123394Y363047D02*
X122606D01*
X123394D01*
X258831Y417386D02*
X258043D01*
X258831D01*
D11*
X125984Y494480D02*
X125492Y495333D01*
X124508D01*
X124016Y494480D01*
X124508Y493628D01*
X125492D01*
X125984Y494480D01*
Y428980D02*
X125492Y429833D01*
X124508D01*
X124016Y428980D01*
X124508Y428128D01*
X125492D01*
X125984Y428980D01*
D13*
X109221Y360685D02*
X138748D01*
X109221Y321315D02*
Y360685D01*
Y321315D02*
X138748D01*
Y360685D01*
X139173Y432472D02*
Y491528D01*
X108858D02*
X141142D01*
X108858Y432472D02*
Y491528D01*
Y432472D02*
X139173D01*
X141142D01*
Y491528D01*
X272709Y388252D02*
Y419748D01*
X261291Y388252D02*
X272709D01*
X261291D02*
Y419748D01*
X272709D01*
X141142Y366972D02*
Y426028D01*
X139173Y366972D02*
X141142D01*
X108858D02*
X139173D01*
X108858D02*
Y426028D01*
X141142D01*
X139173Y366972D02*
Y426028D01*
D47*
X164701Y364717D02*
X171394D01*
X164701Y368457D02*
X171394D01*
Y364717D02*
Y368457D01*
X164701Y364717D02*
Y368457D01*
X162311Y483445D02*
X166051D01*
X162311Y476555D02*
X166051D01*
X162311D02*
Y483445D01*
X166051Y476555D02*
Y483445D01*
X168811Y483689D02*
X172551D01*
X168811Y476996D02*
X172551D01*
X168811D02*
Y483689D01*
X172551Y476996D02*
Y483689D01*
X174949Y477153D02*
X178689D01*
X174949Y483847D02*
X178689D01*
Y477153D02*
Y483847D01*
X174949Y477153D02*
Y483847D01*
X168154Y484630D02*
Y488370D01*
X174846Y484630D02*
Y488370D01*
X168154D02*
X174846D01*
X168154Y484630D02*
X174846D01*
X174653Y408630D02*
X181346D01*
X174653Y412370D02*
X181346D01*
Y408630D02*
Y412370D01*
X174653Y408630D02*
Y412370D01*
X160130Y416153D02*
Y422847D01*
X163870Y416153D02*
Y422847D01*
X160130Y416153D02*
X163870D01*
X160130Y422847D02*
X163870D01*
X151870Y416185D02*
Y423075D01*
X148130Y416185D02*
Y423075D01*
X151870D01*
X148130Y416185D02*
X151870D01*
X157961Y416153D02*
Y422847D01*
X154220Y416153D02*
Y422847D01*
X157961D01*
X154220Y416153D02*
X157961D01*
X156653Y449630D02*
X163347D01*
X156653Y453370D02*
X163347D01*
Y449630D02*
Y453370D01*
X156653Y449630D02*
Y453370D01*
X181870Y355153D02*
Y361846D01*
X178130Y355153D02*
Y361846D01*
Y355153D02*
X181870D01*
X178130Y361846D02*
X181870D01*
X171130Y355153D02*
Y361846D01*
X174870Y355153D02*
Y361846D01*
X171130D02*
X174870D01*
X171130Y355153D02*
X174870D01*
X152654Y362130D02*
X159346D01*
X152654Y365870D02*
X159346D01*
X152654Y362130D02*
Y365870D01*
X159346Y362130D02*
Y365870D01*
X152654Y376870D02*
X159346D01*
X152654Y373130D02*
X159346D01*
Y376870D01*
X152654Y373130D02*
Y376870D01*
X189673Y355055D02*
Y361945D01*
X185933Y355055D02*
Y361945D01*
Y355055D02*
X189673D01*
X185933Y361945D02*
X189673D01*
X152605Y367630D02*
X159495D01*
X152605Y371370D02*
X159495D01*
X152605Y367630D02*
Y371370D01*
X159495Y367630D02*
Y371370D01*
M02*
