G04*
G04 #@! TF.GenerationSoftware,Altium Limited,Altium Designer,18.1.7 (191)*
G04*
G04 Layer_Color=2752767*
%FSLAX25Y25*%
%MOIN*%
G70*
G01*
G75*
%ADD44C,0.00200*%
%ADD45C,0.00267*%
D44*
X256700Y333358D02*
Y334958D01*
X258300D01*
Y333358D01*
X256700D01*
Y323358D02*
Y324957D01*
X258300D01*
Y323358D01*
X256700D01*
X115000Y484200D02*
X114200Y485800D01*
X115800D01*
X115000Y484200D01*
X265000D02*
X264200Y485800D01*
X265800D01*
X265000Y484200D01*
Y229200D02*
X264200Y230800D01*
X265800D01*
X265000Y229200D01*
X173500Y294200D02*
X173900Y294600D01*
X174300D01*
X173900Y295000D01*
X174300Y295400D01*
X173900D01*
X173500Y295800D01*
X173100Y295400D01*
X172700D01*
X173100Y295000D01*
X172700Y294600D01*
X173100D01*
X173500Y294200D01*
X213500D02*
X213900Y294600D01*
X214300D01*
X213900Y295000D01*
X214300Y295400D01*
X213900D01*
X213500Y295800D01*
X213100Y295400D01*
X212700D01*
X213100Y295000D01*
X212700Y294600D01*
X213100D01*
X213500Y294200D01*
X174500Y230857D02*
X174900Y231258D01*
X175300D01*
X174900Y231658D01*
X175300Y232057D01*
X174900D01*
X174500Y232457D01*
X174100Y232057D01*
X173700D01*
X174100Y231658D01*
X173700Y231258D01*
X174100D01*
X174500Y230857D01*
X214500D02*
X214900Y231258D01*
X215300D01*
X214900Y231658D01*
X215300Y232057D01*
X214900D01*
X214500Y232457D01*
X214100Y232057D01*
X213700D01*
X214100Y231658D01*
X213700Y231258D01*
X214100D01*
X214500Y230857D01*
X174500Y245200D02*
X174900Y245600D01*
X175300D01*
X174900Y246000D01*
X175300Y246400D01*
X174900D01*
X174500Y246800D01*
X174100Y246400D01*
X173700D01*
X174100Y246000D01*
X173700Y245600D01*
X174100D01*
X174500Y245200D01*
X214500D02*
X214900Y245600D01*
X215300D01*
X214900Y246000D01*
X215300Y246400D01*
X214900D01*
X214500Y246800D01*
X214100Y246400D01*
X213700D01*
X214100Y246000D01*
X213700Y245600D01*
X214100D01*
X214500Y245200D01*
X115000Y229200D02*
X114200Y230800D01*
X115800D01*
X115000Y229200D01*
X173500Y277200D02*
X173900Y277600D01*
X174300D01*
X173900Y278000D01*
X174300Y278400D01*
X173900D01*
X173500Y278800D01*
X173100Y278400D01*
X172700D01*
X173100Y278000D01*
X172700Y277600D01*
X173100D01*
X173500Y277200D01*
X213500D02*
X213900Y277600D01*
X214300D01*
X213900Y278000D01*
X214300Y278400D01*
X213900D01*
X213500Y278800D01*
X213100Y278400D01*
X212700D01*
X213100Y278000D01*
X212700Y277600D01*
X213100D01*
X213500Y277200D01*
X213453Y335700D02*
X213853Y336100D01*
X214253D01*
X213853Y336500D01*
X214253Y336900D01*
X213853D01*
X213453Y337300D01*
X213053Y336900D01*
X212653D01*
X213053Y336500D01*
X212653Y336100D01*
X213053D01*
X213453Y335700D01*
X173453D02*
X173853Y336100D01*
X174253D01*
X173853Y336500D01*
X174253Y336900D01*
X173853D01*
X173453Y337300D01*
X173053Y336900D01*
X172653D01*
X173053Y336500D01*
X172653Y336100D01*
X173053D01*
X173453Y335700D01*
X213344Y323542D02*
X213744Y323942D01*
X214144D01*
X213744Y324342D01*
X214144Y324743D01*
X213744D01*
X213344Y325143D01*
X212944Y324743D01*
X212544D01*
X212944Y324342D01*
X212544Y323942D01*
X212944D01*
X213344Y323542D01*
X173344D02*
X173744Y323942D01*
X174144D01*
X173744Y324342D01*
X174144Y324743D01*
X173744D01*
X173344Y325143D01*
X172944Y324743D01*
X172544D01*
X172944Y324342D01*
X172544Y323942D01*
X172944D01*
X173344Y323542D01*
X216844Y368700D02*
X217244Y369100D01*
X217644D01*
X217244Y369500D01*
X217644Y369900D01*
X217244D01*
X216844Y370300D01*
X216444Y369900D01*
X216044D01*
X216444Y369500D01*
X216044Y369100D01*
X216444D01*
X216844Y368700D01*
X176844D02*
X177244Y369100D01*
X177644D01*
X177244Y369500D01*
X177644Y369900D01*
X177244D01*
X176844Y370300D01*
X176444Y369900D01*
X176044D01*
X176444Y369500D01*
X176044Y369100D01*
X176444D01*
X176844Y368700D01*
X214000Y424700D02*
X214400Y425100D01*
X214800D01*
X214400Y425500D01*
X214800Y425900D01*
X214400D01*
X214000Y426300D01*
X213600Y425900D01*
X213200D01*
X213600Y425500D01*
X213200Y425100D01*
X213600D01*
X214000Y424700D01*
X174000D02*
X174400Y425100D01*
X174800D01*
X174400Y425500D01*
X174800Y425900D01*
X174400D01*
X174000Y426300D01*
X173600Y425900D01*
X173200D01*
X173600Y425500D01*
X173200Y425100D01*
X173600D01*
X174000Y424700D01*
X213000Y459944D02*
X213400Y460344D01*
X213800D01*
X213400Y460744D01*
X213800Y461144D01*
X213400D01*
X213000Y461544D01*
X212600Y461144D01*
X212200D01*
X212600Y460744D01*
X212200Y460344D01*
X212600D01*
X213000Y459944D01*
X173000D02*
X173400Y460344D01*
X173800D01*
X173400Y460744D01*
X173800Y461144D01*
X173400D01*
X173000Y461544D01*
X172600Y461144D01*
X172200D01*
X172600Y460744D01*
X172200Y460344D01*
X172600D01*
X173000Y459944D01*
X216797Y379200D02*
X217197Y379600D01*
X217597D01*
X217197Y380000D01*
X217597Y380400D01*
X217197D01*
X216797Y380800D01*
X216397Y380400D01*
X215997D01*
X216397Y380000D01*
X215997Y379600D01*
X216397D01*
X216797Y379200D01*
X176797D02*
X177197Y379600D01*
X177597D01*
X177197Y380000D01*
X177597Y380400D01*
X177197D01*
X176797Y380800D01*
X176397Y380400D01*
X175997D01*
X176397Y380000D01*
X175997Y379600D01*
X176397D01*
X176797Y379200D01*
X214158Y414070D02*
X214558Y414470D01*
X214957D01*
X214558Y414870D01*
X214957Y415270D01*
X214558D01*
X214158Y415670D01*
X213757Y415270D01*
X213357D01*
X213757Y414870D01*
X213357Y414470D01*
X213757D01*
X214158Y414070D01*
X174158D02*
X174557Y414470D01*
X174958D01*
X174557Y414870D01*
X174958Y415270D01*
X174557D01*
X174158Y415670D01*
X173758Y415270D01*
X173357D01*
X173758Y414870D01*
X173357Y414470D01*
X173758D01*
X174158Y414070D01*
X213000Y472200D02*
X213400Y472600D01*
X213800D01*
X213400Y473000D01*
X213800Y473400D01*
X213400D01*
X213000Y473800D01*
X212600Y473400D01*
X212200D01*
X212600Y473000D01*
X212200Y472600D01*
X212600D01*
X213000Y472200D01*
X173000D02*
X173400Y472600D01*
X173800D01*
X173400Y473000D01*
X173800Y473400D01*
X173400D01*
X173000Y473800D01*
X172600Y473400D01*
X172200D01*
X172600Y473000D01*
X172200Y472600D01*
X172600D01*
X173000Y472200D01*
X245700Y345700D02*
X246100Y346500D01*
X245700Y347300D01*
X246500Y346900D01*
X247300Y347300D01*
X246900Y346500D01*
X247300Y345700D01*
X246500Y346100D01*
X245700Y345700D01*
X195200Y222200D02*
X195600Y223000D01*
X195200Y223800D01*
X196000Y223400D01*
X196800Y223800D01*
X196400Y223000D01*
X196800Y222200D01*
X196000Y222600D01*
X195200Y222200D01*
X193200Y270700D02*
X193600Y271500D01*
X193200Y272300D01*
X194000Y271900D01*
X194800Y272300D01*
X194400Y271500D01*
X194800Y270700D01*
X194000Y271100D01*
X193200Y270700D01*
X194200Y315700D02*
X194600Y316500D01*
X194200Y317300D01*
X195000Y316900D01*
X195800Y317300D01*
X195400Y316500D01*
X195800Y315700D01*
X195000Y316100D01*
X194200Y315700D01*
X191700Y360700D02*
X192100Y361500D01*
X191700Y362300D01*
X192500Y361900D01*
X193300Y362300D01*
X192900Y361500D01*
X193300Y360700D01*
X192500Y361100D01*
X191700Y360700D01*
X195456Y407700D02*
X195856Y408500D01*
X195456Y409300D01*
X196256Y408900D01*
X197056Y409300D01*
X196656Y408500D01*
X197056Y407700D01*
X196256Y408100D01*
X195456Y407700D01*
X193200Y452200D02*
X193600Y453000D01*
X193200Y453800D01*
X194000Y453400D01*
X194800Y453800D01*
X194400Y453000D01*
X194800Y452200D01*
X194000Y452600D01*
X193200Y452200D01*
X195653Y480747D02*
X196053Y481547D01*
X195653Y482347D01*
X196453Y481947D01*
X197253Y482347D01*
X196853Y481547D01*
X197253Y480747D01*
X196453Y481147D01*
X195653Y480747D01*
X197106Y389700D02*
X197505Y390500D01*
X197106Y391300D01*
X197906Y390900D01*
X198705Y391300D01*
X198305Y390500D01*
X198705Y389700D01*
X197906Y390100D01*
X197106Y389700D01*
X195200Y345200D02*
X195600Y346000D01*
X195200Y346800D01*
X196000Y346400D01*
X196800Y346800D01*
X196400Y346000D01*
X196800Y345200D01*
X196000Y345600D01*
X195200Y345200D01*
X194653Y299700D02*
X195053Y300500D01*
X194653Y301300D01*
X195453Y300900D01*
X196253Y301300D01*
X195853Y300500D01*
X196253Y299700D01*
X195453Y300100D01*
X194653Y299700D01*
X195200Y255200D02*
X195600Y256000D01*
X195200Y256800D01*
X196000Y256400D01*
X196800Y256800D01*
X196400Y256000D01*
X196800Y255200D01*
X196000Y255600D01*
X195200Y255200D01*
X196653Y435200D02*
X197053Y436000D01*
X196653Y436800D01*
X197453Y436400D01*
X198253Y436800D01*
X197853Y436000D01*
X198253Y435200D01*
X197453Y435600D01*
X196653Y435200D01*
D45*
X150800Y460658D02*
X150247Y461418D01*
X149353Y461128D01*
Y460187D01*
X150247Y459897D01*
X150800Y460658D01*
Y480342D02*
X150247Y481103D01*
X149353Y480813D01*
Y479872D01*
X150247Y479582D01*
X150800Y480342D01*
Y415158D02*
X150247Y415918D01*
X149353Y415628D01*
Y414687D01*
X150247Y414397D01*
X150800Y415158D01*
Y434842D02*
X150247Y435603D01*
X149353Y435313D01*
Y434372D01*
X150247Y434082D01*
X150800Y434842D01*
Y297342D02*
X150247Y298103D01*
X149353Y297813D01*
Y296872D01*
X150247Y296582D01*
X150800Y297342D01*
Y277658D02*
X150247Y278418D01*
X149353Y278128D01*
Y277187D01*
X150247Y276897D01*
X150800Y277658D01*
Y251343D02*
X150247Y252103D01*
X149353Y251813D01*
Y250872D01*
X150247Y250582D01*
X150800Y251343D01*
Y231658D02*
X150247Y232418D01*
X149353Y232128D01*
Y231187D01*
X150247Y230897D01*
X150800Y231658D01*
Y389342D02*
X150247Y390103D01*
X149353Y389813D01*
Y388872D01*
X150247Y388582D01*
X150800Y389342D01*
Y369657D02*
X150247Y370418D01*
X149353Y370128D01*
Y369187D01*
X150247Y368897D01*
X150800Y369657D01*
Y324658D02*
X150247Y325418D01*
X149353Y325128D01*
Y324187D01*
X150247Y323897D01*
X150800Y324658D01*
Y344342D02*
X150247Y345103D01*
X149353Y344813D01*
Y343872D01*
X150247Y343582D01*
X150800Y344342D01*
M02*
