G04*
G04 #@! TF.GenerationSoftware,Altium Limited,Altium Designer,18.1.7 (191)*
G04*
G04 Layer_Color=32768*
%FSLAX25Y25*%
%MOIN*%
G70*
G01*
G75*
%ADD42C,0.00394*%
%ADD43C,0.00197*%
D42*
X263835Y331894D02*
X268165D01*
X263835Y322445D02*
X268165D01*
X263835D02*
Y331894D01*
X268165Y322445D02*
Y331894D01*
X266000Y325299D02*
Y329039D01*
X264130Y327169D02*
X267870D01*
X197224Y283835D02*
Y288165D01*
X187776Y283835D02*
Y288165D01*
X197224D01*
X187776Y283835D02*
X197224D01*
X190630Y286000D02*
X194370D01*
X192500Y284130D02*
Y287870D01*
X187776Y290335D02*
Y294665D01*
X197224Y290335D02*
Y294665D01*
X187776Y290335D02*
X197224D01*
X187776Y294665D02*
X197224D01*
X190630Y292500D02*
X194370D01*
X192500Y290630D02*
Y294370D01*
X197224Y276335D02*
Y280665D01*
X187776Y276335D02*
Y280665D01*
X197224D01*
X187776Y276335D02*
X197224D01*
X190630Y278500D02*
X194370D01*
X192500Y276630D02*
Y280370D01*
X188276Y246835D02*
Y251165D01*
X197724Y246835D02*
Y251165D01*
X188276Y246835D02*
X197724D01*
X188276Y251165D02*
X197724D01*
X191130Y249000D02*
X194870D01*
X193000Y247130D02*
Y250870D01*
X197724Y238335D02*
Y242665D01*
X188276Y238335D02*
Y242665D01*
X197724D01*
X188276Y238335D02*
X197724D01*
X191130Y240500D02*
X194870D01*
X193000Y238630D02*
Y242370D01*
X197882Y229835D02*
Y234165D01*
X188433Y229835D02*
Y234165D01*
X197882D01*
X188433Y229835D02*
X197882D01*
X191287Y232000D02*
X195027D01*
X193157Y230130D02*
Y233870D01*
X219776Y292835D02*
Y297165D01*
X229224Y292835D02*
Y297165D01*
X219776Y292835D02*
X229224D01*
X219776Y297165D02*
X229224D01*
X222630Y295000D02*
X226370D01*
X224500Y293130D02*
Y296870D01*
X222728Y377835D02*
Y382165D01*
X232177Y377835D02*
Y382165D01*
X222728Y377835D02*
X232177D01*
X222728Y382165D02*
X232177D01*
X225583Y380000D02*
X229323D01*
X227453Y378130D02*
Y381870D01*
X220276Y243835D02*
Y248165D01*
X229724Y243835D02*
Y248165D01*
X220276Y243835D02*
X229724D01*
X220276Y248165D02*
X229724D01*
X223130Y246000D02*
X226870D01*
X225000Y244130D02*
Y247870D01*
X219323Y334248D02*
Y338579D01*
X228772Y334248D02*
Y338579D01*
X219323Y334248D02*
X228772D01*
X219323Y338579D02*
X228772D01*
X222177Y336413D02*
X225917D01*
X224047Y334543D02*
Y338283D01*
X199094Y412992D02*
Y417323D01*
X189646Y412992D02*
Y417323D01*
X199094D01*
X189646Y412992D02*
X199094D01*
X192500Y415158D02*
X196240D01*
X194370Y413287D02*
Y417028D01*
X189776Y426992D02*
Y431323D01*
X199224Y426992D02*
Y431323D01*
X189776Y426992D02*
X199224D01*
X189776Y431323D02*
X199224D01*
X192630Y429157D02*
X196370D01*
X194500Y427287D02*
Y431028D01*
X199272Y420744D02*
Y425075D01*
X189823Y420744D02*
Y425075D01*
X199272D01*
X189823Y420744D02*
X199272D01*
X192677Y422909D02*
X196417D01*
X194547Y421039D02*
Y424780D01*
X220776Y423335D02*
Y427665D01*
X230224Y423335D02*
Y427665D01*
X220776Y423335D02*
X230224D01*
X220776Y427665D02*
X230224D01*
X223630Y425500D02*
X227370D01*
X225500Y423630D02*
Y427370D01*
X223500Y471130D02*
Y474870D01*
X221630Y473000D02*
X225370D01*
X218776Y475165D02*
X228224D01*
X218776Y470835D02*
X228224D01*
Y475165D01*
X218776Y470835D02*
Y475165D01*
X198224Y465154D02*
Y469484D01*
X188776Y465154D02*
Y469484D01*
X198224D01*
X188776Y465154D02*
X198224D01*
X191630Y467319D02*
X195370D01*
X193500Y465449D02*
Y469189D01*
X198567Y458468D02*
Y462799D01*
X189118Y458468D02*
Y462799D01*
X198567D01*
X189118Y458468D02*
X198567D01*
X191972Y460634D02*
X195713D01*
X193842Y458764D02*
Y462504D01*
X188776Y472516D02*
Y476847D01*
X198224Y472516D02*
Y476847D01*
X188776Y472516D02*
X198224D01*
X188776Y476847D02*
X198224D01*
X191630Y474681D02*
X195370D01*
X193500Y472811D02*
Y476551D01*
X192795Y330130D02*
Y333870D01*
X190925Y332000D02*
X194665D01*
X188071Y329835D02*
X197520D01*
X188071Y334165D02*
X197520D01*
X188071Y329835D02*
Y334165D01*
X197520Y329835D02*
Y334165D01*
X192756Y336630D02*
Y340370D01*
X190886Y338500D02*
X194626D01*
X188031Y340665D02*
X197480D01*
X188031Y336335D02*
X197480D01*
Y340665D01*
X188031Y336335D02*
Y340665D01*
X194705Y375130D02*
Y378870D01*
X192835Y377000D02*
X196575D01*
X189980Y374835D02*
X199429D01*
X189980Y379165D02*
X199429D01*
X189980Y374835D02*
Y379165D01*
X199429Y374835D02*
Y379165D01*
X194709Y381929D02*
Y385669D01*
X192839Y383799D02*
X196579D01*
X189984Y385964D02*
X199433D01*
X189984Y381634D02*
X199433D01*
Y385964D01*
X189984Y381634D02*
Y385964D01*
X192709Y322327D02*
Y326067D01*
X190839Y324197D02*
X194579D01*
X187984Y322031D02*
X197433D01*
X187984Y326362D02*
X197433D01*
X187984Y322031D02*
Y326362D01*
X197433Y322031D02*
Y326362D01*
X194297Y367787D02*
Y371528D01*
X192427Y369657D02*
X196167D01*
X189573Y367492D02*
X199022D01*
X189573Y371823D02*
X199022D01*
X189573Y367492D02*
Y371823D01*
X199022Y367492D02*
Y371823D01*
D43*
X135236Y491169D02*
X166732D01*
X135236Y449831D02*
Y491169D01*
Y449831D02*
X166732D01*
Y491169D01*
X135236Y445669D02*
X166732D01*
X135236Y404331D02*
Y445669D01*
Y404331D02*
X166732D01*
Y445669D01*
X248020Y388465D02*
X266524D01*
Y351850D02*
Y388465D01*
X248020Y351850D02*
X266524D01*
X248020D02*
Y388465D01*
X222874Y286224D02*
X227441D01*
X222874Y276776D02*
Y286224D01*
Y276776D02*
X227441D01*
Y286224D01*
X223874Y238724D02*
X228441D01*
X223874Y229276D02*
Y238724D01*
Y229276D02*
X228441D01*
Y238724D01*
X220717Y329224D02*
X225284D01*
X220717Y319776D02*
Y329224D01*
Y319776D02*
X225284D01*
Y329224D01*
X222217Y418882D02*
X226783D01*
X222217Y409433D02*
Y418882D01*
Y409433D02*
X226783D01*
Y418882D01*
X220130Y466819D02*
X224697D01*
X220130Y457370D02*
Y466819D01*
Y457370D02*
X224697D01*
Y466819D01*
X222716Y374138D02*
X227284D01*
X222716Y364689D02*
Y374138D01*
Y364689D02*
X227284D01*
Y374138D01*
X166732Y266831D02*
Y308169D01*
X135236Y266831D02*
X166732D01*
X135236D02*
Y308169D01*
X166732D01*
Y220831D02*
Y262169D01*
X135236Y220831D02*
X166732D01*
X135236D02*
Y262169D01*
X166732D01*
Y358831D02*
Y400169D01*
X135236Y358831D02*
X166732D01*
X135236D02*
Y400169D01*
X166732D01*
X135236Y355169D02*
X166732D01*
X135236Y313831D02*
Y355169D01*
Y313831D02*
X166732D01*
Y355169D01*
M02*
