G04*
G04 #@! TF.GenerationSoftware,Altium Limited,Altium Designer,18.1.7 (191)*
G04*
G04 Layer_Color=32896*
%FSLAX25Y25*%
%MOIN*%
G70*
G01*
G75*
%ADD10C,0.00787*%
%ADD11C,0.00500*%
%ADD12C,0.01000*%
%ADD13C,0.00800*%
D10*
X264457Y383543D02*
X263669D01*
X264457D01*
X225551Y288193D02*
X224764D01*
X225551D01*
X226551Y240693D02*
X225764D01*
X226551D01*
X223394Y331193D02*
X222606D01*
X223394D01*
X224894Y420850D02*
X224106D01*
X224894D01*
X222807Y468787D02*
X222020D01*
X222807D01*
X225394Y376106D02*
X224606D01*
X225394D01*
X262500Y319158D02*
Y339158D01*
X252500Y319158D02*
X262500D01*
X252500D02*
Y339158D01*
X262500D01*
X191713Y291122D02*
X193287D01*
X191713Y293878D02*
X193287D01*
X191713Y279878D02*
X193287D01*
X191713Y277122D02*
X193287D01*
X192213Y247622D02*
X193787D01*
X192213Y250378D02*
X193787D01*
X192370Y233378D02*
X193945D01*
X192370Y230622D02*
X193945D01*
X223713Y293622D02*
X225287D01*
X223713Y296378D02*
X225287D01*
X226665Y378622D02*
X228240D01*
X226665Y381378D02*
X228240D01*
X224213Y244622D02*
X225787D01*
X224213Y247378D02*
X225787D01*
X223260Y335035D02*
X224835D01*
X223260Y337791D02*
X224835D01*
X193713Y427779D02*
X195287D01*
X193713Y430535D02*
X195287D01*
X193760Y424287D02*
X195335D01*
X193760Y421531D02*
X195335D01*
X224713Y424122D02*
X226287D01*
X224713Y426878D02*
X226287D01*
X222713Y474378D02*
X224287D01*
X222713Y471622D02*
X224287D01*
X193055Y462012D02*
X194630D01*
X193055Y459256D02*
X194630D01*
X192713Y473303D02*
X194287D01*
X192713Y476059D02*
X194287D01*
X192008Y330622D02*
X193583D01*
X192008Y333378D02*
X193583D01*
X191969Y339878D02*
X193543D01*
X191969Y337122D02*
X193543D01*
X193917Y375622D02*
X195492D01*
X193917Y378378D02*
X195492D01*
X193921Y385177D02*
X195496D01*
X193921Y382421D02*
X195496D01*
D11*
X261209Y354410D02*
Y357756D01*
X257567Y354410D02*
X261209D01*
Y382559D02*
Y385906D01*
X257567D02*
X261209D01*
X249791Y358937D02*
Y381378D01*
X223130Y279020D02*
Y283980D01*
X227185Y279020D02*
Y283980D01*
X224130Y231520D02*
Y236480D01*
X228185Y231520D02*
Y236480D01*
X220972Y322020D02*
Y326980D01*
X225028Y322020D02*
Y326980D01*
X222472Y411677D02*
Y416638D01*
X226528Y411677D02*
Y416638D01*
X220386Y459614D02*
Y464575D01*
X224441Y459614D02*
Y464575D01*
X222972Y366933D02*
Y371894D01*
X227028Y366933D02*
Y371894D01*
X229400Y250900D02*
Y253899D01*
X227901D01*
X227401Y253399D01*
Y252399D01*
X227901Y251900D01*
X229400D01*
X228400D02*
X227401Y250900D01*
X226401Y253399D02*
X225901Y253899D01*
X224902D01*
X224402Y253399D01*
Y252899D01*
X224902Y252399D01*
X225401D01*
X224902D01*
X224402Y251900D01*
Y251400D01*
X224902Y250900D01*
X225901D01*
X226401Y251400D01*
X223402Y253399D02*
X222902Y253899D01*
X221902D01*
X221403Y253399D01*
Y251400D01*
X221902Y250900D01*
X222902D01*
X223402Y251400D01*
Y253399D01*
X208100Y230400D02*
Y233399D01*
X206600D01*
X206101Y232899D01*
Y231899D01*
X206600Y231400D01*
X208100D01*
X207100D02*
X206101Y230400D01*
X203102D02*
X205101D01*
X203102Y232399D01*
Y232899D01*
X203601Y233399D01*
X204601D01*
X205101Y232899D01*
X202102Y230900D02*
X201602Y230400D01*
X200602D01*
X200103Y230900D01*
Y232899D01*
X200602Y233399D01*
X201602D01*
X202102Y232899D01*
Y232399D01*
X201602Y231899D01*
X200103D01*
X207900Y247900D02*
Y250899D01*
X206400D01*
X205901Y250399D01*
Y249399D01*
X206400Y248900D01*
X207900D01*
X206900D02*
X205901Y247900D01*
X202902D02*
X204901D01*
X202902Y249899D01*
Y250399D01*
X203401Y250899D01*
X204401D01*
X204901Y250399D01*
X201902D02*
X201402Y250899D01*
X200402D01*
X199903Y250399D01*
Y249899D01*
X200402Y249399D01*
X199903Y248900D01*
Y248400D01*
X200402Y247900D01*
X201402D01*
X201902Y248400D01*
Y248900D01*
X201402Y249399D01*
X201902Y249899D01*
Y250399D01*
X201402Y249399D02*
X200402D01*
X228900Y299900D02*
Y302899D01*
X227400D01*
X226901Y302399D01*
Y301399D01*
X227400Y300900D01*
X228900D01*
X227900D02*
X226901Y299900D01*
X223902D02*
X225901D01*
X223902Y301899D01*
Y302399D01*
X224401Y302899D01*
X225401D01*
X225901Y302399D01*
X220903Y302899D02*
X222902D01*
Y301399D01*
X221902Y301899D01*
X221402D01*
X220903Y301399D01*
Y300400D01*
X221402Y299900D01*
X222402D01*
X222902Y300400D01*
X206900Y276900D02*
Y279899D01*
X205400D01*
X204901Y279399D01*
Y278399D01*
X205400Y277900D01*
X206900D01*
X205900D02*
X204901Y276900D01*
X201902D02*
X203901D01*
X201902Y278899D01*
Y279399D01*
X202401Y279899D01*
X203401D01*
X203901Y279399D01*
X199402Y276900D02*
Y279899D01*
X200902Y278399D01*
X198903D01*
X207900Y290900D02*
Y293899D01*
X206400D01*
X205901Y293399D01*
Y292400D01*
X206400Y291900D01*
X207900D01*
X206900D02*
X205901Y290900D01*
X202902D02*
X204901D01*
X202902Y292899D01*
Y293399D01*
X203401Y293899D01*
X204401D01*
X204901Y293399D01*
X201902D02*
X201402Y293899D01*
X200402D01*
X199903Y293399D01*
Y292899D01*
X200402Y292400D01*
X200902D01*
X200402D01*
X199903Y291900D01*
Y291400D01*
X200402Y290900D01*
X201402D01*
X201902Y291400D01*
X258900Y314243D02*
Y317242D01*
X257400D01*
X256901Y316742D01*
Y315742D01*
X257400Y315242D01*
X258900D01*
X255901Y314243D02*
X254901D01*
X255401D01*
Y317242D01*
X255901Y316742D01*
X222300Y237557D02*
Y234558D01*
X220800D01*
X220301Y235057D01*
Y237057D01*
X220800Y237557D01*
X222300D01*
X217302D02*
X218301Y237057D01*
X219301Y236057D01*
Y235057D01*
X218801Y234558D01*
X217801D01*
X217302Y235057D01*
Y235557D01*
X217801Y236057D01*
X219301D01*
X221800Y283657D02*
Y280658D01*
X220301D01*
X219801Y281157D01*
Y283157D01*
X220301Y283657D01*
X221800D01*
X216802D02*
X218801D01*
Y282157D01*
X217801Y282657D01*
X217302D01*
X216802Y282157D01*
Y281157D01*
X217302Y280658D01*
X218301D01*
X218801Y281157D01*
X267901Y336100D02*
X268401Y336600D01*
X269400D01*
X269900Y336100D01*
Y334101D01*
X269400Y333601D01*
X268401D01*
X267901Y334101D01*
X266901Y336600D02*
X264902D01*
Y336100D01*
X266901Y334101D01*
Y333601D01*
X202401Y240899D02*
X202901Y241399D01*
X203900D01*
X204400Y240899D01*
Y238900D01*
X203900Y238400D01*
X202901D01*
X202401Y238900D01*
X199402Y241399D02*
X200401Y240899D01*
X201401Y239899D01*
Y238900D01*
X200901Y238400D01*
X199901D01*
X199402Y238900D01*
Y239400D01*
X199901Y239899D01*
X201401D01*
X201901Y286899D02*
X202400Y287399D01*
X203400D01*
X203900Y286899D01*
Y284900D01*
X203400Y284400D01*
X202400D01*
X201901Y284900D01*
X198902Y287399D02*
X200901D01*
Y285899D01*
X199901Y286399D01*
X199401D01*
X198902Y285899D01*
Y284900D01*
X199401Y284400D01*
X200401D01*
X200901Y284900D01*
X198895Y333100D02*
Y330101D01*
X200395D01*
X200895Y330601D01*
Y331600D01*
X200395Y332100D01*
X198895D01*
X199895D02*
X200895Y333100D01*
X203894D02*
X201894D01*
X203894Y331101D01*
Y330601D01*
X203394Y330101D01*
X202394D01*
X201894Y330601D01*
X204893D02*
X205393Y330101D01*
X206393D01*
X206893Y330601D01*
Y332600D01*
X206393Y333100D01*
X205393D01*
X204893Y332600D01*
Y330601D01*
X207900Y338156D02*
Y341155D01*
X206400D01*
X205901Y340655D01*
Y339655D01*
X206400Y339156D01*
X207900D01*
X206900D02*
X205901Y338156D01*
X204901D02*
X203901D01*
X204401D01*
Y341155D01*
X204901Y340655D01*
X202402Y338656D02*
X201902Y338156D01*
X200902D01*
X200402Y338656D01*
Y340655D01*
X200902Y341155D01*
X201902D01*
X202402Y340655D01*
Y340155D01*
X201902Y339655D01*
X200402D01*
X226900Y340400D02*
Y343399D01*
X225400D01*
X224901Y342899D01*
Y341899D01*
X225400Y341400D01*
X226900D01*
X225900D02*
X224901Y340400D01*
X223901D02*
X222901D01*
X223401D01*
Y343399D01*
X223901Y342899D01*
X219402Y343399D02*
X220402Y342899D01*
X221402Y341899D01*
Y340900D01*
X220902Y340400D01*
X219902D01*
X219402Y340900D01*
Y341400D01*
X219902Y341899D01*
X221402D01*
X209057Y427400D02*
Y430399D01*
X207558D01*
X207058Y429899D01*
Y428899D01*
X207558Y428400D01*
X209057D01*
X208058D02*
X207058Y427400D01*
X206058D02*
X205059D01*
X205559D01*
Y430399D01*
X206058Y429899D01*
X203559D02*
X203059Y430399D01*
X202060D01*
X201560Y429899D01*
Y429399D01*
X202060Y428899D01*
X202560D01*
X202060D01*
X201560Y428400D01*
Y427900D01*
X202060Y427400D01*
X203059D01*
X203559Y427900D01*
X208819Y421258D02*
Y424257D01*
X207319D01*
X206820Y423758D01*
Y422758D01*
X207319Y422258D01*
X208819D01*
X207819D02*
X206820Y421258D01*
X205820D02*
X204820D01*
X205320D01*
Y424257D01*
X205820Y423758D01*
X201321Y421258D02*
X203321D01*
X201321Y423258D01*
Y423758D01*
X201821Y424257D01*
X202821D01*
X203321Y423758D01*
X208105Y375463D02*
Y378462D01*
X206605D01*
X206105Y377962D01*
Y376962D01*
X206605Y376463D01*
X208105D01*
X207105D02*
X206105Y375463D01*
X205106D02*
X204106D01*
X204606D01*
Y378462D01*
X205106Y377962D01*
X202607Y375463D02*
X201607D01*
X202107D01*
Y378462D01*
X202607Y377962D01*
X208609Y382199D02*
Y385198D01*
X207109D01*
X206609Y384698D01*
Y383699D01*
X207109Y383199D01*
X208609D01*
X207609D02*
X206609Y382199D01*
X205610D02*
X204610D01*
X205110D01*
Y385198D01*
X205610Y384698D01*
X203110D02*
X202611Y385198D01*
X201611D01*
X201111Y384698D01*
Y382699D01*
X201611Y382199D01*
X202611D01*
X203110Y382699D01*
Y384698D01*
X233947Y373400D02*
Y376399D01*
X232448D01*
X231948Y375899D01*
Y374900D01*
X232448Y374400D01*
X233947D01*
X232948D02*
X231948Y373400D01*
X230948Y373900D02*
X230448Y373400D01*
X229449D01*
X228949Y373900D01*
Y375899D01*
X229449Y376399D01*
X230448D01*
X230948Y375899D01*
Y375399D01*
X230448Y374900D01*
X228949D01*
X227450Y428803D02*
Y431802D01*
X225951D01*
X225451Y431302D01*
Y430302D01*
X225951Y429803D01*
X227450D01*
X226450D02*
X225451Y428803D01*
X224451Y431302D02*
X223951Y431802D01*
X222952D01*
X222452Y431302D01*
Y430802D01*
X222952Y430302D01*
X222452Y429803D01*
Y429303D01*
X222952Y428803D01*
X223951D01*
X224451Y429303D01*
Y429803D01*
X223951Y430302D01*
X224451Y430802D01*
Y431302D01*
X223951Y430302D02*
X222952D01*
X226000Y317799D02*
Y314800D01*
X224500D01*
X224001Y315300D01*
Y317299D01*
X224500Y317799D01*
X226000D01*
X221501Y314800D02*
Y317799D01*
X223001Y316300D01*
X221002D01*
X234044Y368656D02*
Y365657D01*
X232545D01*
X232045Y366157D01*
Y368157D01*
X232545Y368656D01*
X234044D01*
X231045Y368157D02*
X230545Y368656D01*
X229546D01*
X229046Y368157D01*
Y367657D01*
X229546Y367157D01*
X230045D01*
X229546D01*
X229046Y366657D01*
Y366157D01*
X229546Y365657D01*
X230545D01*
X231045Y366157D01*
X226000Y406956D02*
Y403958D01*
X224500D01*
X224001Y404457D01*
Y406457D01*
X224500Y406956D01*
X226000D01*
X221002Y403958D02*
X223001D01*
X221002Y405957D01*
Y406457D01*
X221501Y406956D01*
X222501D01*
X223001Y406457D01*
X202046Y324903D02*
X202546Y325403D01*
X203546D01*
X204046Y324903D01*
Y322904D01*
X203546Y322404D01*
X202546D01*
X202046Y322904D01*
X199547Y322404D02*
Y325403D01*
X201047Y323903D01*
X199047D01*
X204401Y416257D02*
X204901Y416756D01*
X205900D01*
X206400Y416257D01*
Y414257D01*
X205900Y413758D01*
X204901D01*
X204401Y414257D01*
X201402Y413758D02*
X203401D01*
X201402Y415757D01*
Y416257D01*
X201901Y416756D01*
X202901D01*
X203401Y416257D01*
X204133Y370657D02*
X204633Y371157D01*
X205632D01*
X206132Y370657D01*
Y368657D01*
X205632Y368158D01*
X204633D01*
X204133Y368657D01*
X203133Y368158D02*
X202133D01*
X202633D01*
Y371157D01*
X203133Y370657D01*
X207700Y472900D02*
Y475899D01*
X206201D01*
X205701Y475399D01*
Y474400D01*
X206201Y473900D01*
X207700D01*
X206700D02*
X205701Y472900D01*
X204701D02*
X203701D01*
X204201D01*
Y475899D01*
X204701Y475399D01*
X200202Y475899D02*
X202202D01*
Y474400D01*
X201202Y474899D01*
X200702D01*
X200202Y474400D01*
Y473400D01*
X200702Y472900D01*
X201702D01*
X202202Y473400D01*
X205685Y454095D02*
Y457094D01*
X204186D01*
X203686Y456595D01*
Y455595D01*
X204186Y455095D01*
X205685D01*
X204685D02*
X203686Y454095D01*
X202686D02*
X201686D01*
X202186D01*
Y457094D01*
X202686Y456595D01*
X198687Y454095D02*
Y457094D01*
X200187Y455595D01*
X198187D01*
X225900Y476400D02*
Y479399D01*
X224400D01*
X223901Y478899D01*
Y477900D01*
X224400Y477400D01*
X225900D01*
X224900D02*
X223901Y476400D01*
X222901Y479399D02*
X220902D01*
Y478899D01*
X222901Y476900D01*
Y476400D01*
X258101Y394556D02*
X259100D01*
X258600D01*
Y392057D01*
X259100Y391558D01*
X259600D01*
X260100Y392057D01*
X255602Y391558D02*
Y394556D01*
X257101Y393057D01*
X255102D01*
X219357Y456199D02*
Y453200D01*
X217858D01*
X217358Y453700D01*
Y455699D01*
X217858Y456199D01*
X219357D01*
X216358Y453200D02*
X215359D01*
X215859D01*
Y456199D01*
X216358Y455699D01*
X203501Y467899D02*
X204000Y468399D01*
X205000D01*
X205500Y467899D01*
Y465900D01*
X205000Y465400D01*
X204000D01*
X203501Y465900D01*
X202501Y467899D02*
X202001Y468399D01*
X201001D01*
X200502Y467899D01*
Y467399D01*
X201001Y466899D01*
X201501D01*
X201001D01*
X200502Y466400D01*
Y465900D01*
X201001Y465400D01*
X202001D01*
X202501Y465900D01*
D12*
X136000Y222100D02*
Y261600D01*
X136500Y221600D02*
X165000D01*
X166000Y222600D01*
Y261600D01*
X136000D02*
X166000D01*
X136000Y268100D02*
Y307600D01*
X136500Y267600D02*
X165000D01*
X166000Y268600D01*
Y307600D01*
X136000D02*
X166000D01*
X136000Y315100D02*
Y354600D01*
X136500Y314600D02*
X165000D01*
X166000Y315600D01*
Y354600D01*
X136000D02*
X166000D01*
X136000Y360000D02*
Y399500D01*
X136500Y359500D02*
X165000D01*
X166000Y360500D01*
Y399500D01*
X136000D02*
X166000D01*
X136000Y405400D02*
Y444900D01*
X136500Y404900D02*
X165000D01*
X166000Y405900D01*
Y444900D01*
X136000D02*
X166000D01*
X136000Y490500D02*
X166000D01*
Y451500D02*
Y490500D01*
X165000Y450500D02*
X166000Y451500D01*
X136500Y450500D02*
X165000D01*
X136000Y451000D02*
X136500Y450500D01*
X136000Y451000D02*
Y490500D01*
D13*
X132000Y480184D02*
X129334D01*
X130667Y481517D02*
Y478852D01*
X131684Y467999D02*
X132184Y467499D01*
Y466500D01*
X131684Y466000D01*
X129685D01*
X129185Y466500D01*
Y467499D01*
X129685Y467999D01*
X132184Y468999D02*
Y470998D01*
Y469999D01*
X129185D01*
Y471998D02*
Y472998D01*
Y472498D01*
X132184D01*
X131684Y471998D01*
X130499Y458000D02*
Y460666D01*
X132684Y421499D02*
X133184Y420999D01*
Y420000D01*
X132684Y419500D01*
X130685D01*
X130185Y420000D01*
Y420999D01*
X130685Y421499D01*
X133184Y422499D02*
Y424498D01*
Y423499D01*
X130185D01*
Y427497D02*
Y425498D01*
X132184Y427497D01*
X132684D01*
X133184Y426998D01*
Y425998D01*
X132684Y425498D01*
X132500Y434684D02*
X129834D01*
X131167Y436017D02*
Y433352D01*
X130999Y411085D02*
Y413751D01*
X132500Y390499D02*
X129834D01*
X131167Y391832D02*
Y389166D01*
X132184Y378318D02*
X132684Y377818D01*
Y376819D01*
X132184Y376319D01*
X130185D01*
X129685Y376819D01*
Y377818D01*
X130185Y378318D01*
X132684Y379318D02*
Y381317D01*
Y380318D01*
X129685D01*
X132184Y382317D02*
X132684Y382817D01*
Y383817D01*
X132184Y384316D01*
X131684D01*
X131185Y383817D01*
Y383317D01*
Y383817D01*
X130685Y384316D01*
X130185D01*
X129685Y383817D01*
Y382817D01*
X130185Y382317D01*
X131499Y368819D02*
Y371485D01*
X133184Y331976D02*
X133684Y331476D01*
Y330476D01*
X133184Y329976D01*
X131185D01*
X130685Y330476D01*
Y331476D01*
X131185Y331976D01*
X133684Y332975D02*
Y334975D01*
Y333975D01*
X130685D01*
Y337474D02*
X133684D01*
X132185Y335974D01*
Y337974D01*
X133500Y344503D02*
X130834D01*
X132167Y345836D02*
Y343170D01*
X131999Y323134D02*
Y325800D01*
X131184Y284818D02*
X131684Y284318D01*
Y283319D01*
X131184Y282819D01*
X129185D01*
X128685Y283319D01*
Y284318D01*
X129185Y284818D01*
X131684Y285818D02*
Y287817D01*
Y286818D01*
X128685D01*
X131684Y290816D02*
Y288817D01*
X130185D01*
X130684Y289817D01*
Y290317D01*
X130185Y290816D01*
X129185D01*
X128685Y290317D01*
Y289317D01*
X129185Y288817D01*
X132000Y298003D02*
X129334D01*
X130667Y299336D02*
Y296670D01*
X130499Y274976D02*
Y277642D01*
X131184Y240318D02*
X131684Y239818D01*
Y238819D01*
X131184Y238319D01*
X129185D01*
X128685Y238819D01*
Y239818D01*
X129185Y240318D01*
X131684Y241318D02*
Y243317D01*
Y242318D01*
X128685D01*
X131684Y246316D02*
X131184Y245317D01*
X130185Y244317D01*
X129185D01*
X128685Y244817D01*
Y245816D01*
X129185Y246316D01*
X129685D01*
X130185Y245816D01*
Y244317D01*
X132000Y251503D02*
X129334D01*
X130667Y252836D02*
Y250170D01*
X130499Y230476D02*
Y233142D01*
M02*
