G04*
G04 #@! TF.GenerationSoftware,Altium Limited,Altium Designer,18.1.7 (191)*
G04*
G04 Layer_Color=128*
%FSLAX25Y25*%
%MOIN*%
G70*
G01*
G75*
%ADD49C,0.00200*%
D49*
X261579Y328400D02*
X271421D01*
X266500Y323479D02*
Y333321D01*
X261579Y484000D02*
X271421D01*
X266500Y479079D02*
Y488921D01*
X154327Y342500D02*
X157673D01*
X156000Y340827D02*
Y344173D01*
X194327Y342500D02*
X197673D01*
X196000Y340827D02*
Y344173D01*
X153827Y355658D02*
X157173D01*
X155500Y353984D02*
Y357331D01*
X193827Y355658D02*
X197173D01*
X195500Y353984D02*
Y357331D01*
X149008Y386000D02*
X152354D01*
X150681Y384327D02*
Y387673D01*
X189008Y386000D02*
X192354D01*
X190681Y384327D02*
Y387673D01*
X155327Y430000D02*
X158673D01*
X157000Y428327D02*
Y431673D01*
X195327Y430000D02*
X198673D01*
X197000Y428327D02*
Y431673D01*
X146327Y477256D02*
X149673D01*
X148000Y475583D02*
Y478929D01*
X186327Y477256D02*
X189673D01*
X188000Y475583D02*
Y478929D01*
X148543Y397000D02*
X151890D01*
X150216Y395327D02*
Y398673D01*
X188543Y397000D02*
X191890D01*
X190217Y395327D02*
Y398673D01*
X155327Y442130D02*
X158673D01*
X157000Y440457D02*
Y443803D01*
X195327Y442130D02*
X198673D01*
X197000Y440457D02*
Y443803D01*
X146327Y467500D02*
X149673D01*
X148000Y465827D02*
Y469173D01*
X186327Y467500D02*
X189673D01*
X188000Y465827D02*
Y469173D01*
X120244Y331157D02*
X125756D01*
X123000Y328402D02*
Y333913D01*
X120244Y350842D02*
X125756D01*
X123000Y348087D02*
Y353598D01*
X122835Y442315D02*
X127165D01*
X125000Y440150D02*
Y444480D01*
X122835Y462000D02*
X127165D01*
X125000Y459835D02*
Y464165D01*
X122835Y481685D02*
X127165D01*
X125000Y479520D02*
Y483850D01*
X122835Y416185D02*
X127165D01*
X125000Y414020D02*
Y418350D01*
X122835Y396500D02*
X127165D01*
X125000Y394335D02*
Y398665D01*
X122835Y376815D02*
X127165D01*
X125000Y374650D02*
Y378980D01*
X250600Y415500D02*
X253400D01*
X252000Y414100D02*
Y416900D01*
X167600Y416547D02*
X170400D01*
X169000Y415147D02*
Y417947D01*
X154600Y411000D02*
X157400D01*
X156000Y409600D02*
Y412400D01*
X144100Y377000D02*
X146900D01*
X145500Y375600D02*
Y378400D01*
X202100Y467000D02*
X204900D01*
X203500Y465600D02*
Y468400D01*
X259600Y419500D02*
X262400D01*
X261000Y418100D02*
Y420900D01*
X181100Y418500D02*
X183900D01*
X182500Y417100D02*
Y419900D01*
X269100Y382500D02*
X271900D01*
X270500Y381100D02*
Y383900D01*
X234100Y379500D02*
X236900D01*
X235500Y378100D02*
Y380900D01*
X212600Y347500D02*
X215400D01*
X214000Y346100D02*
Y348900D01*
M02*
