G04*
G04 #@! TF.GenerationSoftware,Altium Limited,Altium Designer,18.1.7 (191)*
G04*
G04 Layer_Color=65535*
%FSLAX25Y25*%
%MOIN*%
G70*
G01*
G75*
%ADD10C,0.00787*%
%ADD11C,0.00800*%
%ADD12C,0.01000*%
%ADD13C,0.00500*%
D10*
X123394Y363047D02*
X122606D01*
X123394D01*
X258831Y417386D02*
X258043D01*
X258831D01*
X167260Y365209D02*
X168835D01*
X167260Y367965D02*
X168835D01*
X221571Y359850D02*
Y370087D01*
X219799Y371858D02*
X221571Y370087D01*
X205410D02*
X207201Y371858D01*
X205429Y330520D02*
Y341150D01*
X221571Y330520D02*
Y341150D01*
X205429Y330520D02*
X221571D01*
X207201Y371858D02*
X219799D01*
X205429Y359850D02*
Y370087D01*
X202413Y399571D02*
X212650D01*
X200642Y397799D02*
X202413Y399571D01*
X200642Y385201D02*
X202413Y383410D01*
X231350Y383429D02*
X241980D01*
X231350Y399571D02*
X241980D01*
Y383429D02*
Y399571D01*
X200642Y385201D02*
Y397799D01*
X202413Y383429D02*
X212650D01*
X195185Y476756D02*
Y486992D01*
X196957Y488764D02*
X209555D01*
X195185Y447425D02*
X211327D01*
Y458055D01*
X195185Y447425D02*
Y458055D01*
X195165Y486992D02*
X196957Y488764D01*
X209555D02*
X211327Y486992D01*
Y476756D02*
Y486992D01*
X170713Y487878D02*
X172287D01*
X170713Y485122D02*
X172287D01*
X177213Y409122D02*
X178787D01*
X177213Y411878D02*
X178787D01*
X160622Y418713D02*
Y420287D01*
X163378Y418713D02*
Y420287D01*
X157468Y418713D02*
Y420287D01*
X154713Y418713D02*
Y420287D01*
X159213Y450122D02*
X160787D01*
X159213Y452878D02*
X160787D01*
X220850Y405929D02*
X231087D01*
X232858Y407701D01*
X231087Y422090D02*
X232858Y420299D01*
X191520Y422071D02*
X202150D01*
X191520Y405929D02*
X202150D01*
X191520D02*
Y422071D01*
X232858Y407701D02*
Y420299D01*
X220850Y422071D02*
X231087D01*
X160000Y342500D02*
X164000D01*
X188000D02*
X192000D01*
X164000Y346500D02*
X188000D01*
X164000Y338500D02*
Y346500D01*
Y338500D02*
X188000D01*
Y346500D01*
X159500Y355658D02*
X163500D01*
X187500D02*
X191500D01*
X163500Y359658D02*
X187500D01*
X163500Y351658D02*
Y359658D01*
Y351658D02*
X187500D01*
Y359658D01*
X154681Y386000D02*
X158681D01*
X182681D02*
X186681D01*
X158681Y390000D02*
X182681D01*
X158681Y382000D02*
Y390000D01*
Y382000D02*
X182681D01*
Y390000D01*
X161000Y430000D02*
X165000D01*
X189000D02*
X193000D01*
X165000Y434000D02*
X189000D01*
X165000Y426000D02*
Y434000D01*
Y426000D02*
X189000D01*
Y434000D01*
X152000Y477256D02*
X156000D01*
X180000D02*
X184000D01*
X156000Y481256D02*
X180000D01*
X156000Y473256D02*
Y481256D01*
Y473256D02*
X180000D01*
Y481256D01*
X154217Y397000D02*
X158217D01*
X182217D02*
X186216D01*
X158217Y401000D02*
X182217D01*
X158217Y393000D02*
Y401000D01*
Y393000D02*
X182217D01*
Y401000D01*
X161000Y442130D02*
X165000D01*
X189000D02*
X193000D01*
X165000Y446130D02*
X189000D01*
X165000Y438130D02*
Y446130D01*
Y438130D02*
X189000D01*
Y446130D01*
X152000Y467500D02*
X156000D01*
X180000D02*
X184000D01*
X156000Y471500D02*
X180000D01*
X156000Y463500D02*
Y471500D01*
Y463500D02*
X180000D01*
Y471500D01*
D11*
X125984Y494480D02*
X125492Y495333D01*
X124508D01*
X124016Y494480D01*
X124508Y493628D01*
X125492D01*
X125984Y494480D01*
Y428980D02*
X125492Y429833D01*
X124508D01*
X124016Y428980D01*
X124508Y428128D01*
X125492D01*
X125984Y428980D01*
X103500Y351003D02*
X106166D01*
X104833Y352336D02*
Y349670D01*
X104501Y329476D02*
Y332142D01*
X103816Y339818D02*
X103316Y339318D01*
Y338319D01*
X103816Y337819D01*
X105815D01*
X106315Y338319D01*
Y339318D01*
X105815Y339818D01*
X103316Y340818D02*
Y342817D01*
Y341818D01*
X106315D01*
Y345317D02*
X103316D01*
X104815Y343817D01*
Y345816D01*
X105001Y374819D02*
Y377485D01*
X103816Y384318D02*
X103316Y383818D01*
Y382819D01*
X103816Y382319D01*
X105815D01*
X106315Y382819D01*
Y383818D01*
X105815Y384318D01*
X103316Y385318D02*
Y387317D01*
Y386318D01*
X106315D01*
X103816Y388317D02*
X103316Y388817D01*
Y389816D01*
X103816Y390316D01*
X104316D01*
X104815Y389816D01*
Y389317D01*
Y389816D01*
X105315Y390316D01*
X105815D01*
X106315Y389816D01*
Y388817D01*
X105815Y388317D01*
X104501Y414585D02*
Y417251D01*
X103316Y427499D02*
X102816Y427000D01*
Y426000D01*
X103316Y425500D01*
X105315D01*
X105815Y426000D01*
Y427000D01*
X105315Y427499D01*
X102816Y428499D02*
Y430498D01*
Y429499D01*
X105815D01*
Y431498D02*
Y432498D01*
Y431998D01*
X102816D01*
X103316Y431498D01*
Y471499D02*
X102816Y470999D01*
Y470000D01*
X103316Y469500D01*
X105315D01*
X105815Y470000D01*
Y470999D01*
X105315Y471499D01*
X102816Y472499D02*
Y474498D01*
Y473499D01*
X105815D01*
Y475498D02*
Y476498D01*
Y475998D01*
X102816D01*
X103316Y475498D01*
X103000Y396499D02*
X105666D01*
X104333Y397832D02*
Y395166D01*
X103000Y442184D02*
X105666D01*
X104333Y443517D02*
Y440851D01*
X104501Y460500D02*
Y463166D01*
X103000Y482684D02*
X105666D01*
X104333Y484017D02*
Y481352D01*
D12*
X100000Y313000D02*
X104000D01*
X100000D02*
Y500000D01*
X280000D01*
Y313000D02*
Y500000D01*
X104000Y313000D02*
X280000D01*
D13*
X109221Y321315D02*
X138748D01*
X109221D02*
Y360685D01*
X138748D01*
Y321315D02*
Y360685D01*
X139173Y432472D02*
Y491528D01*
X108858D02*
X141142D01*
X108858Y432472D02*
Y491528D01*
Y432472D02*
X139173D01*
X141142D01*
Y491528D01*
X272709Y392779D02*
Y415220D01*
X261291Y419748D02*
X264933D01*
X261291Y416402D02*
Y419748D01*
Y388252D02*
X264933D01*
X261291D02*
Y391598D01*
X141142Y366972D02*
Y426028D01*
X139173Y366972D02*
X141142D01*
X108858D02*
X139173D01*
X108858D02*
Y426028D01*
X141142D01*
X139173Y366972D02*
Y426028D01*
X173347Y333900D02*
Y336899D01*
X174847D01*
X175347Y336399D01*
Y335400D01*
X174847Y334900D01*
X173347D01*
X174347D02*
X175347Y333900D01*
X176346D02*
X177346D01*
X176846D01*
Y336899D01*
X176346Y336399D01*
X178846D02*
X179345Y336899D01*
X180345D01*
X180845Y336399D01*
Y335899D01*
X180345Y335400D01*
X180845Y334900D01*
Y334400D01*
X180345Y333900D01*
X179345D01*
X178846Y334400D01*
Y334900D01*
X179345Y335400D01*
X178846Y335899D01*
Y336399D01*
X179345Y335400D02*
X180345D01*
X189300Y348644D02*
Y351643D01*
X190799D01*
X191299Y351143D01*
Y350144D01*
X190799Y349644D01*
X189300D01*
X190300D02*
X191299Y348644D01*
X192299D02*
X193299D01*
X192799D01*
Y351643D01*
X192299Y351143D01*
X194798Y351643D02*
X196798D01*
Y351143D01*
X194798Y349144D01*
Y348644D01*
X165600Y370400D02*
Y373399D01*
X167099D01*
X167599Y372899D01*
Y371900D01*
X167099Y371400D01*
X165600D01*
X166600D02*
X167599Y370400D01*
X168599D02*
X169599D01*
X169099D01*
Y373399D01*
X168599Y372899D01*
X173098Y373399D02*
X172098Y372899D01*
X171098Y371900D01*
Y370900D01*
X171598Y370400D01*
X172598D01*
X173098Y370900D01*
Y371400D01*
X172598Y371900D01*
X171098D01*
X165600Y414900D02*
Y417899D01*
X167099D01*
X167599Y417399D01*
Y416399D01*
X167099Y415900D01*
X165600D01*
X166600D02*
X167599Y414900D01*
X168599D02*
X169599D01*
X169099D01*
Y417899D01*
X168599Y417399D01*
X171098D02*
X171598Y417899D01*
X172598D01*
X173098Y417399D01*
Y416899D01*
X172598Y416399D01*
X172098D01*
X172598D01*
X173098Y415900D01*
Y415400D01*
X172598Y414900D01*
X171598D01*
X171098Y415400D01*
X145181Y410806D02*
Y413804D01*
X146681D01*
X147180Y413305D01*
Y412305D01*
X146681Y411805D01*
X145181D01*
X146181D02*
X147180Y410806D01*
X148180D02*
X149180D01*
X148680D01*
Y413804D01*
X148180Y413305D01*
X152679Y410806D02*
X150679D01*
X152679Y412805D01*
Y413305D01*
X152179Y413804D01*
X151179D01*
X150679Y413305D01*
X180100Y413900D02*
Y416899D01*
X181599D01*
X182099Y416399D01*
Y415400D01*
X181599Y414900D01*
X180100D01*
X181100D02*
X182099Y413900D01*
X183099Y414400D02*
X183599Y413900D01*
X184599D01*
X185098Y414400D01*
Y416399D01*
X184599Y416899D01*
X183599D01*
X183099Y416399D01*
Y415899D01*
X183599Y415400D01*
X185098D01*
X148050Y449803D02*
Y452802D01*
X149549D01*
X150049Y452302D01*
Y451302D01*
X149549Y450802D01*
X148050D01*
X149050D02*
X150049Y449803D01*
X151049Y452302D02*
X151549Y452802D01*
X152549D01*
X153048Y452302D01*
Y451802D01*
X152549Y451302D01*
X153048Y450802D01*
Y450303D01*
X152549Y449803D01*
X151549D01*
X151049Y450303D01*
Y450802D01*
X151549Y451302D01*
X151049Y451802D01*
Y452302D01*
X151549Y451302D02*
X152549D01*
X184981Y377400D02*
Y380399D01*
X186481D01*
X186980Y379899D01*
Y378900D01*
X186481Y378400D01*
X184981D01*
X185981D02*
X186980Y377400D01*
X189980Y380399D02*
X188980Y379899D01*
X187980Y378900D01*
Y377900D01*
X188480Y377400D01*
X189480D01*
X189980Y377900D01*
Y378400D01*
X189480Y378900D01*
X187980D01*
X177800Y420900D02*
Y423899D01*
X179299D01*
X179799Y423399D01*
Y422400D01*
X179299Y421900D01*
X177800D01*
X178800D02*
X179799Y420900D01*
X182798Y423899D02*
X180799D01*
Y422400D01*
X181799Y422899D01*
X182299D01*
X182798Y422400D01*
Y421400D01*
X182299Y420900D01*
X181299D01*
X180799Y421400D01*
X181800Y481156D02*
Y484155D01*
X183300D01*
X183799Y483655D01*
Y482655D01*
X183300Y482156D01*
X181800D01*
X182800D02*
X183799Y481156D01*
X186299D02*
Y484155D01*
X184799Y482655D01*
X186798D01*
X175016Y403900D02*
Y406899D01*
X176516D01*
X177016Y406399D01*
Y405400D01*
X176516Y404900D01*
X175016D01*
X176016D02*
X177016Y403900D01*
X178015Y406399D02*
X178515Y406899D01*
X179515D01*
X180015Y406399D01*
Y405899D01*
X179515Y405400D01*
X179015D01*
X179515D01*
X180015Y404900D01*
Y404400D01*
X179515Y403900D01*
X178515D01*
X178015Y404400D01*
X181300Y448270D02*
Y451269D01*
X182799D01*
X183299Y450769D01*
Y449770D01*
X182799Y449270D01*
X181300D01*
X182300D02*
X183299Y448270D01*
X186298D02*
X184299D01*
X186298Y450269D01*
Y450769D01*
X185799Y451269D01*
X184799D01*
X184299Y450769D01*
X150115Y460900D02*
Y463899D01*
X151614D01*
X152114Y463399D01*
Y462399D01*
X151614Y461900D01*
X150115D01*
X151115D02*
X152114Y460900D01*
X153114D02*
X154114D01*
X153614D01*
Y463899D01*
X153114Y463399D01*
X144649Y323249D02*
X143650D01*
X144149D01*
Y320750D01*
X143650Y320250D01*
X143150D01*
X142650Y320750D01*
X145649Y322749D02*
X146149Y323249D01*
X147149D01*
X147648Y322749D01*
Y322249D01*
X147149Y321749D01*
X146649D01*
X147149D01*
X147648Y321250D01*
Y320750D01*
X147149Y320250D01*
X146149D01*
X145649Y320750D01*
X147299Y489899D02*
X146300D01*
X146800D01*
Y487400D01*
X146300Y486900D01*
X145800D01*
X145300Y487400D01*
X148299Y486900D02*
X149299D01*
X148799D01*
Y489899D01*
X148299Y489399D01*
X223500Y352299D02*
Y349300D01*
X224999D01*
X225499Y349800D01*
Y351799D01*
X224999Y352299D01*
X223500D01*
X227998Y349300D02*
Y352299D01*
X226499Y350799D01*
X228498D01*
X219200Y381999D02*
Y379000D01*
X220700D01*
X221199Y379500D01*
Y381499D01*
X220700Y381999D01*
X219200D01*
X222199Y381499D02*
X222699Y381999D01*
X223698D01*
X224198Y381499D01*
Y380999D01*
X223698Y380500D01*
X223199D01*
X223698D01*
X224198Y380000D01*
Y379500D01*
X223698Y379000D01*
X222699D01*
X222199Y379500D01*
X209000Y428299D02*
Y425300D01*
X210500D01*
X210999Y425800D01*
Y427799D01*
X210500Y428299D01*
X209000D01*
X213998Y425300D02*
X211999D01*
X213998Y427299D01*
Y427799D01*
X213498Y428299D01*
X212499D01*
X211999Y427799D01*
X148901Y429099D02*
X148401Y428600D01*
Y427600D01*
X148901Y427100D01*
X150900D01*
X151400Y427600D01*
Y428600D01*
X150900Y429099D01*
X151400Y432098D02*
Y430099D01*
X149401Y432098D01*
X148901D01*
X148401Y431599D01*
Y430599D01*
X148901Y430099D01*
X169600Y489900D02*
Y492899D01*
X171099D01*
X171599Y492399D01*
Y491399D01*
X171099Y490900D01*
X169600D01*
X170600D02*
X171599Y489900D01*
X172599Y492899D02*
X174598D01*
Y492399D01*
X172599Y490400D01*
Y489900D01*
X264399Y428399D02*
X263400D01*
X263899D01*
Y425900D01*
X263400Y425400D01*
X262900D01*
X262400Y425900D01*
X266898Y425400D02*
Y428399D01*
X265399Y426899D01*
X267398D01*
X146299Y408399D02*
X145300D01*
X145800D01*
Y405900D01*
X145300Y405400D01*
X144800D01*
X144300Y405900D01*
X149298Y405400D02*
X147299D01*
X149298Y407399D01*
Y407899D01*
X148799Y408399D01*
X147799D01*
X147299Y407899D01*
X214300Y489199D02*
Y486200D01*
X215799D01*
X216299Y486700D01*
Y488699D01*
X215799Y489199D01*
X214300D01*
X217299Y486200D02*
X218299D01*
X217799D01*
Y489199D01*
X217299Y488699D01*
M02*
