M48
;Layer_Color=9474304
;FILE_FORMAT=2:5
INCH,LZ
;TYPE=PLATED
T1F00S00C0.02800
T2F00S00C0.03346
T3F00S00C0.04331
T4F00S00C0.05512
;TYPE=NON_PLATED
T5F00S00C0.09843
%
T01
X01455Y0377
X0156Y0411
X0169Y0416547
X01825Y04185
X02035Y0467
X0252Y04155
X0261Y04195
X02705Y03825
X02355Y03795
X0214Y03475
T02
X0156Y03425
X01555Y0355658
X0150681Y0386
X0150216Y0397
X0148Y04675
X0157Y044213
Y043
X0197
Y044213
X0188Y04675
X0190217Y0397
X0190681Y0386
X01955Y0355658
X0196Y03425
X0188Y0477256
X0148
T03
X0125Y0376815
Y03965
Y0416185
Y0442315
Y0462
Y0481685
T04
X0123Y0331157
Y0350842
T05
X02665Y03284
Y0484
M30
